<?xml version="1.0" encoding="UTF-8" standalone="no"?>
<!-- Created with Inkscape (http://www.inkscape.org/) -->
<svg
   xmlns:dc="http://purl.org/dc/elements/1.1/"
   xmlns:cc="http://web.resource.org/cc/"
   xmlns:rdf="http://www.w3.org/1999/02/22-rdf-syntax-ns#"
   xmlns:svg="http://www.w3.org/2000/svg"
   xmlns="http://www.w3.org/2000/svg"
   xmlns:sodipodi="http://sodipodi.sourceforge.net/DTD/sodipodi-0.dtd"
   xmlns:inkscape="http://www.inkscape.org/namespaces/inkscape"
   width="375"
   height="240"
   id="svg2"
   sodipodi:version="0.32"
   inkscape:version="0.44.1"
   version="1.0"
   sodipodi:docbase="/home/cburnett/wikipedia/images"
   sodipodi:docname="Bayer pattern on sensor profile.svg">
  <defs
     id="defs4">
    <marker
       inkscape:stockid="TriangleOutL"
       orient="auto"
       refY="0"
       refX="0"
       id="TriangleOutL"
       style="overflow:visible">
      <path
         id="path2998"
         d="M 5.77,0 L -2.88,5 L -2.88,-5 L 5.77,0 z "
         style="fill-rule:evenodd;stroke:black;stroke-width:1pt;marker-start:none"
         transform="scale(0.8,0.8)" />
    </marker>
    <marker
       inkscape:stockid="TriangleInL"
       orient="auto"
       refY="0"
       refX="0"
       id="TriangleInL"
       style="overflow:visible">
      <path
         id="path3007"
         d="M 5.77,0 L -2.88,5 L -2.88,-5 L 5.77,0 z "
         style="fill-rule:evenodd;stroke:black;stroke-width:1pt;marker-start:none"
         transform="scale(-0.8,-0.8)" />
    </marker>
  </defs>
  <sodipodi:namedview
     id="base"
     pagecolor="#ffffff"
     bordercolor="#666666"
     borderopacity="1.0"
     gridtolerance="10000"
     guidetolerance="10"
     objecttolerance="10"
     inkscape:pageopacity="0.0"
     inkscape:pageshadow="2"
     inkscape:zoom="1.4"
     inkscape:cx="209.23344"
     inkscape:cy="202.62583"
     inkscape:document-units="px"
     inkscape:current-layer="layer1"
     width="375px"
     height="240px"
     showgrid="true"
     inkscape:grid-points="true"
     inkscape:window-width="977"
     inkscape:window-height="965"
     inkscape:window-x="0"
     inkscape:window-y="31" />
  <metadata
     id="metadata7">
    <rdf:RDF>
      <cc:Work
         rdf:about="">
        <dc:format>image/svg+xml</dc:format>
        <dc:type
           rdf:resource="http://purl.org/dc/dcmitype/StillImage" />
      </cc:Work>
    </rdf:RDF>
  </metadata>
  <g
     inkscape:label="Layer 1"
     inkscape:groupmode="layer"
     id="layer1">
    <path
       style="fill:gray;fill-opacity:1;fill-rule:evenodd;stroke:black;stroke-width:1px;stroke-linecap:butt;stroke-linejoin:miter;stroke-opacity:1"
       d="M 10,90 L 10,150 L 70,150 L 70,90 L 10,90"
       id="path2915" />
    <g
       id="g3103"
       style="fill:red;fill-opacity:1;stroke:none"
       transform="translate(-10,-10)">
      <path
         style="fill:red;fill-opacity:1;fill-rule:evenodd;stroke:none;stroke-width:1px;stroke-linecap:butt;stroke-linejoin:miter;stroke-opacity:1"
         d="M 34.5,20 C 34.5,20 34.5,20 34.5,75 L 35.5,75 C 35.5,47.5 35.5,33.75 35.5,26.875 C 35.5,23.4375 35.5,21.734375 35.5,20.875 C 35.5,20.445312 35.5,20.201172 35.5,20.09375 C 35.5,20.040039 35.5,20.013428 35.5,20 L 35,20 L 34.5,20 z "
         id="path2917" />
      <path
         style="fill:red;fill-opacity:1;fill-rule:evenodd;stroke:none;stroke-width:0.8pt;marker-start:none"
         d="M 35,79.616 L 31,72.696 L 39,72.696 L 35,79.616 z "
         id="path3109" />
    </g>
    <g
       id="g3111"
       style="fill:lime;fill-opacity:1;stroke:none"
       transform="translate(-10,-10)">
      <path
         style="fill:lime;fill-opacity:1;fill-rule:evenodd;stroke:none;stroke-width:1px;stroke-linecap:butt;stroke-linejoin:miter;stroke-opacity:1"
         d="M 49.5,20 L 49.5,75 L 50.5,75 L 50.5,20 L 49.5,20 z "
         id="path2919" />
      <path
         style="fill:lime;fill-opacity:1;fill-rule:evenodd;stroke:none;stroke-width:0.8pt;marker-start:none"
         d="M 50,79.616 L 46,72.696 L 54,72.696 L 50,79.616 z "
         id="path3117" />
    </g>
    <g
       id="g3119"
       style="fill:blue;fill-opacity:1;stroke:none"
       transform="translate(-10,-10)">
      <path
         style="fill:blue;fill-opacity:1;fill-rule:evenodd;stroke:none;stroke-width:1px;stroke-linecap:butt;stroke-linejoin:miter;stroke-opacity:1"
         d="M 64.5,20 L 64.5,75 L 65.5,75 L 65.5,20 L 64.5,20 z "
         id="path2921" />
      <path
         style="fill:blue;fill-opacity:1;fill-rule:evenodd;stroke:none;stroke-width:0.8pt;marker-start:none"
         d="M 65,79.616 L 61,72.696 L 69,72.696 L 65,79.616 z "
         id="path3125" />
    </g>
    <g
       id="g3137"
       style="fill:red;fill-opacity:1;stroke:none"
       transform="translate(-40,-9.616)">
      <path
         style="fill:red;fill-opacity:1;fill-rule:evenodd;stroke:none;stroke-width:1px;stroke-linecap:butt;stroke-linejoin:miter;stroke-opacity:1"
         d="M 64.5,100 L 64.5,130 L 65.5,130 L 65.5,100 L 64.5,100 z "
         id="path3133" />
      <path
         style="fill:red;fill-opacity:1;fill-rule:evenodd;stroke:none;stroke-width:0.8pt;marker-start:none"
         d="M 65,134.616 L 61,127.696 L 69,127.696 L 65,134.616 z "
         id="path3143" />
    </g>
    <path
       style="fill:red;fill-opacity:1;fill-rule:evenodd;stroke:black;stroke-width:1px;stroke-linecap:butt;stroke-linejoin:miter;stroke-opacity:1"
       d="M 10,70 L 70,70 L 70,90 L 10,90 L 10,70 z "
       id="path2913" />
    <path
       style="fill:gray;fill-opacity:1;fill-rule:evenodd;stroke:black;stroke-width:1px;stroke-linecap:butt;stroke-linejoin:miter;stroke-opacity:1"
       d="M 100,90 L 100,150 L 160,150 L 160,90 L 100,90"
       id="path3145" />
    <g
       id="g3147"
       style="fill:red;fill-opacity:1;stroke:none"
       transform="translate(80,-10)">
      <path
         style="fill:red;fill-opacity:1;fill-rule:evenodd;stroke:none;stroke-width:1px;stroke-linecap:butt;stroke-linejoin:miter;stroke-opacity:1"
         d="M 34.5,20 C 34.5,20 34.5,20 34.5,75 L 35.5,75 C 35.5,47.5 35.5,33.75 35.5,26.875 C 35.5,23.4375 35.5,21.734375 35.5,20.875 C 35.5,20.445312 35.5,20.201172 35.5,20.09375 C 35.5,20.040039 35.5,20.013428 35.5,20 L 35,20 L 34.5,20 z "
         id="path3149" />
      <path
         style="fill:red;fill-opacity:1;fill-rule:evenodd;stroke:none;stroke-width:0.8pt;marker-start:none"
         d="M 35,79.616 L 31,72.696 L 39,72.696 L 35,79.616 z "
         id="path3151" />
    </g>
    <g
       id="g3153"
       style="fill:lime;fill-opacity:1;stroke:none"
       transform="translate(80,-10)">
      <path
         style="fill:lime;fill-opacity:1;fill-rule:evenodd;stroke:none;stroke-width:1px;stroke-linecap:butt;stroke-linejoin:miter;stroke-opacity:1"
         d="M 49.5,20 L 49.5,75 L 50.5,75 L 50.5,20 L 49.5,20 z "
         id="path3155" />
      <path
         style="fill:lime;fill-opacity:1;fill-rule:evenodd;stroke:none;stroke-width:0.8pt;marker-start:none"
         d="M 50,79.616 L 46,72.696 L 54,72.696 L 50,79.616 z "
         id="path3157" />
    </g>
    <g
       id="g3159"
       style="fill:blue;fill-opacity:1;stroke:none"
       transform="translate(80,-10)">
      <path
         style="fill:blue;fill-opacity:1;fill-rule:evenodd;stroke:none;stroke-width:1px;stroke-linecap:butt;stroke-linejoin:miter;stroke-opacity:1"
         d="M 64.5,20 L 64.5,75 L 65.5,75 L 65.5,20 L 64.5,20 z "
         id="path3161" />
      <path
         style="fill:blue;fill-opacity:1;fill-rule:evenodd;stroke:none;stroke-width:0.8pt;marker-start:none"
         d="M 65,79.616 L 61,72.696 L 69,72.696 L 65,79.616 z "
         id="path3163" />
    </g>
    <g
       id="g3165"
       style="fill:lime;fill-opacity:1;stroke:none"
       transform="translate(65,-9.616)">
      <path
         style="fill:lime;fill-opacity:1;fill-rule:evenodd;stroke:none;stroke-width:1px;stroke-linecap:butt;stroke-linejoin:miter;stroke-opacity:1"
         d="M 64.5,100 L 64.5,130 L 65.5,130 L 65.5,100 L 64.5,100 z "
         id="path3167" />
      <path
         style="fill:lime;fill-opacity:1;fill-rule:evenodd;stroke:none;stroke-width:0.8pt;marker-start:none"
         d="M 65,134.616 L 61,127.696 L 69,127.696 L 65,134.616 z "
         id="path3169" />
    </g>
    <path
       style="fill:lime;fill-opacity:1;fill-rule:evenodd;stroke:black;stroke-width:1px;stroke-linecap:butt;stroke-linejoin:miter;stroke-opacity:1"
       d="M 100,70 L 160,70 L 160,90 L 100,90 L 100,70 z "
       id="path3171" />
    <path
       style="fill:gray;fill-opacity:1;fill-rule:evenodd;stroke:black;stroke-width:1px;stroke-linecap:butt;stroke-linejoin:miter;stroke-opacity:1"
       d="M 190,90 L 190,150 L 250,150 L 250,90 L 190,90"
       id="path3173" />
    <g
       id="g3175"
       style="fill:red;fill-opacity:1;stroke:none"
       transform="translate(170,-10)">
      <path
         style="fill:red;fill-opacity:1;fill-rule:evenodd;stroke:none;stroke-width:1px;stroke-linecap:butt;stroke-linejoin:miter;stroke-opacity:1"
         d="M 34.5,20 C 34.5,20 34.5,20 34.5,75 L 35.5,75 C 35.5,47.5 35.5,33.75 35.5,26.875 C 35.5,23.4375 35.5,21.734375 35.5,20.875 C 35.5,20.445312 35.5,20.201172 35.5,20.09375 C 35.5,20.040039 35.5,20.013428 35.5,20 L 35,20 L 34.5,20 z "
         id="path3177" />
      <path
         style="fill:red;fill-opacity:1;fill-rule:evenodd;stroke:none;stroke-width:0.8pt;marker-start:none"
         d="M 35,79.616 L 31,72.696 L 39,72.696 L 35,79.616 z "
         id="path3179" />
    </g>
    <g
       id="g3181"
       style="fill:lime;fill-opacity:1;stroke:none"
       transform="translate(170,-10)">
      <path
         style="fill:lime;fill-opacity:1;fill-rule:evenodd;stroke:none;stroke-width:1px;stroke-linecap:butt;stroke-linejoin:miter;stroke-opacity:1"
         d="M 49.5,20 L 49.5,75 L 50.5,75 L 50.5,20 L 49.5,20 z "
         id="path3183" />
      <path
         style="fill:lime;fill-opacity:1;fill-rule:evenodd;stroke:none;stroke-width:0.8pt;marker-start:none"
         d="M 50,79.616 L 46,72.696 L 54,72.696 L 50,79.616 z "
         id="path3185" />
    </g>
    <g
       id="g3187"
       style="fill:blue;fill-opacity:1;stroke:none"
       transform="translate(170,-10)">
      <path
         style="fill:blue;fill-opacity:1;fill-rule:evenodd;stroke:none;stroke-width:1px;stroke-linecap:butt;stroke-linejoin:miter;stroke-opacity:1"
         d="M 64.5,20 L 64.5,75 L 65.5,75 L 65.5,20 L 64.5,20 z "
         id="path3189" />
      <path
         style="fill:blue;fill-opacity:1;fill-rule:evenodd;stroke:none;stroke-width:0.8pt;marker-start:none"
         d="M 65,79.616 L 61,72.696 L 69,72.696 L 65,79.616 z "
         id="path3191" />
    </g>
    <g
       id="g3193"
       style="fill:blue;fill-opacity:1;stroke:none"
       transform="translate(170,-10)">
      <path
         style="fill:blue;fill-opacity:1;fill-rule:evenodd;stroke:none;stroke-width:1px;stroke-linecap:butt;stroke-linejoin:miter;stroke-opacity:1"
         d="M 64.5,100 L 64.5,130 L 65.5,130 L 65.5,100 L 64.5,100 z "
         id="path3195" />
      <path
         style="fill:blue;fill-opacity:1;fill-rule:evenodd;stroke:none;stroke-width:0.8pt;marker-start:none"
         d="M 65,134.616 L 61,127.696 L 69,127.696 L 65,134.616 z "
         id="path3197" />
    </g>
    <path
       style="fill:blue;fill-opacity:1;fill-rule:evenodd;stroke:black;stroke-width:1px;stroke-linecap:butt;stroke-linejoin:miter;stroke-opacity:1"
       d="M 190,70 L 250,70 L 250,90 L 190,90 L 190,70 z "
       id="path3199" />
    <text
       xml:space="preserve"
       style="font-size:12px;font-style:normal;font-variant:normal;font-weight:normal;font-stretch:normal;text-align:start;line-height:125%;writing-mode:lr-tb;text-anchor:start;fill:black;fill-opacity:1;stroke:none;stroke-width:1px;stroke-linecap:butt;stroke-linejoin:miter;stroke-opacity:1;font-family:Bitstream Vera Sans"
       x="258.82227"
       y="38.92857"
       id="text3201"
       sodipodi:linespacing="125%"><tspan
         sodipodi:role="line"
         id="tspan3203"
         x="258.82227"
         y="38.92857">Incoming light</tspan></text>
    <text
       xml:space="preserve"
       style="font-size:12px;font-style:normal;font-variant:normal;font-weight:normal;font-stretch:normal;text-align:start;line-height:125%;writing-mode:lr-tb;text-anchor:start;fill:black;fill-opacity:1;stroke:none;stroke-width:1px;stroke-linecap:butt;stroke-linejoin:miter;stroke-opacity:1;font-family:Bitstream Vera Sans"
       x="258.82227"
       y="83.624176"
       id="text3205"
       sodipodi:linespacing="125%"><tspan
         sodipodi:role="line"
         id="tspan3207"
         x="258.82227"
         y="83.624176">Filter layer</tspan></text>
    <text
       xml:space="preserve"
       style="font-size:12px;font-style:normal;font-variant:normal;font-weight:normal;font-stretch:normal;text-align:start;line-height:125%;writing-mode:lr-tb;text-anchor:start;fill:black;fill-opacity:1;stroke:none;stroke-width:1px;stroke-linecap:butt;stroke-linejoin:miter;stroke-opacity:1;font-family:Bitstream Vera Sans"
       x="259.20898"
       y="123.20508"
       id="text3209"
       sodipodi:linespacing="125%"><tspan
         sodipodi:role="line"
         id="tspan3211"
         x="259.20898"
         y="123.20508">Sensor array</tspan></text>
    <g
       id="g3483"
       transform="translate(-10,-10)">
      <path
         id="path3213"
         d="M 20,180 L 30,180 L 30,190 L 20,190 L 20,180 z "
         style="fill:white;fill-opacity:1;fill-rule:evenodd;stroke:black;stroke-width:1px;stroke-linecap:butt;stroke-linejoin:miter;stroke-opacity:1" />
      <path
         id="path3217"
         d="M 30,180 L 40,180 L 40,190 L 30,190 L 30,180 z "
         style="fill:white;fill-opacity:1;fill-rule:evenodd;stroke:black;stroke-width:1px;stroke-linecap:butt;stroke-linejoin:miter;stroke-opacity:1" />
      <path
         id="path3219"
         d="M 30,190 L 40,190 L 40,200 L 30,200 L 30,190 z "
         style="fill:red;fill-opacity:1;fill-rule:evenodd;stroke:black;stroke-width:1px;stroke-linecap:butt;stroke-linejoin:miter;stroke-opacity:1" />
      <path
         id="path3221"
         d="M 20,190 L 30,190 L 30,200 L 20,200 L 20,190 z "
         style="fill:white;fill-opacity:1;fill-rule:evenodd;stroke:black;stroke-width:1px;stroke-linecap:butt;stroke-linejoin:miter;stroke-opacity:1" />
      <path
         id="path3223"
         d="M 40,180 L 50,180 L 50,190 L 40,190 L 40,180 z "
         style="fill:white;fill-opacity:1;fill-rule:evenodd;stroke:black;stroke-width:1px;stroke-linecap:butt;stroke-linejoin:miter;stroke-opacity:1" />
      <path
         id="path3225"
         d="M 50,180 L 60,180 L 60,190 L 50,190 L 50,180 z "
         style="fill:white;fill-opacity:1;fill-rule:evenodd;stroke:black;stroke-width:1px;stroke-linecap:butt;stroke-linejoin:miter;stroke-opacity:1" />
      <path
         id="path3227"
         d="M 50,190 L 60,190 L 60,200 L 50,200 L 50,190 z "
         style="fill:red;fill-opacity:1;fill-rule:evenodd;stroke:black;stroke-width:1px;stroke-linecap:butt;stroke-linejoin:miter;stroke-opacity:1" />
      <path
         id="path3229"
         d="M 40,190 L 50,190 L 50,200 L 40,200 L 40,190 z "
         style="fill:white;fill-opacity:1;fill-rule:evenodd;stroke:black;stroke-width:1px;stroke-linecap:butt;stroke-linejoin:miter;stroke-opacity:1" />
      <path
         id="path3231"
         d="M 60,180 L 70,180 L 70,190 L 60,190 L 60,180 z "
         style="fill:white;fill-opacity:1;fill-rule:evenodd;stroke:black;stroke-width:1px;stroke-linecap:butt;stroke-linejoin:miter;stroke-opacity:1" />
      <path
         id="path3233"
         d="M 70,180 L 80,180 L 80,190 L 70,190 L 70,180 z "
         style="fill:white;fill-opacity:1;fill-rule:evenodd;stroke:black;stroke-width:1px;stroke-linecap:butt;stroke-linejoin:miter;stroke-opacity:1" />
      <path
         id="path3235"
         d="M 70,190 L 80,190 L 80,200 L 70,200 L 70,190 z "
         style="fill:red;fill-opacity:1;fill-rule:evenodd;stroke:black;stroke-width:1px;stroke-linecap:butt;stroke-linejoin:miter;stroke-opacity:1" />
      <path
         id="path3237"
         d="M 60,190 L 70,190 L 70,200 L 60,200 L 60,190 z "
         style="fill:white;fill-opacity:1;fill-rule:evenodd;stroke:black;stroke-width:1px;stroke-linecap:butt;stroke-linejoin:miter;stroke-opacity:1" />
      <path
         id="path3239"
         d="M 20,200 L 30,200 L 30,210 L 20,210 L 20,200 z "
         style="fill:white;fill-opacity:1;fill-rule:evenodd;stroke:black;stroke-width:1px;stroke-linecap:butt;stroke-linejoin:miter;stroke-opacity:1" />
      <path
         id="path3241"
         d="M 30,200 L 40,200 L 40,210 L 30,210 L 30,200 z "
         style="fill:white;fill-opacity:1;fill-rule:evenodd;stroke:black;stroke-width:1px;stroke-linecap:butt;stroke-linejoin:miter;stroke-opacity:1" />
      <path
         id="path3243"
         d="M 30,210 L 40,210 L 40,220 L 30,220 L 30,210 z "
         style="fill:red;fill-opacity:1;fill-rule:evenodd;stroke:black;stroke-width:1px;stroke-linecap:butt;stroke-linejoin:miter;stroke-opacity:1" />
      <path
         id="path3245"
         d="M 20,210 L 30,210 L 30,220 L 20,220 L 20,210 z "
         style="fill:white;fill-opacity:1;fill-rule:evenodd;stroke:black;stroke-width:1px;stroke-linecap:butt;stroke-linejoin:miter;stroke-opacity:1" />
      <path
         id="path3247"
         d="M 40,200 L 50,200 L 50,210 L 40,210 L 40,200 z "
         style="fill:white;fill-opacity:1;fill-rule:evenodd;stroke:black;stroke-width:1px;stroke-linecap:butt;stroke-linejoin:miter;stroke-opacity:1" />
      <path
         id="path3249"
         d="M 50,200 L 60,200 L 60,210 L 50,210 L 50,200 z "
         style="fill:white;fill-opacity:1;fill-rule:evenodd;stroke:black;stroke-width:1px;stroke-linecap:butt;stroke-linejoin:miter;stroke-opacity:1" />
      <path
         id="path3251"
         d="M 50,210 L 60,210 L 60,220 L 50,220 L 50,210 z "
         style="fill:red;fill-opacity:1;fill-rule:evenodd;stroke:black;stroke-width:1px;stroke-linecap:butt;stroke-linejoin:miter;stroke-opacity:1" />
      <path
         id="path3253"
         d="M 40,210 L 50,210 L 50,220 L 40,220 L 40,210 z "
         style="fill:white;fill-opacity:1;fill-rule:evenodd;stroke:black;stroke-width:1px;stroke-linecap:butt;stroke-linejoin:miter;stroke-opacity:1" />
      <path
         id="path3255"
         d="M 60,200 L 70,200 L 70,210 L 60,210 L 60,200 z "
         style="fill:white;fill-opacity:1;fill-rule:evenodd;stroke:black;stroke-width:1px;stroke-linecap:butt;stroke-linejoin:miter;stroke-opacity:1" />
      <path
         id="path3257"
         d="M 70,200 L 80,200 L 80,210 L 70,210 L 70,200 z "
         style="fill:white;fill-opacity:1;fill-rule:evenodd;stroke:black;stroke-width:1px;stroke-linecap:butt;stroke-linejoin:miter;stroke-opacity:1" />
      <path
         id="path3259"
         d="M 70,210 L 80,210 L 80,220 L 70,220 L 70,210 z "
         style="fill:red;fill-opacity:1;fill-rule:evenodd;stroke:black;stroke-width:1px;stroke-linecap:butt;stroke-linejoin:miter;stroke-opacity:1" />
      <path
         id="path3261"
         d="M 60,210 L 70,210 L 70,220 L 60,220 L 60,210 z "
         style="fill:white;fill-opacity:1;fill-rule:evenodd;stroke:black;stroke-width:1px;stroke-linecap:butt;stroke-linejoin:miter;stroke-opacity:1" />
      <path
         id="path3287"
         d="M 20,220 L 30,220 L 30,230 L 20,230 L 20,220 z "
         style="fill:white;fill-opacity:1;fill-rule:evenodd;stroke:black;stroke-width:1px;stroke-linecap:butt;stroke-linejoin:miter;stroke-opacity:1" />
      <path
         id="path3289"
         d="M 30,220 L 40,220 L 40,230 L 30,230 L 30,220 z "
         style="fill:white;fill-opacity:1;fill-rule:evenodd;stroke:black;stroke-width:1px;stroke-linecap:butt;stroke-linejoin:miter;stroke-opacity:1" />
      <path
         id="path3291"
         d="M 30,230 L 40,230 L 40,240 L 30,240 L 30,230 z "
         style="fill:red;fill-opacity:1;fill-rule:evenodd;stroke:black;stroke-width:1px;stroke-linecap:butt;stroke-linejoin:miter;stroke-opacity:1" />
      <path
         id="path3293"
         d="M 20,230 L 30,230 L 30,240 L 20,240 L 20,230 z "
         style="fill:white;fill-opacity:1;fill-rule:evenodd;stroke:black;stroke-width:1px;stroke-linecap:butt;stroke-linejoin:miter;stroke-opacity:1" />
      <path
         id="path3295"
         d="M 40,220 L 50,220 L 50,230 L 40,230 L 40,220 z "
         style="fill:white;fill-opacity:1;fill-rule:evenodd;stroke:black;stroke-width:1px;stroke-linecap:butt;stroke-linejoin:miter;stroke-opacity:1" />
      <path
         id="path3297"
         d="M 50,220 L 60,220 L 60,230 L 50,230 L 50,220 z "
         style="fill:white;fill-opacity:1;fill-rule:evenodd;stroke:black;stroke-width:1px;stroke-linecap:butt;stroke-linejoin:miter;stroke-opacity:1" />
      <path
         id="path3299"
         d="M 50,230 L 60,230 L 60,240 L 50,240 L 50,230 z "
         style="fill:red;fill-opacity:1;fill-rule:evenodd;stroke:black;stroke-width:1px;stroke-linecap:butt;stroke-linejoin:miter;stroke-opacity:1" />
      <path
         id="path3301"
         d="M 40,230 L 50,230 L 50,240 L 40,240 L 40,230 z "
         style="fill:white;fill-opacity:1;fill-rule:evenodd;stroke:black;stroke-width:1px;stroke-linecap:butt;stroke-linejoin:miter;stroke-opacity:1" />
      <path
         id="path3303"
         d="M 60,220 L 70,220 L 70,230 L 60,230 L 60,220 z "
         style="fill:white;fill-opacity:1;fill-rule:evenodd;stroke:black;stroke-width:1px;stroke-linecap:butt;stroke-linejoin:miter;stroke-opacity:1" />
      <path
         id="path3305"
         d="M 70,220 L 80,220 L 80,230 L 70,230 L 70,220 z "
         style="fill:white;fill-opacity:1;fill-rule:evenodd;stroke:black;stroke-width:1px;stroke-linecap:butt;stroke-linejoin:miter;stroke-opacity:1" />
      <path
         id="path3307"
         d="M 70,230 L 80,230 L 80,240 L 70,240 L 70,230 z "
         style="fill:red;fill-opacity:1;fill-rule:evenodd;stroke:black;stroke-width:1px;stroke-linecap:butt;stroke-linejoin:miter;stroke-opacity:1" />
      <path
         id="path3309"
         d="M 60,230 L 70,230 L 70,240 L 60,240 L 60,230 z "
         style="fill:white;fill-opacity:1;fill-rule:evenodd;stroke:black;stroke-width:1px;stroke-linecap:butt;stroke-linejoin:miter;stroke-opacity:1" />
    </g>
    <g
       id="g3521"
       transform="translate(-10,-10)">
      <path
         id="path3335"
         d="M 110,180 L 120,180 L 120,190 L 110,190 L 110,180 z "
         style="fill:white;fill-opacity:1;fill-rule:evenodd;stroke:black;stroke-width:1px;stroke-linecap:butt;stroke-linejoin:miter;stroke-opacity:1" />
      <path
         id="path3337"
         d="M 120,180 L 130,180 L 130,190 L 120,190 L 120,180 z "
         style="fill:lime;fill-opacity:1;fill-rule:evenodd;stroke:black;stroke-width:1px;stroke-linecap:butt;stroke-linejoin:miter;stroke-opacity:1" />
      <path
         id="path3339"
         d="M 120,190 L 130,190 L 130,200 L 120,200 L 120,190 z "
         style="fill:white;fill-opacity:1;fill-rule:evenodd;stroke:black;stroke-width:1px;stroke-linecap:butt;stroke-linejoin:miter;stroke-opacity:1" />
      <path
         id="path3341"
         d="M 110,190 L 120,190 L 120,200 L 110,200 L 110,190 z "
         style="fill:lime;fill-opacity:1;fill-rule:evenodd;stroke:black;stroke-width:1px;stroke-linecap:butt;stroke-linejoin:miter;stroke-opacity:1" />
      <path
         id="path3343"
         d="M 130,180 L 140,180 L 140,190 L 130,190 L 130,180 z "
         style="fill:white;fill-opacity:1;fill-rule:evenodd;stroke:black;stroke-width:1px;stroke-linecap:butt;stroke-linejoin:miter;stroke-opacity:1" />
      <path
         id="path3345"
         d="M 140,180 L 150,180 L 150,190 L 140,190 L 140,180 z "
         style="fill:lime;fill-opacity:1;fill-rule:evenodd;stroke:black;stroke-width:1px;stroke-linecap:butt;stroke-linejoin:miter;stroke-opacity:1" />
      <path
         id="path3347"
         d="M 140,190 L 150,190 L 150,200 L 140,200 L 140,190 z "
         style="fill:white;fill-opacity:1;fill-rule:evenodd;stroke:black;stroke-width:1px;stroke-linecap:butt;stroke-linejoin:miter;stroke-opacity:1" />
      <path
         id="path3349"
         d="M 130,190 L 140,190 L 140,200 L 130,200 L 130,190 z "
         style="fill:lime;fill-opacity:1;fill-rule:evenodd;stroke:black;stroke-width:1px;stroke-linecap:butt;stroke-linejoin:miter;stroke-opacity:1" />
      <path
         id="path3351"
         d="M 150,180 L 160,180 L 160,190 L 150,190 L 150,180 z "
         style="fill:white;fill-opacity:1;fill-rule:evenodd;stroke:black;stroke-width:1px;stroke-linecap:butt;stroke-linejoin:miter;stroke-opacity:1" />
      <path
         id="path3353"
         d="M 160,180 L 170,180 L 170,190 L 160,190 L 160,180 z "
         style="fill:lime;fill-opacity:1;fill-rule:evenodd;stroke:black;stroke-width:1px;stroke-linecap:butt;stroke-linejoin:miter;stroke-opacity:1" />
      <path
         id="path3355"
         d="M 160,190 L 170,190 L 170,200 L 160,200 L 160,190 z "
         style="fill:white;fill-opacity:1;fill-rule:evenodd;stroke:black;stroke-width:1px;stroke-linecap:butt;stroke-linejoin:miter;stroke-opacity:1" />
      <path
         id="path3357"
         d="M 150,190 L 160,190 L 160,200 L 150,200 L 150,190 z "
         style="fill:lime;fill-opacity:1;fill-rule:evenodd;stroke:black;stroke-width:1px;stroke-linecap:butt;stroke-linejoin:miter;stroke-opacity:1" />
      <path
         id="path3359"
         d="M 110,200 L 120,200 L 120,210 L 110,210 L 110,200 z "
         style="fill:white;fill-opacity:1;fill-rule:evenodd;stroke:black;stroke-width:1px;stroke-linecap:butt;stroke-linejoin:miter;stroke-opacity:1" />
      <path
         id="path3361"
         d="M 120,200 L 130,200 L 130,210 L 120,210 L 120,200 z "
         style="fill:lime;fill-opacity:1;fill-rule:evenodd;stroke:black;stroke-width:1px;stroke-linecap:butt;stroke-linejoin:miter;stroke-opacity:1" />
      <path
         id="path3363"
         d="M 120,210 L 130,210 L 130,220 L 120,220 L 120,210 z "
         style="fill:white;fill-opacity:1;fill-rule:evenodd;stroke:black;stroke-width:1px;stroke-linecap:butt;stroke-linejoin:miter;stroke-opacity:1" />
      <path
         id="path3365"
         d="M 110,210 L 120,210 L 120,220 L 110,220 L 110,210 z "
         style="fill:lime;fill-opacity:1;fill-rule:evenodd;stroke:black;stroke-width:1px;stroke-linecap:butt;stroke-linejoin:miter;stroke-opacity:1" />
      <path
         id="path3367"
         d="M 130,200 L 140,200 L 140,210 L 130,210 L 130,200 z "
         style="fill:white;fill-opacity:1;fill-rule:evenodd;stroke:black;stroke-width:1px;stroke-linecap:butt;stroke-linejoin:miter;stroke-opacity:1" />
      <path
         id="path3369"
         d="M 140,200 L 150,200 L 150,210 L 140,210 L 140,200 z "
         style="fill:lime;fill-opacity:1;fill-rule:evenodd;stroke:black;stroke-width:1px;stroke-linecap:butt;stroke-linejoin:miter;stroke-opacity:1" />
      <path
         id="path3371"
         d="M 140,210 L 150,210 L 150,220 L 140,220 L 140,210 z "
         style="fill:white;fill-opacity:1;fill-rule:evenodd;stroke:black;stroke-width:1px;stroke-linecap:butt;stroke-linejoin:miter;stroke-opacity:1" />
      <path
         id="path3373"
         d="M 130,210 L 140,210 L 140,220 L 130,220 L 130,210 z "
         style="fill:lime;fill-opacity:1;fill-rule:evenodd;stroke:black;stroke-width:1px;stroke-linecap:butt;stroke-linejoin:miter;stroke-opacity:1" />
      <path
         id="path3375"
         d="M 150,200 L 160,200 L 160,210 L 150,210 L 150,200 z "
         style="fill:white;fill-opacity:1;fill-rule:evenodd;stroke:black;stroke-width:1px;stroke-linecap:butt;stroke-linejoin:miter;stroke-opacity:1" />
      <path
         id="path3377"
         d="M 160,200 L 170,200 L 170,210 L 160,210 L 160,200 z "
         style="fill:lime;fill-opacity:1;fill-rule:evenodd;stroke:black;stroke-width:1px;stroke-linecap:butt;stroke-linejoin:miter;stroke-opacity:1" />
      <path
         id="path3379"
         d="M 160,210 L 170,210 L 170,220 L 160,220 L 160,210 z "
         style="fill:white;fill-opacity:1;fill-rule:evenodd;stroke:black;stroke-width:1px;stroke-linecap:butt;stroke-linejoin:miter;stroke-opacity:1" />
      <path
         id="path3381"
         d="M 150,210 L 160,210 L 160,220 L 150,220 L 150,210 z "
         style="fill:lime;fill-opacity:1;fill-rule:evenodd;stroke:black;stroke-width:1px;stroke-linecap:butt;stroke-linejoin:miter;stroke-opacity:1" />
      <path
         id="path3383"
         d="M 110,220 L 120,220 L 120,230 L 110,230 L 110,220 z "
         style="fill:white;fill-opacity:1;fill-rule:evenodd;stroke:black;stroke-width:1px;stroke-linecap:butt;stroke-linejoin:miter;stroke-opacity:1" />
      <path
         id="path3385"
         d="M 120,220 L 130,220 L 130,230 L 120,230 L 120,220 z "
         style="fill:lime;fill-opacity:1;fill-rule:evenodd;stroke:black;stroke-width:1px;stroke-linecap:butt;stroke-linejoin:miter;stroke-opacity:1" />
      <path
         id="path3387"
         d="M 120,230 L 130,230 L 130,240 L 120,240 L 120,230 z "
         style="fill:white;fill-opacity:1;fill-rule:evenodd;stroke:black;stroke-width:1px;stroke-linecap:butt;stroke-linejoin:miter;stroke-opacity:1" />
      <path
         id="path3389"
         d="M 110,230 L 120,230 L 120,240 L 110,240 L 110,230 z "
         style="fill:lime;fill-opacity:1;fill-rule:evenodd;stroke:black;stroke-width:1px;stroke-linecap:butt;stroke-linejoin:miter;stroke-opacity:1" />
      <path
         id="path3391"
         d="M 130,220 L 140,220 L 140,230 L 130,230 L 130,220 z "
         style="fill:white;fill-opacity:1;fill-rule:evenodd;stroke:black;stroke-width:1px;stroke-linecap:butt;stroke-linejoin:miter;stroke-opacity:1" />
      <path
         id="path3393"
         d="M 140,220 L 150,220 L 150,230 L 140,230 L 140,220 z "
         style="fill:lime;fill-opacity:1;fill-rule:evenodd;stroke:black;stroke-width:1px;stroke-linecap:butt;stroke-linejoin:miter;stroke-opacity:1" />
      <path
         id="path3395"
         d="M 140,230 L 150,230 L 150,240 L 140,240 L 140,230 z "
         style="fill:white;fill-opacity:1;fill-rule:evenodd;stroke:black;stroke-width:1px;stroke-linecap:butt;stroke-linejoin:miter;stroke-opacity:1" />
      <path
         id="path3397"
         d="M 130,230 L 140,230 L 140,240 L 130,240 L 130,230 z "
         style="fill:lime;fill-opacity:1;fill-rule:evenodd;stroke:black;stroke-width:1px;stroke-linecap:butt;stroke-linejoin:miter;stroke-opacity:1" />
      <path
         id="path3399"
         d="M 150,220 L 160,220 L 160,230 L 150,230 L 150,220 z "
         style="fill:white;fill-opacity:1;fill-rule:evenodd;stroke:black;stroke-width:1px;stroke-linecap:butt;stroke-linejoin:miter;stroke-opacity:1" />
      <path
         id="path3401"
         d="M 160,220 L 170,220 L 170,230 L 160,230 L 160,220 z "
         style="fill:lime;fill-opacity:1;fill-rule:evenodd;stroke:black;stroke-width:1px;stroke-linecap:butt;stroke-linejoin:miter;stroke-opacity:1" />
      <path
         id="path3403"
         d="M 160,230 L 170,230 L 170,240 L 160,240 L 160,230 z "
         style="fill:white;fill-opacity:1;fill-rule:evenodd;stroke:black;stroke-width:1px;stroke-linecap:butt;stroke-linejoin:miter;stroke-opacity:1" />
      <path
         id="path3405"
         d="M 150,230 L 160,230 L 160,240 L 150,240 L 150,230 z "
         style="fill:lime;fill-opacity:1;fill-rule:evenodd;stroke:black;stroke-width:1px;stroke-linecap:butt;stroke-linejoin:miter;stroke-opacity:1" />
    </g>
    <g
       id="g3559"
       transform="translate(-10,-10)">
      <path
         id="path3407"
         d="M 200,180 L 210,180 L 210,190 L 200,190 L 200,180 z "
         style="fill:blue;fill-opacity:1;fill-rule:evenodd;stroke:black;stroke-width:1px;stroke-linecap:butt;stroke-linejoin:miter;stroke-opacity:1" />
      <path
         id="path3409"
         d="M 210,180 L 220,180 L 220,190 L 210,190 L 210,180 z "
         style="fill:white;fill-opacity:1;fill-rule:evenodd;stroke:black;stroke-width:1px;stroke-linecap:butt;stroke-linejoin:miter;stroke-opacity:1" />
      <path
         id="path3411"
         d="M 210,190 L 220,190 L 220,200 L 210,200 L 210,190 z "
         style="fill:white;fill-opacity:1;fill-rule:evenodd;stroke:black;stroke-width:1px;stroke-linecap:butt;stroke-linejoin:miter;stroke-opacity:1" />
      <path
         id="path3413"
         d="M 200,190 L 210,190 L 210,200 L 200,200 L 200,190 z "
         style="fill:white;fill-opacity:1;fill-rule:evenodd;stroke:black;stroke-width:1px;stroke-linecap:butt;stroke-linejoin:miter;stroke-opacity:1" />
      <path
         id="path3415"
         d="M 220,180 L 230,180 L 230,190 L 220,190 L 220,180 z "
         style="fill:blue;fill-opacity:1;fill-rule:evenodd;stroke:black;stroke-width:1px;stroke-linecap:butt;stroke-linejoin:miter;stroke-opacity:1" />
      <path
         id="path3417"
         d="M 230,180 L 240,180 L 240,190 L 230,190 L 230,180 z "
         style="fill:white;fill-opacity:1;fill-rule:evenodd;stroke:black;stroke-width:1px;stroke-linecap:butt;stroke-linejoin:miter;stroke-opacity:1" />
      <path
         id="path3419"
         d="M 230,190 L 240,190 L 240,200 L 230,200 L 230,190 z "
         style="fill:white;fill-opacity:1;fill-rule:evenodd;stroke:black;stroke-width:1px;stroke-linecap:butt;stroke-linejoin:miter;stroke-opacity:1" />
      <path
         id="path3421"
         d="M 220,190 L 230,190 L 230,200 L 220,200 L 220,190 z "
         style="fill:white;fill-opacity:1;fill-rule:evenodd;stroke:black;stroke-width:1px;stroke-linecap:butt;stroke-linejoin:miter;stroke-opacity:1" />
      <path
         id="path3423"
         d="M 240,180 L 250,180 L 250,190 L 240,190 L 240,180 z "
         style="fill:blue;fill-opacity:1;fill-rule:evenodd;stroke:black;stroke-width:1px;stroke-linecap:butt;stroke-linejoin:miter;stroke-opacity:1" />
      <path
         id="path3425"
         d="M 250,180 L 260,180 L 260,190 L 250,190 L 250,180 z "
         style="fill:white;fill-opacity:1;fill-rule:evenodd;stroke:black;stroke-width:1px;stroke-linecap:butt;stroke-linejoin:miter;stroke-opacity:1" />
      <path
         id="path3427"
         d="M 250,190 L 260,190 L 260,200 L 250,200 L 250,190 z "
         style="fill:white;fill-opacity:1;fill-rule:evenodd;stroke:black;stroke-width:1px;stroke-linecap:butt;stroke-linejoin:miter;stroke-opacity:1" />
      <path
         id="path3429"
         d="M 240,190 L 250,190 L 250,200 L 240,200 L 240,190 z "
         style="fill:white;fill-opacity:1;fill-rule:evenodd;stroke:black;stroke-width:1px;stroke-linecap:butt;stroke-linejoin:miter;stroke-opacity:1" />
      <path
         id="path3431"
         d="M 200,200 L 210,200 L 210,210 L 200,210 L 200,200 z "
         style="fill:blue;fill-opacity:1;fill-rule:evenodd;stroke:black;stroke-width:1px;stroke-linecap:butt;stroke-linejoin:miter;stroke-opacity:1" />
      <path
         id="path3433"
         d="M 210,200 L 220,200 L 220,210 L 210,210 L 210,200 z "
         style="fill:white;fill-opacity:1;fill-rule:evenodd;stroke:black;stroke-width:1px;stroke-linecap:butt;stroke-linejoin:miter;stroke-opacity:1" />
      <path
         id="path3435"
         d="M 210,210 L 220,210 L 220,220 L 210,220 L 210,210 z "
         style="fill:white;fill-opacity:1;fill-rule:evenodd;stroke:black;stroke-width:1px;stroke-linecap:butt;stroke-linejoin:miter;stroke-opacity:1" />
      <path
         id="path3437"
         d="M 200,210 L 210,210 L 210,220 L 200,220 L 200,210 z "
         style="fill:white;fill-opacity:1;fill-rule:evenodd;stroke:black;stroke-width:1px;stroke-linecap:butt;stroke-linejoin:miter;stroke-opacity:1" />
      <path
         id="path3439"
         d="M 220,200 L 230,200 L 230,210 L 220,210 L 220,200 z "
         style="fill:blue;fill-opacity:1;fill-rule:evenodd;stroke:black;stroke-width:1px;stroke-linecap:butt;stroke-linejoin:miter;stroke-opacity:1" />
      <path
         id="path3441"
         d="M 230,200 L 240,200 L 240,210 L 230,210 L 230,200 z "
         style="fill:white;fill-opacity:1;fill-rule:evenodd;stroke:black;stroke-width:1px;stroke-linecap:butt;stroke-linejoin:miter;stroke-opacity:1" />
      <path
         id="path3443"
         d="M 230,210 L 240,210 L 240,220 L 230,220 L 230,210 z "
         style="fill:white;fill-opacity:1;fill-rule:evenodd;stroke:black;stroke-width:1px;stroke-linecap:butt;stroke-linejoin:miter;stroke-opacity:1" />
      <path
         id="path3445"
         d="M 220,210 L 230,210 L 230,220 L 220,220 L 220,210 z "
         style="fill:white;fill-opacity:1;fill-rule:evenodd;stroke:black;stroke-width:1px;stroke-linecap:butt;stroke-linejoin:miter;stroke-opacity:1" />
      <path
         id="path3447"
         d="M 240,200 L 250,200 L 250,210 L 240,210 L 240,200 z "
         style="fill:blue;fill-opacity:1;fill-rule:evenodd;stroke:black;stroke-width:1px;stroke-linecap:butt;stroke-linejoin:miter;stroke-opacity:1" />
      <path
         id="path3449"
         d="M 250,200 L 260,200 L 260,210 L 250,210 L 250,200 z "
         style="fill:white;fill-opacity:1;fill-rule:evenodd;stroke:black;stroke-width:1px;stroke-linecap:butt;stroke-linejoin:miter;stroke-opacity:1" />
      <path
         id="path3451"
         d="M 250,210 L 260,210 L 260,220 L 250,220 L 250,210 z "
         style="fill:white;fill-opacity:1;fill-rule:evenodd;stroke:black;stroke-width:1px;stroke-linecap:butt;stroke-linejoin:miter;stroke-opacity:1" />
      <path
         id="path3453"
         d="M 240,210 L 250,210 L 250,220 L 240,220 L 240,210 z "
         style="fill:white;fill-opacity:1;fill-rule:evenodd;stroke:black;stroke-width:1px;stroke-linecap:butt;stroke-linejoin:miter;stroke-opacity:1" />
      <path
         id="path3455"
         d="M 200,220 L 210,220 L 210,230 L 200,230 L 200,220 z "
         style="fill:blue;fill-opacity:1;fill-rule:evenodd;stroke:black;stroke-width:1px;stroke-linecap:butt;stroke-linejoin:miter;stroke-opacity:1" />
      <path
         id="path3457"
         d="M 210,220 L 220,220 L 220,230 L 210,230 L 210,220 z "
         style="fill:white;fill-opacity:1;fill-rule:evenodd;stroke:black;stroke-width:1px;stroke-linecap:butt;stroke-linejoin:miter;stroke-opacity:1" />
      <path
         id="path3459"
         d="M 210,230 L 220,230 L 220,240 L 210,240 L 210,230 z "
         style="fill:white;fill-opacity:1;fill-rule:evenodd;stroke:black;stroke-width:1px;stroke-linecap:butt;stroke-linejoin:miter;stroke-opacity:1" />
      <path
         id="path3461"
         d="M 200,230 L 210,230 L 210,240 L 200,240 L 200,230 z "
         style="fill:white;fill-opacity:1;fill-rule:evenodd;stroke:black;stroke-width:1px;stroke-linecap:butt;stroke-linejoin:miter;stroke-opacity:1" />
      <path
         id="path3463"
         d="M 220,220 L 230,220 L 230,230 L 220,230 L 220,220 z "
         style="fill:blue;fill-opacity:1;fill-rule:evenodd;stroke:black;stroke-width:1px;stroke-linecap:butt;stroke-linejoin:miter;stroke-opacity:1" />
      <path
         id="path3465"
         d="M 230,220 L 240,220 L 240,230 L 230,230 L 230,220 z "
         style="fill:white;fill-opacity:1;fill-rule:evenodd;stroke:black;stroke-width:1px;stroke-linecap:butt;stroke-linejoin:miter;stroke-opacity:1" />
      <path
         id="path3467"
         d="M 230,230 L 240,230 L 240,240 L 230,240 L 230,230 z "
         style="fill:white;fill-opacity:1;fill-rule:evenodd;stroke:black;stroke-width:1px;stroke-linecap:butt;stroke-linejoin:miter;stroke-opacity:1" />
      <path
         id="path3469"
         d="M 220,230 L 230,230 L 230,240 L 220,240 L 220,230 z "
         style="fill:white;fill-opacity:1;fill-rule:evenodd;stroke:black;stroke-width:1px;stroke-linecap:butt;stroke-linejoin:miter;stroke-opacity:1" />
      <path
         id="path3471"
         d="M 240,220 L 250,220 L 250,230 L 240,230 L 240,220 z "
         style="fill:blue;fill-opacity:1;fill-rule:evenodd;stroke:black;stroke-width:1px;stroke-linecap:butt;stroke-linejoin:miter;stroke-opacity:1" />
      <path
         id="path3473"
         d="M 250,220 L 260,220 L 260,230 L 250,230 L 250,220 z "
         style="fill:white;fill-opacity:1;fill-rule:evenodd;stroke:black;stroke-width:1px;stroke-linecap:butt;stroke-linejoin:miter;stroke-opacity:1" />
      <path
         id="path3475"
         d="M 250,230 L 260,230 L 260,240 L 250,240 L 250,230 z "
         style="fill:white;fill-opacity:1;fill-rule:evenodd;stroke:black;stroke-width:1px;stroke-linecap:butt;stroke-linejoin:miter;stroke-opacity:1" />
      <path
         id="path3477"
         d="M 240,230 L 250,230 L 250,240 L 240,240 L 240,230 z "
         style="fill:white;fill-opacity:1;fill-rule:evenodd;stroke:black;stroke-width:1px;stroke-linecap:butt;stroke-linejoin:miter;stroke-opacity:1" />
    </g>
    <text
       xml:space="preserve"
       style="font-size:12px;font-style:normal;font-variant:normal;font-weight:normal;font-stretch:normal;text-align:start;line-height:125%;writing-mode:lr-tb;text-anchor:start;fill:black;fill-opacity:1;stroke:none;stroke-width:1px;stroke-linecap:butt;stroke-linejoin:miter;stroke-opacity:1;font-family:Bitstream Vera Sans"
       x="258.82227"
       y="203.31055"
       id="text3479"
       sodipodi:linespacing="125%"><tspan
         sodipodi:role="line"
         id="tspan3481"
         x="258.82227"
         y="203.31055">Resulting pattern</tspan></text>
  </g>
</svg>
