<?xml version="1.0" encoding="UTF-8" standalone="no"?>
<!-- Created with Inkscape (http://www.inkscape.org/) -->
<svg
   xmlns:svg="http://www.w3.org/2000/svg"
   xmlns="http://www.w3.org/2000/svg"
   version="1.0"
   width="370"
   height="410"
   id="svg2468">
  <defs
     id="defs2470" />
  <g
     transform="translate(-23.512384,-29.060714)"
     id="layer1">
    <rect
       width="60.472557"
       height="60.472557"
       x="79.281937"
       y="53.896008"
       id="rect2614"
       style="fill:#b6db9e;fill-rule:evenodd" />
    <rect
       width="60.472557"
       height="60.472557"
       x="140.04893"
       y="53.896008"
       id="rect2616"
       style="fill:#aca8cd;fill-rule:evenodd" />
    <rect
       width="60.472557"
       height="60.472557"
       x="201.25105"
       y="53.896008"
       id="rect2618"
       style="fill:#b6db9e;fill-rule:evenodd" />
    <rect
       width="60.472557"
       height="60.472557"
       x="262.23563"
       y="53.896008"
       id="rect2620"
       style="fill:#aca8cd;fill-rule:evenodd" />
    <rect
       width="60.472557"
       height="60.472557"
       x="79.281937"
       y="114.80617"
       id="rect2622"
       style="fill:#eeaeb4;fill-rule:evenodd" />
    <rect
       width="60.472557"
       height="60.472557"
       x="140.04893"
       y="114.80617"
       id="rect2624"
       style="fill:#b6db9e;fill-rule:evenodd" />
    <rect
       width="60.472557"
       height="60.472557"
       x="201.25105"
       y="114.80617"
       id="rect2626"
       style="fill:#eeaeb4;fill-rule:evenodd" />
    <rect
       width="60.472557"
       height="60.472557"
       x="262.23563"
       y="114.80617"
       id="rect2628"
       style="fill:#b6db9e;fill-rule:evenodd" />
    <rect
       width="60.472557"
       height="60.472557"
       x="79.281937"
       y="175.63594"
       id="rect2630"
       style="fill:#b6db9e;fill-rule:evenodd" />
    <rect
       width="60.472557"
       height="60.472557"
       x="140.04893"
       y="175.63594"
       id="rect2632"
       style="fill:#aca8cd;fill-rule:evenodd" />
    <rect
       width="60.472557"
       height="60.472557"
       x="201.25105"
       y="175.63594"
       id="rect2634"
       style="fill:#b6db9e;fill-rule:evenodd" />
    <rect
       width="60.472557"
       height="60.472557"
       x="262.23563"
       y="175.63594"
       id="rect2636"
       style="fill:#aca8cd;fill-rule:evenodd" />
    <rect
       width="60.472557"
       height="60.472557"
       x="79.281937"
       y="236.52975"
       id="rect2638"
       style="fill:#eeaeb4;fill-rule:evenodd" />
    <rect
       width="60.472557"
       height="60.472557"
       x="140.04893"
       y="236.52975"
       id="rect2640"
       style="fill:#b6db9e;fill-rule:evenodd" />
    <rect
       width="60.472557"
       height="60.472557"
       x="201.25105"
       y="236.52975"
       id="rect2642"
       style="fill:#eeaeb4;fill-rule:evenodd" />
    <rect
       width="60.472557"
       height="60.472557"
       x="262.23563"
       y="236.52975"
       id="rect2644"
       style="fill:#b6db9e;fill-rule:evenodd" />
    <polyline
       transform="matrix(3.543307,0,0,3.543307,-5.3701609,-1.3717576)"
       style="fill:none;fill-rule:evenodd;stroke:#1f1a17;stroke-width:0.40000001"
       id="polyline2646"
       points="40.9574,10.3701 40.9574,93.926 37.9195,93.926 37.9195,100.848 40.958,100.848 40.958,106.593 "
       class="fil3 str0" />
    <polyline
       transform="matrix(3.543307,0,0,3.543307,-5.3701609,-1.3717576)"
       style="fill:none;fill-rule:evenodd;stroke:#1f1a17;stroke-width:0.40000001"
       id="polyline2648"
       points="58.1072,10.3701 58.1072,93.926 55.0693,93.926 55.0693,100.848 58.1078,100.848 58.1078,106.593 "
       class="fil3 str0" />
    <polyline
       transform="matrix(3.543307,0,0,3.543307,-5.3701609,-1.3717576)"
       style="fill:none;fill-rule:evenodd;stroke:#1f1a17;stroke-width:0.40000001"
       id="polyline2650"
       points="75.3798,10.3701 75.3798,93.926 72.3419,93.926 72.3419,100.848 75.3804,100.848 75.3804,106.593 "
       class="fil3 str0" />
    <polyline
       transform="matrix(3.543307,0,0,3.543307,-5.3701609,-1.3717576)"
       style="fill:none;fill-rule:evenodd;stroke:#1f1a17;stroke-width:0.40000001"
       id="polyline2652"
       points="92.591,10.3701 92.591,93.926 89.5531,93.926 89.5531,100.848 92.5916,100.848 92.5916,106.593 "
       class="fil3 str0" />
    <line
       style="fill:none;fill-rule:evenodd;stroke:#1f1a17;stroke-width:1.41732287"
       id="line2654"
       y2="236.52975"
       x2="333.17621"
       y1="236.52975"
       x1="63.896179"
       class="fil3 str0" />
    <line
       style="fill:none;fill-rule:evenodd;stroke:#1f1a17;stroke-width:1.41732287"
       id="line2656"
       y2="175.63557"
       x2="333.17621"
       y1="175.63557"
       x1="63.896179"
       class="fil3 str0" />
    <line
       style="fill:none;fill-rule:evenodd;stroke:#1f1a17;stroke-width:1.41732287"
       id="line2658"
       y2="114.80617"
       x2="333.76968"
       y1="114.80617"
       x1="64.489685"
       class="fil3 str0" />
    <path
       d="M 123.0687,331.04218 L 123.0687,356.21738 M 123.0687,343.62978 L 114.48539,343.62978 L 114.48539,395.07399 M 183.26984,330.92986 L 183.26984,356.10505 M 183.26984,343.51745 L 174.68653,343.51745 L 174.68653,394.72072 M 244.22641,330.38206 L 244.22641,355.55726 M 244.22641,342.96966 L 235.64311,342.96966 L 235.64311,394.65482 M 305.14578,330.68891 L 305.14578,355.86411 M 305.14578,343.27651 L 296.56247,343.27651 L 296.56247,394.72072"
       id="path2660"
       style="fill:none;fill-rule:evenodd;stroke:#1f1a17;stroke-width:1.41732287" />
    <g
       transform="matrix(3.543307,0,0,3.543307,-5.3701609,-1.3717576)"
       id="g2662"
       style="fill-rule:evenodd">
   <path
   d="M 97.5018,106.896 L 19.6857,106.896 L 19.6857,106.496 L 97.5018,106.496 L 97.5018,106.896 z M 99.8226,106.696 L 97.3738,107.9208 L 97.3738,105.472 L 99.8226,106.696 z"
   id="path2664"
   style="fill:#1f1a17;fill-rule:nonzero" />

  </g>
    <polygon
       points="106.037,106.696 99.7341,110.335 99.7341,103.057 106.037,106.696 "
       transform="matrix(3.543307,0,0,3.543307,-5.3701609,-1.3717576)"
       id="polygon2666"
       style="fill:#b5dbdb;fill-rule:evenodd;stroke:#1f1a17;stroke-width:0.40000001" />
    <g
       transform="matrix(3.543307,0,0,3.543307,-5.3701609,-1.3717576)"
       id="g2668"
       style="fill-rule:evenodd">
   <path
   d="M 109.472,106.941 L 105.9346,106.941 L 105.9346,106.5426 L 109.472,106.5426 L 109.472,106.941 z M 111.7835,106.7418 L 109.3445,107.9617 L 109.3445,105.5227 L 111.7835,106.7418 z"
   id="path2670"
   style="fill:#1f1a17;fill-rule:nonzero" />

  </g>
    <polygon
       points="24.4424,111.789 97.6104,111.789 97.6104,122.22 24.4424,122.22 24.4424,111.789 "
       transform="matrix(3.543307,0,0,3.543307,-5.3701609,-1.3717576)"
       id="polygon2672"
       style="fill:#f5f1af;fill-rule:evenodd;stroke:#1f1a17;stroke-width:0.40000001" />
    <rect
       width="33.2061"
       height="288.42307"
       x="31.491575"
       y="42.752331"
       id="rect2674"
       style="fill:#f5f1af;fill-rule:evenodd;stroke:#1f1a17;stroke-width:1.41732287" />
    <line
       style="fill:none;fill-rule:evenodd;stroke:#1f1a17;stroke-width:1.41732287"
       id="line2676"
       y2="297.00232"
       x2="333.17621"
       y1="297.00232"
       x1="63.896179"
       class="fil3 str0" />
    <path
       d="M 136.44787,415.88454 L 138.8187,416.48478 C 138.32299,418.42651 137.42724,419.90974 136.1396,420.93482 C 134.84807,421.95564 133.27307,422.46375 131.4061,422.46375 C 129.47712,422.46375 127.91027,422.07222 126.70201,421.28879 C 125.49374,420.50147 124.57283,419.36371 123.94354,417.87623 C 123.3146,416.38485 122.99783,414.7847 122.99783,413.07647 C 122.99783,411.21375 123.35216,409.58879 124.06437,408.20123 C 124.77693,406.81367 125.7896,405.75954 127.1063,405.03883 C 128.41874,404.31812 129.86441,403.95954 131.44366,403.95954 C 133.23551,403.95954 134.73964,404.41379 135.96031,405.32619 C 137.18134,406.23895 138.03138,407.51808 138.51043,409.1721 L 136.18142,409.72202 C 135.76472,408.41808 135.16449,407.47202 134.37291,406.87639 C 133.58559,406.28041 132.59382,405.98454 131.3937,405.98454 C 130.0189,405.98454 128.87299,406.31371 127.94783,406.97206 C 127.02303,407.63466 126.37283,408.518 126.0022,409.6306 C 125.62697,410.73895 125.43953,411.8845 125.43953,413.06371 C 125.43953,414.58875 125.66027,415.91395 126.10212,417.05135 C 126.54787,418.18485 127.23527,419.03454 128.17283,419.59722 C 129.11039,420.15989 130.12307,420.43875 131.21441,420.43875 C 132.5396,420.43875 133.66035,420.05572 134.58126,419.2932 C 135.50216,418.52643 136.12295,417.38903 136.44787,415.88454 L 136.44787,415.88454 z"
       id="path2678"
       style="fill:#1f1a17;fill-rule:nonzero" />
    <path
       d="M 140.63535,415.67548 C 140.63535,413.2756 141.3022,411.49651 142.63945,410.34245 C 143.75205,409.38399 145.11055,408.90068 146.7146,408.90068 C 148.49795,408.90068 149.95638,409.48391 151.08563,410.65462 C 152.21878,411.82143 152.78145,413.43399 152.78145,415.4923 C 152.78145,417.16332 152.5313,418.47576 152.03134,419.42997 C 151.53138,420.38808 150.80216,421.1297 149.84795,421.65907 C 148.88949,422.18808 147.84811,422.45064 146.7146,422.45064 C 144.9022,422.45064 143.43527,421.87167 142.31453,420.70485 C 141.19378,419.5423 140.63535,417.86737 140.63535,415.67548 L 140.63535,415.67548 z M 142.89386,415.67548 C 142.89386,417.338 143.25634,418.57993 143.9813,419.40482 C 144.70626,420.23395 145.61866,420.64639 146.7146,420.64639 C 147.8063,420.64639 148.71445,420.2297 149.43976,419.40056 C 150.16047,418.57143 150.52295,417.3047 150.52295,415.60497 C 150.52295,414.00056 150.16047,412.78379 149.43126,411.95891 C 148.70204,411.13403 147.79779,410.72159 146.7146,410.72159 C 145.61866,410.72159 144.70626,411.13403 143.9813,411.95466 C 143.25634,412.77564 142.89386,414.01722 142.89386,415.67548 L 142.89386,415.67548 z"
       id="path2680"
       style="fill:#1f1a17;fill-rule:nonzero" />
    <polygon
       points="45.3477,119.53 45.3477,114.479 45.9674,114.479 45.9674,119.53 45.3477,119.53 "
       transform="matrix(3.543307,0,0,3.543307,-5.3701609,-1.3717576)"
       id="polygon2682"
       style="fill:#1f1a17;fill-rule:nonzero" />
    <path
       d="M 169.41055,422.15974 L 169.41055,420.25556 C 168.39787,421.72214 167.02732,422.45135 165.29393,422.45135 C 164.53141,422.45135 163.8146,422.30572 163.15201,422.01375 C 162.48976,421.72214 161.99795,421.35151 161.67728,420.90966 C 161.35201,420.46391 161.12701,419.92214 160.99803,419.28044 C 160.91051,418.8471 160.8648,418.16395 160.8648,417.22639 L 160.8648,409.19726 L 163.06059,409.19726 L 163.06059,416.38485 C 163.06059,417.53466 163.1063,418.30568 163.19382,418.70572 C 163.33555,419.2847 163.62716,419.7347 164.07291,420.06812 C 164.52291,420.3973 165.07708,420.55958 165.73543,420.55958 C 166.39378,420.55958 167.01067,420.39304 167.58964,420.05572 C 168.16897,419.71804 168.57716,419.25564 168.81456,418.67631 C 169.05622,418.09308 169.17704,417.2473 169.17704,416.1432 L 169.17704,409.19726 L 171.37319,409.19726 L 171.37319,422.15974 L 169.41055,422.15974 L 169.41055,422.15974 z"
       id="path2684"
       style="fill:#1f1a17;fill-rule:nonzero" />
    <path
       d="M 174.81905,422.15974 L 174.81905,409.19726 L 176.78134,409.19726 L 176.78134,411.01391 C 177.18988,410.38037 177.7313,409.868 178.4063,409.48462 C 179.0813,409.09698 179.85232,408.90139 180.71476,408.90139 C 181.67323,408.90139 182.46055,409.10123 183.07319,409.50127 C 183.68972,409.90131 184.12307,410.45548 184.37323,411.1723 C 185.4022,409.65966 186.73555,408.90139 188.37752,408.90139 C 189.6648,408.90139 190.65232,409.25962 191.34397,409.97218 C 192.03563,410.68474 192.38145,411.78068 192.38145,413.25966 L 192.38145,422.15974 L 190.19807,422.15974 L 190.19807,413.99312 C 190.19807,413.11367 190.1272,412.48048 189.98582,412.09285 C 189.83984,411.70982 189.58153,411.3973 189.21055,411.15954 C 188.83567,410.92639 188.39417,410.80556 187.88996,410.80556 C 186.9772,410.80556 186.22319,411.10958 185.61905,411.71796 C 185.01917,412.3221 184.7148,413.29296 184.7148,414.62631 L 184.7148,422.15974 L 182.51901,422.15974 L 182.51901,413.73871 C 182.51901,412.7597 182.33972,412.02623 181.98149,411.53867 C 181.62326,411.05147 181.03968,410.80556 180.2233,410.80556 C 179.60641,410.80556 179.03559,410.96785 178.51047,411.29702 C 177.98571,411.6223 177.60232,412.0971 177.36882,412.72214 C 177.13141,413.35143 177.01484,414.25568 177.01484,415.43454 L 177.01484,422.15974 L 174.81905,422.15974 L 174.81905,422.15974 z"
       id="path2686"
       style="fill:#1f1a17;fill-rule:nonzero" />
    <path
       d="M 195.64413,422.15974 L 195.64413,409.19726 L 197.61917,409.19726 L 197.61917,411.03871 C 198.57338,409.61395 199.94819,408.90139 201.74393,408.90139 C 202.52736,408.90139 203.24417,409.04312 203.89826,409.32198 C 204.55661,409.60545 205.04417,409.97218 205.36909,410.43033 C 205.69826,410.88458 205.92326,411.42635 206.05649,412.05139 C 206.13586,412.45958 206.17732,413.17214 206.17732,414.18871 L 206.17732,422.15974 L 203.97728,422.15974 L 203.97728,414.27233 C 203.97728,413.38048 203.89401,412.70974 203.72322,412.26399 C 203.55244,411.82214 203.24807,411.46816 202.81508,411.2056 C 202.37748,410.93879 201.86901,410.80556 201.28153,410.80556 C 200.34397,410.80556 199.54,411.10533 198.85649,411.69706 C 198.17724,412.29304 197.83992,413.41804 197.83992,415.08056 L 197.83992,422.15974 L 195.64413,422.15974 z"
       id="path2688"
       style="fill:#1f1a17;fill-rule:nonzero" />
    <path
       d="M 216.77358,422.15974 L 216.77358,404.26391 L 222.9361,404.26391 C 224.32755,404.26391 225.39019,404.35143 226.12366,404.52222 C 227.14838,404.75537 228.02358,405.18446 228.74854,405.80135 C 229.69035,406.60143 230.39866,407.618 230.86531,408.85958 C 231.33586,410.10115 231.56937,411.51812 231.56937,413.11367 C 231.56937,414.47218 231.41098,415.67619 231.09031,416.72643 C 230.77354,417.77631 230.36925,418.64726 229.86929,419.33466 C 229.37358,420.02206 228.83181,420.56383 228.24007,420.95572 C 227.65259,421.35151 226.94004,421.65127 226.10665,421.85572 C 225.26937,422.05982 224.3109,422.15974 223.23196,422.15974 L 216.77358,422.15974 L 216.77358,422.15974 z M 219.14015,420.04722 L 222.9609,420.04722 C 224.14011,420.04722 225.06917,419.93879 225.74027,419.71804 C 226.41102,419.4973 226.94429,419.18903 227.34433,418.78899 C 227.907,418.23056 228.34425,417.4723 228.65677,416.52623 C 228.96929,415.57627 229.12767,414.43037 229.12767,413.07647 C 229.12767,411.2056 228.81941,409.76808 228.20677,408.76391 C 227.59023,407.75548 226.84437,407.08474 225.96527,406.74281 C 225.33173,406.49726 224.30665,406.37643 222.90279,406.37643 L 219.14015,406.37643 L 219.14015,420.04722 L 219.14015,420.04722 z"
       id="path2690"
       style="fill:#1f1a17;fill-rule:nonzero" />
    <path
       d="M 243.41925,417.98218 L 245.69015,418.26139 C 245.33192,419.59048 244.66933,420.61982 243.70271,421.35293 C 242.73185,422.08214 241.49452,422.44887 239.99003,422.44887 C 238.09437,422.44887 236.59023,421.86564 235.48189,420.69883 C 234.36929,419.53237 233.81511,417.89466 233.81511,415.78639 C 233.81511,413.603 234.37779,411.91143 235.49854,410.70706 C 236.62354,409.50304 238.07771,408.89891 239.86921,408.89891 C 241.60259,408.89891 243.01921,409.49064 244.11515,410.66985 C 245.21535,411.84871 245.76527,413.51123 245.76527,415.64891 C 245.76527,415.78214 245.76102,415.97808 245.75287,416.23639 L 236.08602,416.23639 C 236.16503,417.66151 236.56933,418.7532 237.29429,419.50722 C 238.01925,420.26548 238.91925,420.64462 240.00279,420.64462 C 240.80677,420.64462 241.49452,420.43237 242.06535,420.00718 C 242.63618,419.58623 243.08618,418.91123 243.41925,417.98218 L 243.41925,417.98218 z M 236.20685,414.42789 L 243.4444,414.42789 C 243.34838,413.34045 243.06952,412.51982 242.61527,411.97804 C 241.91511,411.13226 241.00696,410.70706 239.89437,410.70706 C 238.88594,410.70706 238.0359,411.04474 237.3485,411.71974 C 236.6611,412.39474 236.28196,413.29899 236.20685,414.42789 z"
       id="path2692"
       style="fill:#1f1a17;fill-rule:nonzero" />
    <path
       d="M 256.9111,417.40816 L 259.06933,417.69163 C 258.83618,419.17911 258.23204,420.34592 257.25692,421.18745 C 256.28606,422.02899 255.09019,422.44993 253.67358,422.44993 C 251.90263,422.44993 250.47362,421.87096 249.39858,420.71265 C 248.31929,419.55399 247.77787,417.89147 247.77787,415.72509 C 247.77787,414.32478 248.01102,413.09985 248.47342,412.04997 C 248.94043,411.00009 249.64448,410.21241 250.59444,409.6873 C 251.54015,409.16253 252.57374,408.89997 253.68598,408.89997 C 255.09444,408.89997 256.2485,409.2582 257.14035,409.97076 C 258.0361,410.68332 258.61118,411.69174 258.86523,413.00419 L 256.72791,413.33336 C 256.52381,412.46241 256.16523,411.80832 255.64862,411.36647 C 255.132,410.92922 254.50696,410.70812 253.7735,410.70812 C 252.66515,410.70812 251.76515,411.10391 251.0735,411.90009 C 250.38185,412.69167 250.03602,413.94564 250.03602,415.66237 C 250.03602,417.40426 250.36944,418.67064 251.04019,419.46257 C 251.70704,420.24989 252.57763,420.64568 253.65267,420.64568 C 254.51547,420.64568 255.23192,420.37922 255.81125,419.84985 C 256.39023,419.32084 256.75696,418.50836 256.9111,417.40816 L 256.9111,417.40816 z"
       id="path2694"
       style="fill:#1f1a17;fill-rule:nonzero" />
    <path
       d="M 260.13196,415.67548 C 260.13196,413.2756 260.79881,411.49651 262.13606,410.34245 C 263.24866,409.38399 264.60716,408.90068 266.21122,408.90068 C 267.99456,408.90068 269.45299,409.48391 270.58224,410.65462 C 271.71539,411.82143 272.27807,413.43399 272.27807,415.4923 C 272.27807,417.16332 272.02791,418.47576 271.52795,419.42997 C 271.02799,420.38808 270.29877,421.1297 269.34456,421.65907 C 268.3861,422.18808 267.34472,422.45064 266.21122,422.45064 C 264.39881,422.45064 262.93188,421.87167 261.81114,420.70485 C 260.69039,419.5423 260.13196,417.86737 260.13196,415.67548 L 260.13196,415.67548 z M 262.39047,415.67548 C 262.39047,417.338 262.75295,418.57993 263.47791,419.40482 C 264.20287,420.23395 265.11527,420.64639 266.21122,420.64639 C 267.30291,420.64639 268.21106,420.2297 268.93637,419.40056 C 269.65708,418.57143 270.01956,417.3047 270.01956,415.60497 C 270.01956,414.00056 269.65708,412.78379 268.92787,411.95891 C 268.19866,411.13403 267.2944,410.72159 266.21122,410.72159 C 265.11527,410.72159 264.20287,411.13403 263.47791,411.95466 C 262.75295,412.77564 262.39047,414.01722 262.39047,415.67548 L 262.39047,415.67548 z"
       id="path2696"
       style="fill:#1f1a17;fill-rule:nonzero" />
    <path
       d="M 283.26551,422.15974 L 283.26551,420.52237 C 282.44452,421.80966 281.23625,422.45135 279.64035,422.45135 C 278.60712,422.45135 277.65716,422.16824 276.79047,421.59706 C 275.92377,421.03048 275.25303,420.23466 274.77397,419.20958 C 274.29881,418.18875 274.06141,417.01804 274.06141,415.68895 C 274.06141,414.39706 274.27791,413.2221 274.707,412.16796 C 275.14035,411.11383 275.78629,410.3056 276.64873,409.74718 C 277.51118,409.1845 278.47814,408.90139 279.54468,408.90139 C 280.32385,408.90139 281.01976,409.06793 281.62814,409.3971 C 282.24043,409.72627 282.73649,410.15537 283.11952,410.68474 L 283.11952,404.26391 L 285.30291,404.26391 L 285.30291,422.15974 L 283.26551,422.15974 L 283.26551,422.15974 z M 276.31956,415.68895 C 276.31956,417.35147 276.66964,418.59304 277.3698,419.41403 C 278.0696,420.23466 278.89448,420.6471 279.8487,420.6471 C 280.80716,420.6471 281.62389,420.25131 282.29464,419.46789 C 282.96539,418.68482 283.30307,417.4847 283.30307,415.87214 C 283.30307,414.0973 282.96149,412.79726 282.27799,411.96812 C 281.59484,411.13474 280.75295,410.7223 279.74877,410.7223 C 278.77366,410.7223 277.95728,411.12233 277.30283,411.91816 C 276.64873,412.71399 276.31956,413.97222 276.31956,415.68895 z"
       id="path2698"
       style="fill:#1f1a17;fill-rule:nonzero" />
    <path
       d="M 297.6322,417.98218 L 299.9031,418.26139 C 299.54488,419.59048 298.88228,420.61982 297.91566,421.35293 C 296.9448,422.08214 295.70747,422.44887 294.20299,422.44887 C 292.30732,422.44887 290.80318,421.86564 289.69484,420.69883 C 288.58224,419.53237 288.02807,417.89466 288.02807,415.78639 C 288.02807,413.603 288.59074,411.91143 289.71149,410.70706 C 290.83649,409.50304 292.29066,408.89891 294.08216,408.89891 C 295.81555,408.89891 297.23216,409.49064 298.3281,410.66985 C 299.4283,411.84871 299.97822,413.51123 299.97822,415.64891 C 299.97822,415.78214 299.97397,415.97808 299.96582,416.23639 L 290.29897,416.23639 C 290.37799,417.66151 290.78228,418.7532 291.50724,419.50722 C 292.2322,420.26548 293.1322,420.64462 294.21574,420.64462 C 295.01972,420.64462 295.70747,420.43237 296.2783,420.00718 C 296.84913,419.58623 297.29913,418.91123 297.6322,417.98218 L 297.6322,417.98218 z M 290.4198,414.42789 L 297.65736,414.42789 C 297.56133,413.34045 297.28247,412.51982 296.82822,411.97804 C 296.12806,411.13226 295.21992,410.70706 294.10732,410.70706 C 293.09889,410.70706 292.24885,411.04474 291.56145,411.71974 C 290.87405,412.39474 290.49492,413.29899 290.4198,414.42789 z"
       id="path2700"
       style="fill:#1f1a17;fill-rule:nonzero" />
    <path
       d="M 56.897088,256.04348 L 39.001258,256.04348 L 39.001258,248.11002 C 39.001258,246.51411 39.163538,245.30159 39.484568,244.47246 C 39.805238,243.64332 40.371808,242.98072 41.184648,242.48076 C 42.001018,241.98506 42.901018,241.73915 43.884648,241.73915 C 45.155278,241.73915 46.222168,242.14734 47.092758,242.97258 C 47.963698,243.79321 48.517868,245.06419 48.755278,246.78092 C 49.055388,246.15163 49.351258,245.67647 49.647128,245.35155 C 50.280318,244.6599 51.076138,244.0058 52.026098,243.38502 L 56.897088,240.27258 L 56.897088,243.25143 L 53.172008,245.61836 C 52.101218,246.31002 51.276338,246.88084 50.709408,247.33084 C 50.138578,247.77659 49.738538,248.17663 49.513538,248.53096 C 49.284648,248.88494 49.126258,249.24317 49.034488,249.6099 C 48.980278,249.88096 48.951218,250.31821 48.951218,250.93084 L 48.951218,253.67655 L 56.897088,253.67655 L 56.897088,256.04348 L 56.897088,256.04348 z M 46.901058,253.67655 L 46.901058,248.58482 C 46.901058,247.50588 46.788738,246.65584 46.563738,246.04746 C 46.338738,245.43482 45.980508,244.97242 45.488698,244.65565 C 44.996888,244.33923 44.463618,244.18084 43.884648,244.18084 C 43.038498,244.18084 42.342948,244.48486 41.796928,245.10175 C 41.251258,245.71403 40.980198,246.6849 40.980198,248.01399 L 40.980198,253.67655 L 46.901058,253.67655 L 46.901058,253.67655 z"
       id="path2702"
       style="fill:#1f1a17;fill-rule:nonzero" />
    <path
       d="M 50.413538,239.12667 C 48.013658,239.12667 46.234568,238.45982 45.080508,237.12258 C 44.122048,236.00998 43.638738,234.65147 43.638738,233.04742 C 43.638738,231.26407 44.221968,229.80565 45.392678,228.67639 C 46.559488,227.54324 48.172048,226.98057 50.230348,226.98057 C 51.901378,226.98057 53.213818,227.23073 54.168028,227.73069 C 55.126138,228.23065 55.867758,228.95986 56.397128,229.91407 C 56.926138,230.87254 57.188698,231.91391 57.188698,233.04742 C 57.188698,234.85982 56.609718,236.32675 55.442908,237.4475 C 54.280348,238.56824 52.605428,239.12667 50.413538,239.12667 L 50.413538,239.12667 z M 50.413538,236.86817 C 52.076058,236.86817 53.317988,236.50569 54.142868,235.78073 C 54.972008,235.05576 55.384448,234.14336 55.384448,233.04742 C 55.384448,231.95573 54.967758,231.04758 54.138618,230.32226 C 53.309488,229.60155 52.042758,229.23907 50.343028,229.23907 C 48.738618,229.23907 47.521848,229.60155 46.696968,230.33076 C 45.872088,231.05998 45.459648,231.96423 45.459648,233.04742 C 45.459648,234.14336 45.872088,235.05576 46.692718,235.78073 C 47.513698,236.50569 48.755278,236.86817 50.413538,236.86817 L 50.413538,236.86817 z"
       id="path2704"
       style="fill:#1f1a17;fill-rule:nonzero" />
    <path
       d="M 56.897088,222.00966 L 43.934608,225.97639 L 43.934608,223.70549 L 51.417718,221.64328 L 54.201338,220.87651 C 54.059608,220.84321 53.167758,220.61821 51.526138,220.20576 L 43.934608,218.14321 L 43.934608,215.8847 L 51.451378,213.94297 L 53.930278,213.29313 L 51.430468,212.55151 L 43.934608,210.33057 L 43.934608,208.19289 L 56.897088,212.24714 L 56.897088,214.52655 L 49.134408,216.58911 L 46.921968,217.09297 L 56.897088,219.71395 L 56.897088,222.00966 L 56.897088,222.00966 z"
       id="path2706"
       style="fill:#1f1a17;fill-rule:nonzero" />
    <path
       d="M 56.897088,199.12203 L 39.001258,199.12203 L 39.001258,192.95951 C 39.001258,191.56805 39.088778,190.50541 39.259568,189.77195 C 39.492718,188.74722 39.921808,187.87203 40.538698,187.14706 C 41.338778,186.20525 42.355348,185.49695 43.596928,185.03029 C 44.838498,184.55974 46.255468,184.32624 47.851018,184.32624 C 49.209528,184.32624 50.413538,184.48462 51.463778,184.80529 C 52.513658,185.12206 53.384608,185.52636 54.072008,186.02632 C 54.759408,186.52203 55.301178,187.0638 55.693068,187.65553 C 56.088858,188.24301 56.388618,188.95557 56.593068,189.78895 C 56.797168,190.62624 56.897088,191.5847 56.897088,192.66364 L 56.897088,199.12203 z M 54.784568,196.75545 L 54.784568,192.9347 C 54.784568,191.75549 54.676138,190.82643 54.455388,190.15533 C 54.234648,189.48458 53.926378,188.95132 53.526338,188.55128 C 52.967908,187.9886 52.209648,187.55136 51.263578,187.23884 C 50.313618,186.92632 49.167718,186.76793 47.813818,186.76793 C 45.942948,186.76793 44.505428,187.0762 43.501258,187.68884 C 42.492828,188.30537 41.822088,189.05124 41.480158,189.93033 C 41.234608,190.56388 41.113778,191.58895 41.113778,192.99281 L 41.113778,196.75545 L 54.784568,196.75545 L 54.784568,196.75545 z"
       id="path2708"
       style="fill:#1f1a17;fill-rule:nonzero" />
    <path
       d="M 52.722008,172.47636 L 53.001218,170.20545 C 54.330308,170.56368 55.359648,171.22628 56.092758,172.19289 C 56.821968,173.16376 57.188698,174.40108 57.188698,175.90557 C 57.188698,177.80124 56.605468,179.30537 55.438658,180.41372 C 54.272198,181.52632 52.634488,182.08049 50.526218,182.08049 C 48.342828,182.08049 46.651258,181.51781 45.446888,180.39707 C 44.242868,179.27207 43.638738,177.81789 43.638738,176.0264 C 43.638738,174.29301 44.230468,172.8764 45.409688,171.78045 C 46.588538,170.68025 48.251058,170.13033 50.388738,170.13033 C 50.521968,170.13033 50.717908,170.13458 50.976218,170.14273 L 50.976218,179.80958 C 52.401338,179.73057 53.493028,179.32628 54.247048,178.60132 C 55.005308,177.87636 55.384448,176.97636 55.384448,175.89281 C 55.384448,175.08884 55.172198,174.40108 54.747008,173.83025 C 54.326058,173.25943 53.651058,172.80943 52.722008,172.47636 L 52.722008,172.47636 z M 49.171968,179.68876 L 49.171968,172.4512 C 48.080278,172.54722 47.259648,172.82608 46.717868,173.28033 C 45.872088,173.98049 45.446888,174.88864 45.446888,176.00124 C 45.446888,177.00966 45.784568,177.8597 46.459568,178.5471 C 47.134568,179.23451 48.038818,179.61364 49.171968,179.68876 L 49.171968,179.68876 z"
       id="path2710"
       style="fill:#1f1a17;fill-rule:nonzero" />
    <path
       d="M 52.146928,158.98451 L 52.430388,156.82628 C 53.917868,157.05943 55.084688,157.66356 55.926218,158.63868 C 56.767758,159.60955 57.188698,160.80541 57.188698,162.22203 C 57.188698,163.99297 56.609718,165.42199 55.451418,166.49703 C 54.292758,167.57632 52.630238,168.11773 50.463858,168.11773 C 49.063538,168.11773 47.838618,167.88458 46.788738,167.42218 C 45.738858,166.95518 44.951178,166.25112 44.426058,165.30116 C 43.901298,164.35545 43.638738,163.32187 43.638738,162.20962 C 43.638738,160.80116 43.996968,159.6471 44.709528,158.75525 C 45.422088,157.85951 46.430508,157.28443 47.742948,157.03037 L 48.072128,159.1677 C 47.201178,159.37179 46.547088,159.73037 46.105238,160.24699 C 45.667988,160.7636 45.446888,161.38864 45.446888,162.1221 C 45.446888,163.23045 45.842678,164.13045 46.638858,164.8221 C 47.430428,165.51376 48.684408,165.85959 50.401138,165.85959 C 52.143028,165.85959 53.409408,165.52616 54.201338,164.85541 C 54.988658,164.18856 55.384448,163.31797 55.384448,162.24293 C 55.384448,161.38014 55.117988,160.66368 54.588618,160.08435 C 54.059608,159.50537 53.247128,159.13864 52.146928,158.98451 L 52.146928,158.98451 z"
       id="path2712"
       style="fill:#1f1a17;fill-rule:nonzero" />
    <path
       d="M 50.413538,155.76364 C 48.013658,155.76364 46.234568,155.09679 45.080508,153.75955 C 44.122048,152.64695 43.638738,151.28844 43.638738,149.68439 C 43.638738,147.90104 44.221968,146.44262 45.392678,145.31337 C 46.559488,144.18022 48.172048,143.61754 50.230348,143.61754 C 51.901378,143.61754 53.213818,143.8677 54.168028,144.36766 C 55.126138,144.86762 55.867758,145.59683 56.397128,146.55104 C 56.926138,147.50951 57.188698,148.55088 57.188698,149.68439 C 57.188698,151.49679 56.609718,152.96372 55.442908,154.08447 C 54.280348,155.20522 52.605428,155.76364 50.413538,155.76364 L 50.413538,155.76364 z M 50.413538,153.50514 C 52.076058,153.50514 53.317988,153.14266 54.142868,152.4177 C 54.972008,151.69274 55.384448,150.78033 55.384448,149.68439 C 55.384448,148.5927 54.967758,147.68455 54.138618,146.95923 C 53.309488,146.23852 52.042758,145.87604 50.343028,145.87604 C 48.738618,145.87604 47.521848,146.23852 46.696968,146.96774 C 45.872088,147.69695 45.459648,148.6012 45.459648,149.68439 C 45.459648,150.78033 45.872088,151.69274 46.692718,152.4177 C 47.513698,153.14266 48.755278,153.50514 50.413538,153.50514 L 50.413538,153.50514 z"
       id="path2714"
       style="fill:#1f1a17;fill-rule:nonzero" />
    <path
       d="M 56.897088,132.6301 L 55.259718,132.6301 C 56.547008,133.45108 57.188698,134.65935 57.188698,136.25526 C 57.188698,137.28848 56.905588,138.23844 56.334408,139.10514 C 55.767828,139.97183 54.972008,140.64258 53.946928,141.12163 C 52.926098,141.59679 51.755388,141.83419 50.426298,141.83419 C 49.134408,141.83419 47.959448,141.6177 46.905318,141.1886 C 45.851178,140.75525 45.042948,140.10931 44.484528,139.24687 C 43.921848,138.38443 43.638738,137.41746 43.638738,136.35092 C 43.638738,135.57175 43.805278,134.87585 44.134448,134.26746 C 44.463618,133.65518 44.892718,133.15911 45.422088,132.77608 L 39.001258,132.77608 L 39.001258,130.5927 L 56.897088,130.5927 L 56.897088,132.6301 L 56.897088,132.6301 z M 50.426298,139.57604 C 52.088818,139.57604 53.330388,139.22596 54.151378,138.52581 C 54.972008,137.826 55.384448,137.00112 55.384448,136.04691 C 55.384448,135.08844 54.988658,134.27171 54.205238,133.60096 C 53.422168,132.93022 52.222048,132.59254 50.609488,132.59254 C 48.834648,132.59254 47.534608,132.93411 46.705468,133.61762 C 45.872088,134.30077 45.459648,135.14266 45.459648,136.14683 C 45.459648,137.12195 45.859688,137.93833 46.655508,138.59277 C 47.451338,139.24687 48.709568,139.57604 50.426298,139.57604 L 50.426298,139.57604 z"
       id="path2716"
       style="fill:#1f1a17;fill-rule:nonzero" />
    <path
       d="M 52.722008,118.26341 L 53.001218,115.9925 C 54.330308,116.35073 55.359648,117.01333 56.092758,117.97994 C 56.821968,118.95081 57.188698,120.18813 57.188698,121.69262 C 57.188698,123.58829 56.605468,125.09242 55.438658,126.20077 C 54.272198,127.31337 52.634488,127.86754 50.526218,127.86754 C 48.342828,127.86754 46.651258,127.30486 45.446888,126.18411 C 44.242868,125.05911 43.638738,123.60494 43.638738,121.81344 C 43.638738,120.08006 44.230468,118.66344 45.409688,117.5675 C 46.588538,116.4673 48.251058,115.91738 50.388738,115.91738 C 50.521968,115.91738 50.717908,115.92163 50.976218,115.92978 L 50.976218,125.59663 C 52.401338,125.51762 53.493028,125.11333 54.247048,124.38837 C 55.005308,123.6634 55.384448,122.7634 55.384448,121.67986 C 55.384448,120.87589 55.172198,120.18813 54.747008,119.6173 C 54.326058,119.04648 53.651058,118.59648 52.722008,118.26341 L 52.722008,118.26341 z M 49.171968,125.47581 L 49.171968,118.23825 C 48.080278,118.33427 47.259648,118.61313 46.717868,119.06738 C 45.872088,119.76754 45.446888,120.67569 45.446888,121.78829 C 45.446888,122.79671 45.784568,123.64675 46.459568,124.33415 C 47.134568,125.02155 48.038818,125.40069 49.171968,125.47581 L 49.171968,125.47581 z"
       id="path2718"
       style="fill:#1f1a17;fill-rule:nonzero" />
    <path
       d="M 81.294168,56.222222 L 97.988108,56.222222 L 97.988108,112.04242 L 81.294168,112.04242 L 81.294168,56.222222 z M 114.88437,84.150212 L 104.34374,90.235482 L 104.34374,78.065642 L 114.88437,84.150212 z M 115.05799,84.168282 L 119.42086,84.168282 L 119.42086,98.429736 L 124.32799,98.429736 L 124.32799,103.89352 L 133.78153,103.89352 L 133.78153,98.446396 L 140.22752,98.446396 M 124.34358,107.07541 L 133.80102,107.07541 M 129.07212,107.07541 L 129.07212,114.3686 M 97.988108,84.132142 L 104.39724,84.132142"
       id="path2720"
       style="fill:none;fill-rule:evenodd;stroke:#1f1a17;stroke-width:1.0629921" />
    <path
       d="M 95.607008,94.623512 L 83.675268,94.623512 L 83.675268,90.123162 C 83.675268,89.331232 83.714248,88.725682 83.789368,88.308992 C 83.886458,87.722922 84.072828,87.231112 84.347788,86.833912 C 84.619918,86.439542 85.006138,86.119932 85.497948,85.878282 C 85.992238,85.636622 86.534008,85.517212 87.125748,85.517212 C 88.139838,85.517212 89.000868,85.839302 89.703858,86.483832 C 90.403658,87.131192 90.756568,88.298002 90.756568,89.984262 L 90.756568,93.045682 L 95.607008,93.045682 L 95.607008,94.623512 L 95.607008,94.623512 z M 89.348108,93.045682 L 89.348108,89.959102 C 89.348108,88.939702 89.159248,88.214732 88.778698,87.786702 C 88.398148,87.359032 87.864528,87.145012 87.175708,87.145012 C 86.675748,87.145012 86.247718,87.270092 85.892318,87.523082 C 85.536568,87.775722 85.303418,88.106312 85.189328,88.520172 C 85.119878,88.786982 85.083738,89.275952 85.083738,89.992412 L 85.083738,93.045682 L 89.348108,93.045682 L 89.348108,93.045682 z M 95.607008,83.506032 L 83.675268,83.506032 L 83.675268,79.397212 C 83.675268,78.469582 83.733738,77.761272 83.847828,77.272292 C 84.003388,76.588792 84.289328,76.005562 84.700708,75.521902 C 85.233978,74.894032 85.911808,74.422062 86.739528,74.110962 C 87.567598,73.797022 88.511888,73.641472 89.575938,73.641472 C 90.481608,73.641472 91.284528,73.746702 91.984328,73.960722 C 92.684488,74.171902 93.265238,74.441552 93.723378,74.774622 C 94.181888,75.105212 94.542948,75.466622 94.804088,75.860992 C 95.068068,76.252532 95.267908,76.727692 95.404328,77.283282 C 95.540388,77.841702 95.607008,78.480562 95.607008,79.200212 L 95.607008,83.506032 z M 94.198538,81.928202 L 94.198538,79.380562 C 94.198538,78.594662 94.126258,77.974932 93.979208,77.527772 C 93.831808,77.080602 93.626298,76.724852 93.359488,76.458042 C 92.987438,76.083162 92.481808,75.791552 91.851098,75.583202 C 91.217908,75.374852 90.453618,75.269262 89.550788,75.269262 C 88.303538,75.269262 87.345078,75.474772 86.675748,75.883322 C 86.003578,76.294342 85.556058,76.791472 85.328228,77.377882 C 85.164528,77.799892 85.083738,78.483402 85.083738,79.419542 L 85.083738,81.928202 L 94.198538,81.928202 z"
       id="path2722"
       style="fill:#1f1a17;fill-rule:nonzero" />
    <path
       d="M 142.18165,56.222222 L 158.87559,56.222222 L 158.87559,112.04242 L 142.18165,112.04242 L 142.18165,56.222222 z M 175.77185,84.150212 L 165.23122,90.235482 L 165.23122,78.065642 L 175.77185,84.150212 z M 175.94547,84.168282 L 180.30834,84.168282 L 180.30834,98.429736 L 185.21547,98.429736 L 185.21547,103.89352 L 194.66901,103.89352 L 194.66901,98.446396 L 201.115,98.446396 M 185.23106,107.07541 L 194.6885,107.07541 M 189.9596,107.07541 L 189.9596,114.3686 M 158.87559,84.132142 L 165.28472,84.132142"
       id="path2724"
       style="fill:none;fill-rule:evenodd;stroke:#1f1a17;stroke-width:1.0629921" />
    <path
       d="M 156.49449,94.623512 L 144.56275,94.623512 L 144.56275,90.123162 C 144.56275,89.331232 144.60173,88.725682 144.67685,88.308992 C 144.77393,87.722922 144.96031,87.231112 145.23527,86.833912 C 145.5074,86.439542 145.89362,86.119932 146.38543,85.878282 C 146.87972,85.636622 147.42149,85.517212 148.01323,85.517212 C 149.02732,85.517212 149.88834,85.839302 150.59134,86.483832 C 151.29114,87.131192 151.64405,88.298002 151.64405,89.984262 L 151.64405,93.045682 L 156.49449,93.045682 L 156.49449,94.623512 z M 150.23559,93.045682 L 150.23559,89.959102 C 150.23559,88.939702 150.04673,88.214732 149.66618,87.786702 C 149.28563,87.359032 148.75201,87.145012 148.06319,87.145012 C 147.56323,87.145012 147.13519,87.270092 146.7798,87.523082 C 146.42405,87.775722 146.1909,88.106312 146.07681,88.520172 C 146.00736,88.786982 145.97122,89.275952 145.97122,89.992412 L 145.97122,93.045682 L 150.23559,93.045682 L 150.23559,93.045682 z M 156.49449,83.506032 L 144.56275,83.506032 L 144.56275,79.397212 C 144.56275,78.469582 144.62122,77.761272 144.73531,77.272292 C 144.89086,76.588792 145.17681,76.005562 145.58819,75.521902 C 146.12145,74.894032 146.79929,74.422062 147.62701,74.110962 C 148.45508,73.797022 149.39937,73.641472 150.46342,73.641472 C 151.36909,73.641472 152.17201,73.746702 152.87181,73.960722 C 153.57197,74.171902 154.15271,74.441552 154.61086,74.774622 C 155.06937,75.105212 155.43043,75.466622 155.69157,75.860992 C 155.95555,76.252532 156.15539,76.727692 156.29181,77.283282 C 156.42787,77.841702 156.49449,78.480562 156.49449,79.200212 L 156.49449,83.506032 L 156.49449,83.506032 z M 155.08602,81.928202 L 155.08602,79.380562 C 155.08602,78.594662 155.01374,77.974932 154.86669,77.527772 C 154.71929,77.080602 154.51378,76.724852 154.24697,76.458042 C 153.87492,76.083162 153.36929,75.791552 152.73858,75.583202 C 152.10539,75.374852 151.3411,75.269262 150.43827,75.269262 C 149.19102,75.269262 148.23256,75.474772 147.56323,75.883322 C 146.89106,76.294342 146.44354,76.791472 146.21571,77.377882 C 146.05201,77.799892 145.97122,78.483402 145.97122,79.419542 L 145.97122,81.928202 L 155.08602,81.928202 z"
       id="path2726"
       style="fill:#1f1a17;fill-rule:nonzero" />
    <path
       d="M 203.06913,56.222222 L 219.76307,56.222222 L 219.76307,112.04242 L 203.06913,112.04242 L 203.06913,56.222222 z M 236.65933,84.150212 L 226.1187,90.235482 L 226.1187,78.065642 L 236.65933,84.150212 z M 236.83295,84.168282 L 241.19582,84.168282 L 241.19582,98.429736 L 246.10295,98.429736 L 246.10295,103.89352 L 255.55649,103.89352 L 255.55649,98.446396 L 262.00248,98.446396 M 246.11854,107.07541 L 255.57598,107.07541 M 250.84708,107.07541 L 250.84708,114.3686 M 219.76307,84.132142 L 226.1722,84.132142"
       id="path2728"
       style="fill:none;fill-rule:evenodd;stroke:#1f1a17;stroke-width:1.0629921" />
    <path
       d="M 217.38196,94.623512 L 205.45023,94.623512 L 205.45023,90.123162 C 205.45023,89.331232 205.48921,88.725682 205.56433,88.308992 C 205.66141,87.722922 205.84779,87.231112 206.12275,86.833912 C 206.39488,86.439542 206.7811,86.119932 207.27291,85.878282 C 207.7672,85.636622 208.30897,85.517212 208.9007,85.517212 C 209.9148,85.517212 210.77582,85.839302 211.47882,86.483832 C 212.17862,87.131192 212.53153,88.298002 212.53153,89.984262 L 212.53153,93.045682 L 217.38196,93.045682 L 217.38196,94.623512 z M 211.12307,93.045682 L 211.12307,89.959102 C 211.12307,88.939702 210.93421,88.214732 210.55366,87.786702 C 210.17311,87.359032 209.63948,87.145012 208.95067,87.145012 C 208.4507,87.145012 208.02267,87.270092 207.66728,87.523082 C 207.31153,87.775722 207.07838,88.106312 206.96429,88.520172 C 206.89484,88.786982 206.8587,89.275952 206.8587,89.992412 L 206.8587,93.045682 L 211.12307,93.045682 L 211.12307,93.045682 z M 217.38196,83.506032 L 205.45023,83.506032 L 205.45023,79.397212 C 205.45023,78.469582 205.5087,77.761272 205.62279,77.272292 C 205.77834,76.588792 206.06429,76.005562 206.47567,75.521902 C 207.00893,74.894032 207.68677,74.422062 208.51448,74.110962 C 209.34256,73.797022 210.28685,73.641472 211.3509,73.641472 C 212.25657,73.641472 213.05948,73.746702 213.75929,73.960722 C 214.45944,74.171902 215.04019,74.441552 215.49834,74.774622 C 215.95685,75.105212 216.31791,75.466622 216.57905,75.860992 C 216.84303,76.252532 217.04287,76.727692 217.17929,77.283282 C 217.31535,77.841702 217.38196,78.480562 217.38196,79.200212 L 217.38196,83.506032 L 217.38196,83.506032 z M 215.9735,81.928202 L 215.9735,79.380562 C 215.9735,78.594662 215.90122,77.974932 215.75417,77.527772 C 215.60677,77.080602 215.40126,76.724852 215.13444,76.458042 C 214.7624,76.083162 214.25677,75.791552 213.62606,75.583202 C 212.99287,75.374852 212.22858,75.269262 211.32574,75.269262 C 210.0785,75.269262 209.12004,75.474772 208.4507,75.883322 C 207.77854,76.294342 207.33102,76.791472 207.10319,77.377882 C 206.93948,77.799892 206.8587,78.483402 206.8587,79.419542 L 206.8587,81.928202 L 215.9735,81.928202 z"
       id="path2730"
       style="fill:#1f1a17;fill-rule:nonzero" />
    <path
       d="M 263.95661,56.222222 L 280.65055,56.222222 L 280.65055,112.04242 L 263.95661,112.04242 L 263.95661,56.222222 z M 297.54681,84.150212 L 287.00618,90.235482 L 287.00618,78.065642 L 297.54681,84.150212 z M 297.72043,84.168282 L 302.0833,84.168282 L 302.0833,98.429736 L 306.99043,98.429736 L 306.99043,103.89352 L 316.44397,103.89352 L 316.44397,98.446396 L 322.88995,98.446396 M 307.00602,107.07541 L 316.46346,107.07541 M 311.73456,107.07541 L 311.73456,114.3686 M 280.65055,84.132142 L 287.05968,84.132142"
       id="path2732"
       style="fill:none;fill-rule:evenodd;stroke:#1f1a17;stroke-width:1.0629921" />
    <path
       d="M 278.26944,94.623512 L 266.33771,94.623512 L 266.33771,90.123162 C 266.33771,89.331232 266.37669,88.725682 266.45181,88.308992 C 266.54889,87.722922 266.73527,87.231112 267.01023,86.833912 C 267.28236,86.439542 267.66858,86.119932 268.16039,85.878282 C 268.65468,85.636622 269.19645,85.517212 269.78818,85.517212 C 270.80228,85.517212 271.6633,85.839302 272.36629,86.483832 C 273.0661,87.131192 273.41901,88.298002 273.41901,89.984262 L 273.41901,93.045682 L 278.26944,93.045682 L 278.26944,94.623512 z M 272.01055,93.045682 L 272.01055,89.959102 C 272.01055,88.939702 271.82169,88.214732 271.44114,87.786702 C 271.06059,87.359032 270.52696,87.145012 269.83814,87.145012 C 269.33818,87.145012 268.91015,87.270092 268.55476,87.523082 C 268.19901,87.775722 267.96586,88.106312 267.85177,88.520172 C 267.78232,88.786982 267.74618,89.275952 267.74618,89.992412 L 267.74618,93.045682 L 272.01055,93.045682 L 272.01055,93.045682 z M 278.26944,83.506032 L 266.33771,83.506032 L 266.33771,79.397212 C 266.33771,78.469582 266.39618,77.761272 266.51027,77.272292 C 266.66582,76.588792 266.95177,76.005562 267.36314,75.521902 C 267.89641,74.894032 268.57425,74.422062 269.40196,74.110962 C 270.23003,73.797022 271.17433,73.641472 272.23838,73.641472 C 273.14405,73.641472 273.94696,73.746702 274.64677,73.960722 C 275.34692,74.171902 275.92767,74.441552 276.38582,74.774622 C 276.84433,75.105212 277.20539,75.466622 277.46653,75.860992 C 277.73051,76.252532 277.93035,76.727692 278.06677,77.283282 C 278.20283,77.841702 278.26944,78.480562 278.26944,79.200212 L 278.26944,83.506032 L 278.26944,83.506032 z M 276.86098,81.928202 L 276.86098,79.380562 C 276.86098,78.594662 276.7887,77.974932 276.64165,77.527772 C 276.49425,77.080602 276.28873,76.724852 276.02192,76.458042 C 275.64988,76.083162 275.14425,75.791552 274.51354,75.583202 C 273.88035,75.374852 273.11606,75.269262 272.21322,75.269262 C 270.96598,75.269262 270.00751,75.474772 269.33818,75.883322 C 268.66602,76.294342 268.2185,76.791472 267.99066,77.377882 C 267.82696,77.799892 267.74618,78.483402 267.74618,79.419542 L 267.74618,81.928202 L 276.86098,81.928202 z"
       id="path2734"
       style="fill:#1f1a17;fill-rule:nonzero" />
    <path
       d="M 81.294168,117.36022 L 97.988108,117.36022 L 97.988108,173.18041 L 81.294168,173.18041 L 81.294168,117.36022 z M 114.88437,145.28821 L 104.34374,151.37348 L 104.34374,139.20364 L 114.88437,145.28821 z M 115.05799,145.30628 L 119.42086,145.30628 L 119.42086,159.56773 L 124.32799,159.56773 L 124.32799,165.03151 L 133.78153,165.03151 L 133.78153,159.58439 L 140.22752,159.58439 M 124.34358,168.2134 L 133.80102,168.2134 M 129.07212,168.2134 L 129.07212,175.50659 M 97.988108,145.27014 L 104.39724,145.27014"
       id="path2736"
       style="fill:none;fill-rule:evenodd;stroke:#1f1a17;stroke-width:1.0629921" />
    <path
       d="M 95.607008,155.76151 L 83.675268,155.76151 L 83.675268,151.26116 C 83.675268,150.46923 83.714248,149.86368 83.789368,149.44699 C 83.886458,148.86092 84.072828,148.36911 84.347788,147.97191 C 84.619918,147.57754 85.006138,147.25793 85.497948,147.01628 C 85.992238,146.77462 86.534008,146.65522 87.125748,146.65522 C 88.139838,146.65522 89.000868,146.9773 89.703858,147.62183 C 90.403658,148.26919 90.756568,149.436 90.756568,151.12226 L 90.756568,154.18368 L 95.607008,154.18368 L 95.607008,155.76151 L 95.607008,155.76151 z M 89.348108,154.18368 L 89.348108,151.09711 C 89.348108,150.0777 89.159248,149.35274 88.778698,148.9247 C 88.398148,148.49703 87.864528,148.28301 87.175708,148.28301 C 86.675748,148.28301 86.247718,148.40809 85.892318,148.66108 C 85.536568,148.91372 85.303418,149.24431 85.189328,149.65817 C 85.119878,149.92498 85.083738,150.41396 85.083738,151.13041 L 85.083738,154.18368 L 89.348108,154.18368 L 89.348108,154.18368 z M 95.607008,144.64403 L 83.675268,144.64403 L 83.675268,140.53522 C 83.675268,139.60758 83.733738,138.89927 83.847828,138.41029 C 84.003388,137.72679 84.289328,137.14356 84.700708,136.6599 C 85.233978,136.03203 85.911808,135.56006 86.739528,135.24896 C 87.567598,134.93502 88.511888,134.77947 89.575938,134.77947 C 90.481608,134.77947 91.284528,134.8847 91.984328,135.09872 C 92.684488,135.3099 93.265238,135.57955 93.723378,135.91262 C 94.181888,136.24321 94.542948,136.60463 94.804088,136.999 C 95.068068,137.39053 95.267908,137.86569 95.404328,138.42128 C 95.540388,138.9797 95.607008,139.61856 95.607008,140.33821 L 95.607008,144.64403 L 95.607008,144.64403 z M 94.198538,143.0662 L 94.198538,140.51856 C 94.198538,139.73266 94.126258,139.11293 93.979208,138.66577 C 93.831808,138.2186 93.626298,137.86285 93.359488,137.59604 C 92.987438,137.22116 92.481808,136.92955 91.851098,136.7212 C 91.217908,136.51285 90.453618,136.40726 89.550788,136.40726 C 88.303538,136.40726 87.345078,136.61277 86.675748,137.02132 C 86.003578,137.43234 85.556058,137.92947 85.328228,138.51588 C 85.164528,138.93789 85.083738,139.6214 85.083738,140.55754 L 85.083738,143.0662 L 94.198538,143.0662 L 94.198538,143.0662 z"
       id="path2738"
       style="fill:#1f1a17;fill-rule:nonzero" />
    <path
       d="M 142.18165,117.36022 L 158.87559,117.36022 L 158.87559,173.18041 L 142.18165,173.18041 L 142.18165,117.36022 z M 175.77185,145.28821 L 165.23122,151.37348 L 165.23122,139.20364 L 175.77185,145.28821 z M 175.94547,145.30628 L 180.30834,145.30628 L 180.30834,159.56773 L 185.21547,159.56773 L 185.21547,165.03151 L 194.66901,165.03151 L 194.66901,159.58439 L 201.115,159.58439 M 185.23106,168.2134 L 194.6885,168.2134 M 189.9596,168.2134 L 189.9596,175.50659 M 158.87559,145.27014 L 165.28472,145.27014"
       id="path2740"
       style="fill:none;fill-rule:evenodd;stroke:#1f1a17;stroke-width:1.0629921" />
    <path
       d="M 156.49449,155.76151 L 144.56275,155.76151 L 144.56275,151.26116 C 144.56275,150.46923 144.60173,149.86368 144.67685,149.44699 C 144.77393,148.86092 144.96031,148.36911 145.23527,147.97191 C 145.5074,147.57754 145.89362,147.25793 146.38543,147.01628 C 146.87972,146.77462 147.42149,146.65522 148.01323,146.65522 C 149.02732,146.65522 149.88834,146.9773 150.59134,147.62183 C 151.29114,148.26919 151.64405,149.436 151.64405,151.12226 L 151.64405,154.18368 L 156.49449,154.18368 L 156.49449,155.76151 z M 150.23559,154.18368 L 150.23559,151.09711 C 150.23559,150.0777 150.04673,149.35274 149.66618,148.9247 C 149.28563,148.49703 148.75201,148.28301 148.06319,148.28301 C 147.56323,148.28301 147.13519,148.40809 146.7798,148.66108 C 146.42405,148.91372 146.1909,149.24431 146.07681,149.65817 C 146.00736,149.92498 145.97122,150.41396 145.97122,151.13041 L 145.97122,154.18368 L 150.23559,154.18368 L 150.23559,154.18368 z M 156.49449,144.64403 L 144.56275,144.64403 L 144.56275,140.53522 C 144.56275,139.60758 144.62122,138.89927 144.73531,138.41029 C 144.89086,137.72679 145.17681,137.14356 145.58819,136.6599 C 146.12145,136.03203 146.79929,135.56006 147.62701,135.24896 C 148.45508,134.93502 149.39937,134.77947 150.46342,134.77947 C 151.36909,134.77947 152.17201,134.8847 152.87181,135.09872 C 153.57197,135.3099 154.15271,135.57955 154.61086,135.91262 C 155.06937,136.24321 155.43043,136.60463 155.69157,136.999 C 155.95555,137.39053 156.15539,137.86569 156.29181,138.42128 C 156.42787,138.9797 156.49449,139.61856 156.49449,140.33821 L 156.49449,144.64403 L 156.49449,144.64403 z M 155.08602,143.0662 L 155.08602,140.51856 C 155.08602,139.73266 155.01374,139.11293 154.86669,138.66577 C 154.71929,138.2186 154.51378,137.86285 154.24697,137.59604 C 153.87492,137.22116 153.36929,136.92955 152.73858,136.7212 C 152.10539,136.51285 151.3411,136.40726 150.43827,136.40726 C 149.19102,136.40726 148.23256,136.61277 147.56323,137.02132 C 146.89106,137.43234 146.44354,137.92947 146.21571,138.51588 C 146.05201,138.93789 145.97122,139.6214 145.97122,140.55754 L 145.97122,143.0662 L 155.08602,143.0662 L 155.08602,143.0662 z"
       id="path2742"
       style="fill:#1f1a17;fill-rule:nonzero" />
    <path
       d="M 203.06913,117.36022 L 219.76307,117.36022 L 219.76307,173.18041 L 203.06913,173.18041 L 203.06913,117.36022 z M 236.65933,145.28821 L 226.1187,151.37348 L 226.1187,139.20364 L 236.65933,145.28821 z M 236.83295,145.30628 L 241.19582,145.30628 L 241.19582,159.56773 L 246.10295,159.56773 L 246.10295,165.03151 L 255.55649,165.03151 L 255.55649,159.58439 L 262.00248,159.58439 M 246.11854,168.2134 L 255.57598,168.2134 M 250.84708,168.2134 L 250.84708,175.50659 M 219.76307,145.27014 L 226.1722,145.27014"
       id="path2744"
       style="fill:none;fill-rule:evenodd;stroke:#1f1a17;stroke-width:1.0629921" />
    <path
       d="M 217.38196,155.76151 L 205.45023,155.76151 L 205.45023,151.26116 C 205.45023,150.46923 205.48921,149.86368 205.56433,149.44699 C 205.66141,148.86092 205.84779,148.36911 206.12275,147.97191 C 206.39488,147.57754 206.7811,147.25793 207.27291,147.01628 C 207.7672,146.77462 208.30897,146.65522 208.9007,146.65522 C 209.9148,146.65522 210.77582,146.9773 211.47882,147.62183 C 212.17862,148.26919 212.53153,149.436 212.53153,151.12226 L 212.53153,154.18368 L 217.38196,154.18368 L 217.38196,155.76151 z M 211.12307,154.18368 L 211.12307,151.09711 C 211.12307,150.0777 210.93421,149.35274 210.55366,148.9247 C 210.17311,148.49703 209.63948,148.28301 208.95067,148.28301 C 208.4507,148.28301 208.02267,148.40809 207.66728,148.66108 C 207.31153,148.91372 207.07838,149.24431 206.96429,149.65817 C 206.89484,149.92498 206.8587,150.41396 206.8587,151.13041 L 206.8587,154.18368 L 211.12307,154.18368 L 211.12307,154.18368 z M 217.38196,144.64403 L 205.45023,144.64403 L 205.45023,140.53522 C 205.45023,139.60758 205.5087,138.89927 205.62279,138.41029 C 205.77834,137.72679 206.06429,137.14356 206.47567,136.6599 C 207.00893,136.03203 207.68677,135.56006 208.51448,135.24896 C 209.34256,134.93502 210.28685,134.77947 211.3509,134.77947 C 212.25657,134.77947 213.05948,134.8847 213.75929,135.09872 C 214.45944,135.3099 215.04019,135.57955 215.49834,135.91262 C 215.95685,136.24321 216.31791,136.60463 216.57905,136.999 C 216.84303,137.39053 217.04287,137.86569 217.17929,138.42128 C 217.31535,138.9797 217.38196,139.61856 217.38196,140.33821 L 217.38196,144.64403 L 217.38196,144.64403 z M 215.9735,143.0662 L 215.9735,140.51856 C 215.9735,139.73266 215.90122,139.11293 215.75417,138.66577 C 215.60677,138.2186 215.40126,137.86285 215.13444,137.59604 C 214.7624,137.22116 214.25677,136.92955 213.62606,136.7212 C 212.99287,136.51285 212.22858,136.40726 211.32574,136.40726 C 210.0785,136.40726 209.12004,136.61277 208.4507,137.02132 C 207.77854,137.43234 207.33102,137.92947 207.10319,138.51588 C 206.93948,138.93789 206.8587,139.6214 206.8587,140.55754 L 206.8587,143.0662 L 215.9735,143.0662 L 215.9735,143.0662 z"
       id="path2746"
       style="fill:#1f1a17;fill-rule:nonzero" />
    <path
       d="M 263.95661,117.36022 L 280.65055,117.36022 L 280.65055,173.18041 L 263.95661,173.18041 L 263.95661,117.36022 z M 297.54681,145.28821 L 287.00618,151.37348 L 287.00618,139.20364 L 297.54681,145.28821 z M 297.72043,145.30628 L 302.0833,145.30628 L 302.0833,159.56773 L 306.99043,159.56773 L 306.99043,165.03151 L 316.44397,165.03151 L 316.44397,159.58439 L 322.88995,159.58439 M 307.00602,168.2134 L 316.46346,168.2134 M 311.73456,168.2134 L 311.73456,175.50659 M 280.65055,145.27014 L 287.05968,145.27014"
       id="path2748"
       style="fill:none;fill-rule:evenodd;stroke:#1f1a17;stroke-width:1.0629921" />
    <path
       d="M 278.26944,155.76151 L 266.33771,155.76151 L 266.33771,151.26116 C 266.33771,150.46923 266.37669,149.86368 266.45181,149.44699 C 266.54889,148.86092 266.73527,148.36911 267.01023,147.97191 C 267.28236,147.57754 267.66858,147.25793 268.16039,147.01628 C 268.65468,146.77462 269.19645,146.65522 269.78818,146.65522 C 270.80228,146.65522 271.6633,146.9773 272.36629,147.62183 C 273.0661,148.26919 273.41901,149.436 273.41901,151.12226 L 273.41901,154.18368 L 278.26944,154.18368 L 278.26944,155.76151 z M 272.01055,154.18368 L 272.01055,151.09711 C 272.01055,150.0777 271.82169,149.35274 271.44114,148.9247 C 271.06059,148.49703 270.52696,148.28301 269.83814,148.28301 C 269.33818,148.28301 268.91015,148.40809 268.55476,148.66108 C 268.19901,148.91372 267.96586,149.24431 267.85177,149.65817 C 267.78232,149.92498 267.74618,150.41396 267.74618,151.13041 L 267.74618,154.18368 L 272.01055,154.18368 L 272.01055,154.18368 z M 278.26944,144.64403 L 266.33771,144.64403 L 266.33771,140.53522 C 266.33771,139.60758 266.39618,138.89927 266.51027,138.41029 C 266.66582,137.72679 266.95177,137.14356 267.36314,136.6599 C 267.89641,136.03203 268.57425,135.56006 269.40196,135.24896 C 270.23003,134.93502 271.17433,134.77947 272.23838,134.77947 C 273.14405,134.77947 273.94696,134.8847 274.64677,135.09872 C 275.34692,135.3099 275.92767,135.57955 276.38582,135.91262 C 276.84433,136.24321 277.20539,136.60463 277.46653,136.999 C 277.73051,137.39053 277.93035,137.86569 278.06677,138.42128 C 278.20283,138.9797 278.26944,139.61856 278.26944,140.33821 L 278.26944,144.64403 L 278.26944,144.64403 z M 276.86098,143.0662 L 276.86098,140.51856 C 276.86098,139.73266 276.7887,139.11293 276.64165,138.66577 C 276.49425,138.2186 276.28873,137.86285 276.02192,137.59604 C 275.64988,137.22116 275.14425,136.92955 274.51354,136.7212 C 273.88035,136.51285 273.11606,136.40726 272.21322,136.40726 C 270.96598,136.40726 270.00751,136.61277 269.33818,137.02132 C 268.66602,137.43234 268.2185,137.92947 267.99066,138.51588 C 267.82696,138.93789 267.74618,139.6214 267.74618,140.55754 L 267.74618,143.0662 L 276.86098,143.0662 L 276.86098,143.0662 z"
       id="path2750"
       style="fill:#1f1a17;fill-rule:nonzero" />
    <path
       d="M 81.294168,178.49821 L 97.988108,178.49821 L 97.988108,234.3184 L 81.294168,234.3184 L 81.294168,178.49821 z M 114.88437,206.4262 L 104.34374,212.51147 L 104.34374,200.34163 L 114.88437,206.4262 z M 115.05799,206.44427 L 119.42086,206.44427 L 119.42086,220.70573 L 124.32799,220.70573 L 124.32799,226.1695 L 133.78153,226.1695 L 133.78153,220.72238 L 140.22752,220.72238 M 124.34358,229.35139 L 133.80102,229.35139 M 129.07212,229.35139 L 129.07212,236.64458 M 97.988108,206.40813 L 104.39724,206.40813"
       id="path2752"
       style="fill:none;fill-rule:evenodd;stroke:#1f1a17;stroke-width:1.0629921" />
    <path
       d="M 95.607008,216.89951 L 83.675268,216.89951 L 83.675268,212.39915 C 83.675268,211.60722 83.714248,211.00167 83.789368,210.58498 C 83.886458,209.99891 84.072828,209.5071 84.347788,209.1099 C 84.619918,208.71553 85.006138,208.39592 85.497948,208.15427 C 85.992238,207.91262 86.534008,207.79321 87.125748,207.79321 C 88.139838,207.79321 89.000868,208.11529 89.703858,208.75982 C 90.403658,209.40718 90.756568,210.57399 90.756568,212.26025 L 90.756568,215.32167 L 95.607008,215.32167 L 95.607008,216.89951 L 95.607008,216.89951 z M 89.348108,215.32167 L 89.348108,212.2351 C 89.348108,211.21569 89.159248,210.49073 88.778698,210.06269 C 88.398148,209.63502 87.864528,209.421 87.175708,209.421 C 86.675748,209.421 86.247718,209.54608 85.892318,209.79907 C 85.536568,210.05171 85.303418,210.3823 85.189328,210.79616 C 85.119878,211.06297 85.083738,211.55195 85.083738,212.2684 L 85.083738,215.32167 L 89.348108,215.32167 L 89.348108,215.32167 z M 95.607008,205.78203 L 83.675268,205.78203 L 83.675268,201.67321 C 83.675268,200.74557 83.733738,200.03726 83.847828,199.54829 C 84.003388,198.86478 84.289328,198.28155 84.700708,197.79789 C 85.233978,197.17002 85.911808,196.69805 86.739528,196.38695 C 87.567598,196.07301 88.511888,195.91746 89.575938,195.91746 C 90.481608,195.91746 91.284528,196.02269 91.984328,196.23671 C 92.684488,196.44789 93.265238,196.71754 93.723378,197.05061 C 94.181888,197.3812 94.542948,197.74262 94.804088,198.13699 C 95.068068,198.52852 95.267908,199.00368 95.404328,199.55927 C 95.540388,200.11769 95.607008,200.75655 95.607008,201.4762 L 95.607008,205.78203 L 95.607008,205.78203 z M 94.198538,204.20419 L 94.198538,201.65655 C 94.198538,200.87065 94.126258,200.25092 93.979208,199.80376 C 93.831808,199.35659 93.626298,199.00084 93.359488,198.73403 C 92.987438,198.35915 92.481808,198.06754 91.851098,197.85919 C 91.217908,197.65084 90.453618,197.54525 89.550788,197.54525 C 88.303538,197.54525 87.345078,197.75077 86.675748,198.15931 C 86.003578,198.57033 85.556058,199.06746 85.328228,199.65388 C 85.164528,200.07588 85.083738,200.75939 85.083738,201.69553 L 85.083738,204.20419 L 94.198538,204.20419 L 94.198538,204.20419 z"
       id="path2754"
       style="fill:#1f1a17;fill-rule:nonzero" />
    <path
       d="M 142.18165,178.49821 L 158.87559,178.49821 L 158.87559,234.3184 L 142.18165,234.3184 L 142.18165,178.49821 z M 175.77185,206.4262 L 165.23122,212.51147 L 165.23122,200.34163 L 175.77185,206.4262 z M 175.94547,206.44427 L 180.30834,206.44427 L 180.30834,220.70573 L 185.21547,220.70573 L 185.21547,226.1695 L 194.66901,226.1695 L 194.66901,220.72238 L 201.115,220.72238 M 185.23106,229.35139 L 194.6885,229.35139 M 189.9596,229.35139 L 189.9596,236.64458 M 158.87559,206.40813 L 165.28472,206.40813"
       id="path2756"
       style="fill:none;fill-rule:evenodd;stroke:#1f1a17;stroke-width:1.0629921" />
    <path
       d="M 156.49449,216.89951 L 144.56275,216.89951 L 144.56275,212.39915 C 144.56275,211.60722 144.60173,211.00167 144.67685,210.58498 C 144.77393,209.99891 144.96031,209.5071 145.23527,209.1099 C 145.5074,208.71553 145.89362,208.39592 146.38543,208.15427 C 146.87972,207.91262 147.42149,207.79321 148.01323,207.79321 C 149.02732,207.79321 149.88834,208.11529 150.59134,208.75982 C 151.29114,209.40718 151.64405,210.57399 151.64405,212.26025 L 151.64405,215.32167 L 156.49449,215.32167 L 156.49449,216.89951 z M 150.23559,215.32167 L 150.23559,212.2351 C 150.23559,211.21569 150.04673,210.49073 149.66618,210.06269 C 149.28563,209.63502 148.75201,209.421 148.06319,209.421 C 147.56323,209.421 147.13519,209.54608 146.7798,209.79907 C 146.42405,210.05171 146.1909,210.3823 146.07681,210.79616 C 146.00736,211.06297 145.97122,211.55195 145.97122,212.2684 L 145.97122,215.32167 L 150.23559,215.32167 z M 156.49449,205.78203 L 144.56275,205.78203 L 144.56275,201.67321 C 144.56275,200.74557 144.62122,200.03726 144.73531,199.54829 C 144.89086,198.86478 145.17681,198.28155 145.58819,197.79789 C 146.12145,197.17002 146.79929,196.69805 147.62701,196.38695 C 148.45508,196.07301 149.39937,195.91746 150.46342,195.91746 C 151.36909,195.91746 152.17201,196.02269 152.87181,196.23671 C 153.57197,196.44789 154.15271,196.71754 154.61086,197.05061 C 155.06937,197.3812 155.43043,197.74262 155.69157,198.13699 C 155.95555,198.52852 156.15539,199.00368 156.29181,199.55927 C 156.42787,200.11769 156.49449,200.75655 156.49449,201.4762 L 156.49449,205.78203 L 156.49449,205.78203 z M 155.08602,204.20419 L 155.08602,201.65655 C 155.08602,200.87065 155.01374,200.25092 154.86669,199.80376 C 154.71929,199.35659 154.51378,199.00084 154.24697,198.73403 C 153.87492,198.35915 153.36929,198.06754 152.73858,197.85919 C 152.10539,197.65084 151.3411,197.54525 150.43827,197.54525 C 149.19102,197.54525 148.23256,197.75077 147.56323,198.15931 C 146.89106,198.57033 146.44354,199.06746 146.21571,199.65388 C 146.05201,200.07588 145.97122,200.75939 145.97122,201.69553 L 145.97122,204.20419 L 155.08602,204.20419 L 155.08602,204.20419 z"
       id="path2758"
       style="fill:#1f1a17;fill-rule:nonzero" />
    <path
       d="M 203.06913,178.49821 L 219.76307,178.49821 L 219.76307,234.3184 L 203.06913,234.3184 L 203.06913,178.49821 z M 236.65933,206.4262 L 226.1187,212.51147 L 226.1187,200.34163 L 236.65933,206.4262 z M 236.83295,206.44427 L 241.19582,206.44427 L 241.19582,220.70573 L 246.10295,220.70573 L 246.10295,226.1695 L 255.55649,226.1695 L 255.55649,220.72238 L 262.00248,220.72238 M 246.11854,229.35139 L 255.57598,229.35139 M 250.84708,229.35139 L 250.84708,236.64458 M 219.76307,206.40813 L 226.1722,206.40813"
       id="path2760"
       style="fill:none;fill-rule:evenodd;stroke:#1f1a17;stroke-width:1.0629921" />
    <path
       d="M 217.38196,216.89951 L 205.45023,216.89951 L 205.45023,212.39915 C 205.45023,211.60722 205.48921,211.00167 205.56433,210.58498 C 205.66141,209.99891 205.84779,209.5071 206.12275,209.1099 C 206.39488,208.71553 206.7811,208.39592 207.27291,208.15427 C 207.7672,207.91262 208.30897,207.79321 208.9007,207.79321 C 209.9148,207.79321 210.77582,208.11529 211.47882,208.75982 C 212.17862,209.40718 212.53153,210.57399 212.53153,212.26025 L 212.53153,215.32167 L 217.38196,215.32167 L 217.38196,216.89951 z M 211.12307,215.32167 L 211.12307,212.2351 C 211.12307,211.21569 210.93421,210.49073 210.55366,210.06269 C 210.17311,209.63502 209.63948,209.421 208.95067,209.421 C 208.4507,209.421 208.02267,209.54608 207.66728,209.79907 C 207.31153,210.05171 207.07838,210.3823 206.96429,210.79616 C 206.89484,211.06297 206.8587,211.55195 206.8587,212.2684 L 206.8587,215.32167 L 211.12307,215.32167 z M 217.38196,205.78203 L 205.45023,205.78203 L 205.45023,201.67321 C 205.45023,200.74557 205.5087,200.03726 205.62279,199.54829 C 205.77834,198.86478 206.06429,198.28155 206.47567,197.79789 C 207.00893,197.17002 207.68677,196.69805 208.51448,196.38695 C 209.34256,196.07301 210.28685,195.91746 211.3509,195.91746 C 212.25657,195.91746 213.05948,196.02269 213.75929,196.23671 C 214.45944,196.44789 215.04019,196.71754 215.49834,197.05061 C 215.95685,197.3812 216.31791,197.74262 216.57905,198.13699 C 216.84303,198.52852 217.04287,199.00368 217.17929,199.55927 C 217.31535,200.11769 217.38196,200.75655 217.38196,201.4762 L 217.38196,205.78203 L 217.38196,205.78203 z M 215.9735,204.20419 L 215.9735,201.65655 C 215.9735,200.87065 215.90122,200.25092 215.75417,199.80376 C 215.60677,199.35659 215.40126,199.00084 215.13444,198.73403 C 214.7624,198.35915 214.25677,198.06754 213.62606,197.85919 C 212.99287,197.65084 212.22858,197.54525 211.32574,197.54525 C 210.0785,197.54525 209.12004,197.75077 208.4507,198.15931 C 207.77854,198.57033 207.33102,199.06746 207.10319,199.65388 C 206.93948,200.07588 206.8587,200.75939 206.8587,201.69553 L 206.8587,204.20419 L 215.9735,204.20419 L 215.9735,204.20419 z"
       id="path2762"
       style="fill:#1f1a17;fill-rule:nonzero" />
    <path
       d="M 263.95661,178.49821 L 280.65055,178.49821 L 280.65055,234.3184 L 263.95661,234.3184 L 263.95661,178.49821 z M 297.54681,206.4262 L 287.00618,212.51147 L 287.00618,200.34163 L 297.54681,206.4262 z M 297.72043,206.44427 L 302.0833,206.44427 L 302.0833,220.70573 L 306.99043,220.70573 L 306.99043,226.1695 L 316.44397,226.1695 L 316.44397,220.72238 L 322.88995,220.72238 M 307.00602,229.35139 L 316.46346,229.35139 M 311.73456,229.35139 L 311.73456,236.64458 M 280.65055,206.40813 L 287.05968,206.40813"
       id="path2764"
       style="fill:none;fill-rule:evenodd;stroke:#1f1a17;stroke-width:1.0629921" />
    <path
       d="M 278.26944,216.89951 L 266.33771,216.89951 L 266.33771,212.39915 C 266.33771,211.60722 266.37669,211.00167 266.45181,210.58498 C 266.54889,209.99891 266.73527,209.5071 267.01023,209.1099 C 267.28236,208.71553 267.66858,208.39592 268.16039,208.15427 C 268.65468,207.91262 269.19645,207.79321 269.78818,207.79321 C 270.80228,207.79321 271.6633,208.11529 272.36629,208.75982 C 273.0661,209.40718 273.41901,210.57399 273.41901,212.26025 L 273.41901,215.32167 L 278.26944,215.32167 L 278.26944,216.89951 z M 272.01055,215.32167 L 272.01055,212.2351 C 272.01055,211.21569 271.82169,210.49073 271.44114,210.06269 C 271.06059,209.63502 270.52696,209.421 269.83814,209.421 C 269.33818,209.421 268.91015,209.54608 268.55476,209.79907 C 268.19901,210.05171 267.96586,210.3823 267.85177,210.79616 C 267.78232,211.06297 267.74618,211.55195 267.74618,212.2684 L 267.74618,215.32167 L 272.01055,215.32167 z M 278.26944,205.78203 L 266.33771,205.78203 L 266.33771,201.67321 C 266.33771,200.74557 266.39618,200.03726 266.51027,199.54829 C 266.66582,198.86478 266.95177,198.28155 267.36314,197.79789 C 267.89641,197.17002 268.57425,196.69805 269.40196,196.38695 C 270.23003,196.07301 271.17433,195.91746 272.23838,195.91746 C 273.14405,195.91746 273.94696,196.02269 274.64677,196.23671 C 275.34692,196.44789 275.92767,196.71754 276.38582,197.05061 C 276.84433,197.3812 277.20539,197.74262 277.46653,198.13699 C 277.73051,198.52852 277.93035,199.00368 278.06677,199.55927 C 278.20283,200.11769 278.26944,200.75655 278.26944,201.4762 L 278.26944,205.78203 L 278.26944,205.78203 z M 276.86098,204.20419 L 276.86098,201.65655 C 276.86098,200.87065 276.7887,200.25092 276.64165,199.80376 C 276.49425,199.35659 276.28873,199.00084 276.02192,198.73403 C 275.64988,198.35915 275.14425,198.06754 274.51354,197.85919 C 273.88035,197.65084 273.11606,197.54525 272.21322,197.54525 C 270.96598,197.54525 270.00751,197.75077 269.33818,198.15931 C 268.66602,198.57033 268.2185,199.06746 267.99066,199.65388 C 267.82696,200.07588 267.74618,200.75939 267.74618,201.69553 L 267.74618,204.20419 L 276.86098,204.20419 L 276.86098,204.20419 z"
       id="path2766"
       style="fill:#1f1a17;fill-rule:nonzero" />
    <path
       d="M 81.294168,239.6362 L 97.988108,239.6362 L 97.988108,295.45639 L 81.294168,295.45639 L 81.294168,239.6362 z M 114.88437,267.56419 L 104.34374,273.64946 L 104.34374,261.47962 L 114.88437,267.56419 z M 115.05799,267.58226 L 119.42086,267.58226 L 119.42086,281.84372 L 124.32799,281.84372 L 124.32799,287.3075 L 133.78153,287.3075 L 133.78153,281.86037 L 140.22752,281.86037 M 124.34358,290.48939 L 133.80102,290.48939 M 129.07212,290.48939 L 129.07212,297.78257 M 97.988108,267.54612 L 104.39724,267.54612"
       id="path2768"
       style="fill:none;fill-rule:evenodd;stroke:#1f1a17;stroke-width:1.0629921" />
    <path
       d="M 95.607008,278.0375 L 83.675268,278.0375 L 83.675268,273.53714 C 83.675268,272.74521 83.714248,272.13966 83.789368,271.72297 C 83.886458,271.13691 84.072828,270.64509 84.347788,270.24789 C 84.619918,269.85352 85.006138,269.53391 85.497948,269.29226 C 85.992238,269.05061 86.534008,268.9312 87.125748,268.9312 C 88.139838,268.9312 89.000868,269.25328 89.703858,269.89781 C 90.403658,270.54517 90.756568,271.71198 90.756568,273.39824 L 90.756568,276.45966 L 95.607008,276.45966 L 95.607008,278.0375 L 95.607008,278.0375 z M 89.348108,276.45966 L 89.348108,273.37309 C 89.348108,272.35368 89.159248,271.62872 88.778698,271.20068 C 88.398148,270.77301 87.864528,270.55899 87.175708,270.55899 C 86.675748,270.55899 86.247718,270.68407 85.892318,270.93706 C 85.536568,271.1897 85.303418,271.52029 85.189328,271.93415 C 85.119878,272.20096 85.083738,272.68994 85.083738,273.40639 L 85.083738,276.45966 L 89.348108,276.45966 L 89.348108,276.45966 z M 95.607008,266.92002 L 83.675268,266.92002 L 83.675268,262.8112 C 83.675268,261.88356 83.733738,261.17525 83.847828,260.68628 C 84.003388,260.00277 84.289328,259.41954 84.700708,258.93588 C 85.233978,258.30801 85.911808,257.83604 86.739528,257.52494 C 87.567598,257.211 88.511888,257.05545 89.575938,257.05545 C 90.481608,257.05545 91.284528,257.16069 91.984328,257.3747 C 92.684488,257.58588 93.265238,257.85553 93.723378,258.1886 C 94.181888,258.51919 94.542948,258.88061 94.804088,259.27498 C 95.068068,259.66651 95.267908,260.14167 95.404328,260.69726 C 95.540388,261.25569 95.607008,261.89454 95.607008,262.61419 L 95.607008,266.92002 z M 94.198538,265.34218 L 94.198538,262.79454 C 94.198538,262.00864 94.126258,261.38891 93.979208,260.94175 C 93.831808,260.49458 93.626298,260.13883 93.359488,259.87202 C 92.987438,259.49714 92.481808,259.20553 91.851098,258.99718 C 91.217908,258.78883 90.453618,258.68324 89.550788,258.68324 C 88.303538,258.68324 87.345078,258.88876 86.675748,259.2973 C 86.003578,259.70832 85.556058,260.20545 85.328228,260.79187 C 85.164528,261.21387 85.083738,261.89738 85.083738,262.83352 L 85.083738,265.34218 L 94.198538,265.34218 z"
       id="path2770"
       style="fill:#1f1a17;fill-rule:nonzero" />
    <path
       d="M 142.18165,239.6362 L 158.87559,239.6362 L 158.87559,295.45639 L 142.18165,295.45639 L 142.18165,239.6362 z M 175.77185,267.56419 L 165.23122,273.64946 L 165.23122,261.47962 L 175.77185,267.56419 z M 175.94547,267.58226 L 180.30834,267.58226 L 180.30834,281.84372 L 185.21547,281.84372 L 185.21547,287.3075 L 194.66901,287.3075 L 194.66901,281.86037 L 201.115,281.86037 M 185.23106,290.48939 L 194.6885,290.48939 M 189.9596,290.48939 L 189.9596,297.78257 M 158.87559,267.54612 L 165.28472,267.54612"
       id="path2772"
       style="fill:none;fill-rule:evenodd;stroke:#1f1a17;stroke-width:1.0629921" />
    <path
       d="M 156.49449,278.0375 L 144.56275,278.0375 L 144.56275,273.53714 C 144.56275,272.74521 144.60173,272.13966 144.67685,271.72297 C 144.77393,271.13691 144.96031,270.64509 145.23527,270.24789 C 145.5074,269.85352 145.89362,269.53391 146.38543,269.29226 C 146.87972,269.05061 147.42149,268.9312 148.01323,268.9312 C 149.02732,268.9312 149.88834,269.25328 150.59134,269.89781 C 151.29114,270.54517 151.64405,271.71198 151.64405,273.39824 L 151.64405,276.45966 L 156.49449,276.45966 L 156.49449,278.0375 z M 150.23559,276.45966 L 150.23559,273.37309 C 150.23559,272.35368 150.04673,271.62872 149.66618,271.20068 C 149.28563,270.77301 148.75201,270.55899 148.06319,270.55899 C 147.56323,270.55899 147.13519,270.68407 146.7798,270.93706 C 146.42405,271.1897 146.1909,271.52029 146.07681,271.93415 C 146.00736,272.20096 145.97122,272.68994 145.97122,273.40639 L 145.97122,276.45966 L 150.23559,276.45966 z M 156.49449,266.92002 L 144.56275,266.92002 L 144.56275,262.8112 C 144.56275,261.88356 144.62122,261.17525 144.73531,260.68628 C 144.89086,260.00277 145.17681,259.41954 145.58819,258.93588 C 146.12145,258.30801 146.79929,257.83604 147.62701,257.52494 C 148.45508,257.211 149.39937,257.05545 150.46342,257.05545 C 151.36909,257.05545 152.17201,257.16069 152.87181,257.3747 C 153.57197,257.58588 154.15271,257.85553 154.61086,258.1886 C 155.06937,258.51919 155.43043,258.88061 155.69157,259.27498 C 155.95555,259.66651 156.15539,260.14167 156.29181,260.69726 C 156.42787,261.25569 156.49449,261.89454 156.49449,262.61419 L 156.49449,266.92002 L 156.49449,266.92002 z M 155.08602,265.34218 L 155.08602,262.79454 C 155.08602,262.00864 155.01374,261.38891 154.86669,260.94175 C 154.71929,260.49458 154.51378,260.13883 154.24697,259.87202 C 153.87492,259.49714 153.36929,259.20553 152.73858,258.99718 C 152.10539,258.78883 151.3411,258.68324 150.43827,258.68324 C 149.19102,258.68324 148.23256,258.88876 147.56323,259.2973 C 146.89106,259.70832 146.44354,260.20545 146.21571,260.79187 C 146.05201,261.21387 145.97122,261.89738 145.97122,262.83352 L 145.97122,265.34218 L 155.08602,265.34218 z"
       id="path2774"
       style="fill:#1f1a17;fill-rule:nonzero" />
    <path
       d="M 203.06913,239.6362 L 219.76307,239.6362 L 219.76307,295.45639 L 203.06913,295.45639 L 203.06913,239.6362 z M 236.65933,267.56419 L 226.1187,273.64946 L 226.1187,261.47962 L 236.65933,267.56419 z M 236.83295,267.58226 L 241.19582,267.58226 L 241.19582,281.84372 L 246.10295,281.84372 L 246.10295,287.3075 L 255.55649,287.3075 L 255.55649,281.86037 L 262.00248,281.86037 M 246.11854,290.48939 L 255.57598,290.48939 M 250.84708,290.48939 L 250.84708,297.78257 M 219.76307,267.54612 L 226.1722,267.54612"
       id="path2776"
       style="fill:none;fill-rule:evenodd;stroke:#1f1a17;stroke-width:1.0629921" />
    <path
       d="M 217.38196,278.0375 L 205.45023,278.0375 L 205.45023,273.53714 C 205.45023,272.74521 205.48921,272.13966 205.56433,271.72297 C 205.66141,271.13691 205.84779,270.64509 206.12275,270.24789 C 206.39488,269.85352 206.7811,269.53391 207.27291,269.29226 C 207.7672,269.05061 208.30897,268.9312 208.9007,268.9312 C 209.9148,268.9312 210.77582,269.25328 211.47882,269.89781 C 212.17862,270.54517 212.53153,271.71198 212.53153,273.39824 L 212.53153,276.45966 L 217.38196,276.45966 L 217.38196,278.0375 z M 211.12307,276.45966 L 211.12307,273.37309 C 211.12307,272.35368 210.93421,271.62872 210.55366,271.20068 C 210.17311,270.77301 209.63948,270.55899 208.95067,270.55899 C 208.4507,270.55899 208.02267,270.68407 207.66728,270.93706 C 207.31153,271.1897 207.07838,271.52029 206.96429,271.93415 C 206.89484,272.20096 206.8587,272.68994 206.8587,273.40639 L 206.8587,276.45966 L 211.12307,276.45966 z M 217.38196,266.92002 L 205.45023,266.92002 L 205.45023,262.8112 C 205.45023,261.88356 205.5087,261.17525 205.62279,260.68628 C 205.77834,260.00277 206.06429,259.41954 206.47567,258.93588 C 207.00893,258.30801 207.68677,257.83604 208.51448,257.52494 C 209.34256,257.211 210.28685,257.05545 211.3509,257.05545 C 212.25657,257.05545 213.05948,257.16069 213.75929,257.3747 C 214.45944,257.58588 215.04019,257.85553 215.49834,258.1886 C 215.95685,258.51919 216.31791,258.88061 216.57905,259.27498 C 216.84303,259.66651 217.04287,260.14167 217.17929,260.69726 C 217.31535,261.25569 217.38196,261.89454 217.38196,262.61419 L 217.38196,266.92002 L 217.38196,266.92002 z M 215.9735,265.34218 L 215.9735,262.79454 C 215.9735,262.00864 215.90122,261.38891 215.75417,260.94175 C 215.60677,260.49458 215.40126,260.13883 215.13444,259.87202 C 214.7624,259.49714 214.25677,259.20553 213.62606,258.99718 C 212.99287,258.78883 212.22858,258.68324 211.32574,258.68324 C 210.0785,258.68324 209.12004,258.88876 208.4507,259.2973 C 207.77854,259.70832 207.33102,260.20545 207.10319,260.79187 C 206.93948,261.21387 206.8587,261.89738 206.8587,262.83352 L 206.8587,265.34218 L 215.9735,265.34218 z"
       id="path2778"
       style="fill:#1f1a17;fill-rule:nonzero" />
    <path
       d="M 263.95661,239.6362 L 280.65055,239.6362 L 280.65055,295.45639 L 263.95661,295.45639 L 263.95661,239.6362 z M 297.54681,267.56419 L 287.00618,273.64946 L 287.00618,261.47962 L 297.54681,267.56419 z M 297.72043,267.58226 L 302.0833,267.58226 L 302.0833,281.84372 L 306.99043,281.84372 L 306.99043,287.3075 L 316.44397,287.3075 L 316.44397,281.86037 L 322.88995,281.86037 M 307.00602,290.48939 L 316.46346,290.48939 M 311.73456,290.48939 L 311.73456,297.78257 M 280.65055,267.54612 L 287.05968,267.54612"
       id="path2780"
       style="fill:none;fill-rule:evenodd;stroke:#1f1a17;stroke-width:1.0629921" />
    <path
       d="M 278.26944,278.0375 L 266.33771,278.0375 L 266.33771,273.53714 C 266.33771,272.74521 266.37669,272.13966 266.45181,271.72297 C 266.54889,271.13691 266.73527,270.64509 267.01023,270.24789 C 267.28236,269.85352 267.66858,269.53391 268.16039,269.29226 C 268.65468,269.05061 269.19645,268.9312 269.78818,268.9312 C 270.80228,268.9312 271.6633,269.25328 272.36629,269.89781 C 273.0661,270.54517 273.41901,271.71198 273.41901,273.39824 L 273.41901,276.45966 L 278.26944,276.45966 L 278.26944,278.0375 z M 272.01055,276.45966 L 272.01055,273.37309 C 272.01055,272.35368 271.82169,271.62872 271.44114,271.20068 C 271.06059,270.77301 270.52696,270.55899 269.83814,270.55899 C 269.33818,270.55899 268.91015,270.68407 268.55476,270.93706 C 268.19901,271.1897 267.96586,271.52029 267.85177,271.93415 C 267.78232,272.20096 267.74618,272.68994 267.74618,273.40639 L 267.74618,276.45966 L 272.01055,276.45966 z M 278.26944,266.92002 L 266.33771,266.92002 L 266.33771,262.8112 C 266.33771,261.88356 266.39618,261.17525 266.51027,260.68628 C 266.66582,260.00277 266.95177,259.41954 267.36314,258.93588 C 267.89641,258.30801 268.57425,257.83604 269.40196,257.52494 C 270.23003,257.211 271.17433,257.05545 272.23838,257.05545 C 273.14405,257.05545 273.94696,257.16069 274.64677,257.3747 C 275.34692,257.58588 275.92767,257.85553 276.38582,258.1886 C 276.84433,258.51919 277.20539,258.88061 277.46653,259.27498 C 277.73051,259.66651 277.93035,260.14167 278.06677,260.69726 C 278.20283,261.25569 278.26944,261.89454 278.26944,262.61419 L 278.26944,266.92002 L 278.26944,266.92002 z M 276.86098,265.34218 L 276.86098,262.79454 C 276.86098,262.00864 276.7887,261.38891 276.64165,260.94175 C 276.49425,260.49458 276.28873,260.13883 276.02192,259.87202 C 275.64988,259.49714 275.14425,259.20553 274.51354,258.99718 C 273.88035,258.78883 273.11606,258.68324 272.21322,258.68324 C 270.96598,258.68324 270.00751,258.88876 269.33818,259.2973 C 268.66602,259.70832 268.2185,260.20545 267.99066,260.79187 C 267.82696,261.21387 267.74618,261.89738 267.74618,262.83352 L 267.74618,265.34218 L 276.86098,265.34218 z"
       id="path2782"
       style="fill:#1f1a17;fill-rule:nonzero" />
  </g>
</svg>
