<?xml version="1.0" encoding="UTF-8" standalone="no"?>
<!-- Created with Inkscape (http://www.inkscape.org/) -->
<svg
   xmlns:dc="http://purl.org/dc/elements/1.1/"
   xmlns:cc="http://creativecommons.org/ns#"
   xmlns:rdf="http://www.w3.org/1999/02/22-rdf-syntax-ns#"
   xmlns:svg="http://www.w3.org/2000/svg"
   xmlns="http://www.w3.org/2000/svg"
   xmlns:sodipodi="http://sodipodi.sourceforge.net/DTD/sodipodi-0.dtd"
   xmlns:inkscape="http://www.inkscape.org/namespaces/inkscape"
   width="2655.1821"
   height="1753.131"
   id="svg2"
   sodipodi:version="0.32"
   inkscape:version="0.46"
   sodipodi:docname="Helium neon laser spectrum.svg"
   inkscape:output_extension="org.inkscape.output.svg.inkscape"
   version="1.0">
  <defs
     id="defs4">
    <marker
       inkscape:stockid="Arrow2Mend"
       orient="auto"
       refY="0"
       refX="0"
       id="Arrow2Mend"
       style="overflow:visible">
      <path
         id="path3263"
         style="font-size:12px;fill-rule:evenodd;stroke-width:0.625;stroke-linejoin:round"
         d="M 8.7185878,4.0337352 L -2.2072895,0.016013256 L 8.7185884,-4.0017078 C 6.97309,-1.6296469 6.9831476,1.6157441 8.7185878,4.0337352 z"
         transform="scale(-0.6,-0.6)" />
    </marker>
  </defs>
  <sodipodi:namedview
     id="base"
     pagecolor="#ffffff"
     bordercolor="#666666"
     borderopacity="1.0"
     gridtolerance="10000"
     guidetolerance="10"
     objecttolerance="10"
     inkscape:pageopacity="0.0"
     inkscape:pageshadow="2"
     inkscape:zoom="0.24748737"
     inkscape:cx="1449.6345"
     inkscape:cy="819.61379"
     inkscape:document-units="px"
     inkscape:current-layer="g2455"
     showgrid="false"
     showguides="true"
     inkscape:guide-bbox="true"
     inkscape:window-width="1279"
     inkscape:window-height="949"
     inkscape:window-x="0"
     inkscape:window-y="25">
    <sodipodi:guide
       orientation="0,1"
       position="-712.85714,-1040"
       id="guide4590" />
    <sodipodi:guide
       orientation="1,0"
       position="-1008.5714,732.85714"
       id="guide4630" />
    <sodipodi:guide
       orientation="0,1"
       position="-674.28571,-968.57143"
       id="guide4640" />
    <sodipodi:guide
       orientation="1,0"
       position="-987.14286,-812.85714"
       id="guide4662" />
  </sodipodi:namedview>
  <metadata
     id="metadata7">
    <rdf:RDF>
      <cc:Work
         rdf:about="">
        <dc:format>image/svg+xml</dc:format>
        <dc:type
           rdf:resource="http://purl.org/dc/dcmitype/StillImage" />
      </cc:Work>
    </rdf:RDF>
  </metadata>
  <g
     inkscape:label="Layer 1"
     inkscape:groupmode="layer"
     id="layer1"
     transform="translate(1204.4888,-437.86218)">
    <g
       id="g2455"
       transform="translate(-908.57143,42.857143)">
      <path
         style="fill:#fd0909"
         d="M -59.621429,1921.0183 C -67.401583,1906.0674 -40.49139,1907.8639 -39.88866,1909.4346 C -39.44031,1910.6029 -36.15098,1910.8489 -21.88415,1910.781 C -12.28339,1910.7353 -4.19281,1910.317 -3.90509,1909.8514 C -3.04667,1908.4625 1.1612,1908.8918 2.5,1910.505 C 3.88249,1912.1708 7.06956,1912.5105 7.95001,1911.0859 C 8.26243,1910.5804 12.4818,1910.2077 17.32638,1910.2578 C 22.17096,1910.3078 26.61107,1910.0544 27.1933,1909.6946 C 28.15241,1909.1018 34.53431,1909.3369 37,1910.0559 C 37.55,1910.2163 40.07823,1910.0032 42.61829,1909.5824 C 46.12695,1909.0012 48.01071,1909.2177 50.45854,1910.4836 C 52.23063,1911.3999 54.4274,1911.8403 55.34026,1911.4621 C 59.46807,1909.752 63.97841,1909.1907 65.79205,1910.1613 C 67.1319,1910.8784 68.04593,1910.8591 68.80736,1910.0976 C 70.36398,1908.541 72.55581,1908.7455 74.6525,1910.643 C 76.02481,1911.8849 76.79087,1912.0085 77.8205,1911.154 C 78.5674,1910.5341 80.93834,1910.027 83.08925,1910.0272 C 85.24016,1910.0273 88.35,1909.9898 90,1909.9438 C 91.65,1909.8978 96.6,1909.8807 101,1909.906 C 105.4,1909.9312 110.35,1909.9509 112,1909.9498 C 113.65,1909.9486 115.9,1909.9874 117,1910.036 C 118.1,1910.0845 120.72544,1909.5628 122.83432,1908.8767 C 125.73617,1907.9326 127.11413,1907.9074 128.50051,1908.7732 C 129.50804,1909.4025 133.33717,1910.4405 137.00969,1911.0801 C 142.36441,1912.0126 144.17458,1911.9819 146.14857,1910.9255 C 147.99468,1909.9375 149.31353,1909.8736 151.4234,1910.67 C 152.98199,1911.2583 154.89097,1911.3657 155.70376,1910.9108 C 157.59338,1909.8534 161.38979,1909.8389 175.5,1910.8354 C 184.51854,1911.4723 187.4551,1911.3575 189.1091,1910.3036 C 190.2691,1909.5644 191.88818,1909.2167 192.70705,1909.531 C 193.52593,1909.8452 203.37684,1910.2935 214.59796,1910.5272 C 225.81908,1910.7608 235.89204,1910.984 236.98231,1911.0232 C 238.07259,1911.0623 240.0011,1910.5396 241.26789,1909.8616 C 243.04569,1908.9102 244.30451,1908.8938 246.78558,1909.79 C 248.55351,1910.4285 251.0149,1910.685 252.25533,1910.36 C 253.49576,1910.0349 255.16584,1910.3127 255.96662,1910.9773 C 257.06791,1911.8913 258.24253,1911.915 260.78838,1911.0748 C 262.63956,1910.4639 267.15704,1910.1318 270.82724,1910.3368 C 275.59035,1910.6029 277.82154,1910.3225 278.6226,1909.3573 C 279.98973,1907.71 283.68437,1907.5894 285.23636,1909.1414 C 286.54162,1910.4466 291.31089,1910.5795 300.713,1909.5726 C 304.93161,1909.1209 307.52704,1909.2397 307.93728,1909.9035 C 308.28943,1910.4733 309.90484,1910.674 311.52709,1910.3496 C 313.46105,1909.9628 315.37057,1910.3454 317.07288,1911.4608 C 319.3986,1912.9847 319.8438,1913.0038 321.34552,1911.6448 C 322.4827,1910.6157 324.73122,1910.199 328.33605,1910.3493 C 331.25883,1910.4713 333.84714,1910.2523 334.08786,1909.8628 C 334.64387,1908.9632 355.78276,1909.4437 357.31521,1910.3908 C 357.94411,1910.7795 359.40879,1910.589 360.57006,1909.9675 C 362.04508,1909.1781 363.48297,1909.1419 365.34073,1909.8473 C 366.80333,1910.4026 372.95,1910.7477 379,1910.6141 C 385.33607,1910.4742 390.73329,1910.8141 391.72948,1911.4158 C 393.01773,1912.1939 394.2083,1912.0178 396.39615,1910.7254 C 398.90662,1909.2424 400.07738,1909.1499 404.45457,1910.0887 C 407.7889,1910.8038 409.99872,1910.8477 410.7879,1910.2145 C 412.6513,1908.7195 419.70605,1908.1798 422.5,1909.3185 C 426.6615,1911.0146 444.34264,1911.4392 451,1910.0029 C 453.75,1909.4095 457.575,1909.2544 459.5,1909.6581 C 461.425,1910.0617 464.41737,1910.2749 466.14972,1910.1317 C 467.88207,1909.9886 469.59304,1910.3465 469.95187,1910.9271 C 470.38481,1911.6276 471.42518,1911.4449 473.04443,1910.3839 C 474.3865,1909.5046 476.19563,1909.058 477.06472,1909.3915 C 477.93381,1909.725 479.51229,1909.5336 480.57244,1908.9662 C 481.9382,1908.2353 483.15543,1908.2854 484.7488,1909.1382 C 486.87753,1910.2774 491.19377,1911.0307 494.5,1910.8399 C 495.325,1910.7923 503.65,1910.6943 513,1910.622 C 522.35,1910.5497 530.84711,1910.0853 531.88247,1909.59 C 533.08565,1909.0143 534.42417,1909.1011 535.59187,1909.8303 C 536.59668,1910.4578 538.67457,1910.7701 540.2094,1910.5243 C 541.74423,1910.2784 548.74103,1909.8604 555.75785,1909.5953 C 562.77467,1909.3302 568.96125,1908.838 569.5058,1908.5014 C 570.05035,1908.1649 571.82313,1908.6735 573.4453,1909.6318 C 575.8856,1911.0733 576.84517,1911.1688 579.0045,1910.1849 C 580.89775,1909.3223 582.16527,1909.2907 583.62107,1910.0698 C 585.08915,1910.8555 586.01734,1910.8205 587.07881,1909.9396 C 588.20179,1909.0076 590.16519,1908.9984 595.76488,1909.8989 C 599.7442,1910.5388 604.46138,1910.7685 606.24752,1910.4092 C 608.16977,1910.0226 610.05404,1910.2199 610.86484,1910.8928 C 611.90949,1911.7598 612.53984,1911.6619 613.52039,1910.4804 C 614.52674,1909.2679 616.35978,1909.0193 621.95548,1909.3366 C 629.05575,1909.7392 630.61993,1909.321 637.41009,1905.2053 C 639.31858,1904.0485 639.87452,1904.2257 642.46565,1906.8168 C 644.4786,1908.8298 645.69739,1909.4076 646.41551,1908.6895 C 647.12917,1907.9758 648.94733,1907.9698 652.22705,1908.6701 C 657.86605,1909.8743 666.6778,1909.5154 669.57774,1907.9634 C 671.18232,1907.1046 672.19342,1907.2293 674.17983,1908.5309 C 675.88765,1909.6499 677.75815,1909.9983 679.86278,1909.5895 C 687.28852,1908.1472 689.48967,1908.2081 691.72336,1909.918 C 694.8803,1912.3347 703.28851,1911.752 705.22864,1908.982 C 706.98705,1906.4715 709.01482,1906.4782 712.22713,1909.005 C 714.97041,1911.1629 718.00728,1911.6113 719,1910.005 C 719.9865,1908.4088 728.0881,1908.8038 729.5102,1910.5173 C 730.4354,1911.6321 731.1095,1911.744 732.0744,1910.9432 C 732.7944,1910.3457 735.4297,1909.7776 737.9307,1909.6809 C 740.5003,1909.5815 742.6865,1908.9614 742.9576,1908.255 C 743.5989,1906.5838 747.5423,1906.7221 749.8881,1908.4981 C 752.0352,1910.1235 755.0314,1909.0525 757.3067,1905.8463 C 759.0585,1903.3778 763.1507,1903.4838 764.515,1906.033 C 765.1119,1907.1484 766.0476,1907.7846 766.5941,1907.4468 C 767.1407,1907.109 768.6977,1907.5598 770.0542,1908.4485 C 771.6843,1909.5166 773.1102,1909.7741 774.2602,1909.2081 C 777.5444,1907.5915 782.1265,1907.9465 784.4955,1910.0011 C 787.2591,1912.3979 788.0981,1912.4948 788.8616,1910.505 C 789.1782,1909.68 790.3809,1909.005 791.5344,1909.005 C 792.6878,1909.005 794.5019,1908.5392 795.5657,1907.9698 C 796.8069,1907.3056 798.1322,1907.273 799.2642,1907.8788 C 800.47,1908.5241 801.6095,1908.3981 802.8639,1907.4809 C 804.2525,1906.4655 805.2765,1906.4017 807.0701,1907.2189 C 808.8233,1908.0177 809.8208,1907.9837 810.8996,1907.0883 C 812.0504,1906.1333 813.331,1906.2078 816.9642,1907.4413 C 819.4973,1908.3013 822.3682,1909.005 823.3438,1909.005 C 824.3195,1909.005 825.9557,1909.6177 826.9799,1910.3667 C 829.0595,1911.8873 832.2559,1911.3863 834.4497,1909.1959 C 835.552,1908.0953 837.5052,1907.883 842.5996,1908.3101 C 847.5119,1908.722 849.7935,1908.4978 851.1499,1907.4702 C 853.8413,1905.4312 858.2672,1905.6593 859.6724,1907.9095 C 860.7163,1909.581 861.1159,1909.6475 862.9387,1908.4532 C 864.081,1907.7048 867.0371,1906.9107 869.5078,1906.6886 C 871.9785,1906.4664 874.7675,1905.9563 875.7055,1905.5549 C 876.8504,1905.0651 878.1846,1905.5944 879.7642,1907.1651 C 881.5739,1908.9647 883.2902,1909.5272 887.1969,1909.601 C 892.0098,1909.6919 892.3602,1909.5213 893.8721,1906.351 C 895.7743,1902.362 898.7462,1901.9482 902.1988,1905.1918 C 903.9948,1906.879 904.7976,1907.1074 905.7132,1906.1918 C 907.3339,1904.5711 910.5058,1904.7003 912.4573,1906.4664 C 913.3454,1907.2701 916.0526,1908.1766 918.4731,1908.4807 C 920.8937,1908.7848 923.69,1909.7719 924.6871,1910.6743 C 926.3683,1912.1958 926.6342,1912.1935 928.348,1910.6425 C 929.9637,1909.1804 930.8507,1909.1212 935.4014,1910.1716 C 939.9933,1911.2315 940.9688,1911.1593 943.6783,1909.5587 C 945.3677,1908.5608 948.6497,1907.6905 950.9716,1907.6247 C 953.2936,1907.5588 955.9316,1906.8922 956.834,1906.1431 C 957.7543,1905.3791 959.2483,1905.0815 960.2373,1905.4653 C 961.2068,1905.8415 964.2105,1906.3382 966.9122,1906.569 C 969.6139,1906.7998 972.5744,1907.6673 973.4909,1908.4968 C 975.7435,1910.5353 983.8901,1910.4507 987.0876,1908.3557 C 989.4698,1906.7948 989.7608,1906.8217 992.5153,1908.8582 L 995.4259,1911.0101 L 998.4974,1908.0075 C 1002.2143,1904.3741 1002.9574,1904.3164 1005.8492,1907.4367 C 1007.3632,1909.0704 1008.5534,1909.5901 1009.4756,1909.0201 C 1010.2306,1908.5535 1012.8306,1908.1717 1015.2534,1908.1717 C 1018.0112,1908.1717 1020.367,1907.5303 1021.5536,1906.4565 C 1023.2477,1904.9233 1023.6901,1904.8977 1025.7244,1906.2146 C 1028.452,1907.9804 1035.5,1909.2513 1035.5,1907.9773 C 1035.5,1907.4812 1036.4302,1906.5776 1037.5671,1905.9691 C 1039.1401,1905.1273 1040.1558,1905.1932 1041.8171,1906.245 C 1043.2662,1907.1625 1046.0864,1907.5052 1050.2067,1907.2646 C 1054.7935,1906.9968 1057.0785,1907.338 1058.9617,1908.5719 C 1060.9742,1909.8905 1061.8142,1909.9891 1062.9566,1909.041 C 1064.084,1908.1053 1065.1728,1908.1188 1067.8925,1909.1023 C 1070.7147,1910.1228 1072.1307,1910.117 1075.2978,1909.0717 C 1077.5997,1908.312 1080.2001,1908.0968 1081.6069,1908.5496 C 1082.9231,1908.9732 1086.4524,1909.3128 1089.4498,1909.3043 C 1093.9005,1909.2917 1095.1603,1908.8961 1096.3218,1907.1469 C 1098.0597,1904.5295 1101.9215,1904.3587 1103.6933,1906.8209 C 1105.5985,1909.4684 1108.1548,1910.1259 1109.6305,1908.3478 C 1110.5302,1907.2637 1111.9357,1906.9763 1114.3904,1907.3746 C 1116.3061,1907.6855 1118.4497,1907.4617 1119.154,1906.8772 C 1120.0747,1906.1131 1121.7122,1906.3025 1124.9821,1907.5513 C 1129.2016,1909.1627 1129.6606,1909.1696 1131.3436,1907.6465 C 1133.8537,1905.3749 1135.7619,1905.5904 1138.447,1908.4486 C 1140.6024,1910.7429 1140.888,1910.7969 1143.1232,1909.3323 C 1144.6353,1908.3416 1146.5062,1908.0023 1148.2519,1908.4023 C 1152.4273,1909.3591 1157.5,1909.6208 1157.5,1908.8793 C 1157.5,1907.3693 1160.9379,1907.0619 1162.9658,1908.3906 C 1165.5179,1910.0628 1171.0531,1910.6708 1174.2122,1909.6259 C 1175.4638,1909.212 1177.3833,1909.4074 1178.6325,1910.0759 C 1180.56,1911.1075 1181.0836,1910.924 1182.7537,1908.6313 C 1185.1619,1905.3253 1187.9768,1905.2768 1190.092,1908.505 C 1191.9763,1911.3808 1196.5067,1911.9067 1198.5181,1909.4831 C 1199.2259,1908.6304 1201.1482,1908.034 1202.8906,1908.1267 C 1204.6008,1908.2177 1208.0976,1907.9574 1210.6613,1907.5483 C 1214.9768,1906.8597 1215.4502,1906.9993 1217.043,1909.4303 C 1218.9597,1912.3556 1221.3126,1912.1924 1224.5987,1908.9063 C 1226.8757,1906.6293 1227.5272,1906.5722 1230.0589,1908.4277 C 1232.3948,1910.1398 1237.0187,1909.4536 1240.3138,1906.9058 C 1241.5864,1905.9218 1243.2388,1905.3513 1243.9857,1905.6379 C 1244.7326,1905.9245 1246.2463,1905.676 1247.3494,1905.0856 C 1249.9613,1903.6877 1251.9579,1904.5197 1253.3561,1907.5886 C 1254.4357,1909.9581 1254.5867,1909.9943 1256.9426,1908.4506 C 1258.3921,1907.5009 1260.2434,1907.1062 1261.451,1907.4895 C 1262.578,1907.8471 1263.5,1907.7076 1263.5,1907.1794 C 1263.5,1905.3698 1266.2668,1905.1586 1270.6325,1906.6348 C 1273.0346,1907.447 1275.45,1908.678 1276,1909.3703 C 1277.7958,1911.6306 1280.4996,1911.9953 1284.7093,1910.5449 C 1287.4776,1909.5912 1289.4281,1909.4313 1290.6058,1910.0616 C 1291.9658,1910.7895 1292.5083,1910.5543 1292.9932,1909.0266 C 1293.3869,1907.7859 1295.1249,1906.6445 1297.6595,1905.9621 C 1301.0413,1905.0514 1301.994,1905.1421 1303.516,1906.5195 C 1304.9619,1907.828 1305.7636,1907.9343 1307.4358,1907.0394 C 1309.0498,1906.1756 1310.1721,1906.241 1312.269,1907.321 C 1313.771,1908.0947 1316.5733,1909.2428 1318.4962,1909.8724 C 1321.5534,1910.8734 1322.349,1910.7534 1324.8328,1908.9171 C 1326.5422,1907.6533 1328.4995,1907.0331 1329.7483,1907.3597 C 1330.8896,1907.6581 1332.6174,1907.4773 1333.588,1906.9579 C 1334.8694,1906.2721 1336.7133,1906.6969 1340.3215,1908.5093 C 1345.5608,1911.1408 1348.9722,1911.668 1350,1910.005 C 1350.3399,1909.455 1352.5614,1909.005 1354.9366,1909.005 C 1357.5553,1909.005 1359.7451,1908.4146 1360.5,1907.505 C 1362.1161,1905.5577 1365.9368,1905.5846 1367.9094,1907.5572 C 1370.1389,1909.7868 1377.4161,1909.9063 1378.6322,1907.7333 C 1379.1566,1906.7962 1380.4709,1905.5557 1381.5529,1904.9767 C 1383.1666,1904.113 1383.9706,1904.4097 1386.0258,1906.6274 C 1388.3562,1909.1419 1388.7902,1909.2515 1392.2325,1908.195 C 1395.1889,1907.2877 1396.3638,1907.3409 1398.0711,1908.4596 C 1400.1578,1909.8269 1401.9846,1909.6619 1409.2829,1907.4473 C 1410.8264,1906.9789 1412.198,1907.3267 1413.518,1908.5213 C 1415.375,1910.2018 1415.6911,1910.2037 1419.9946,1908.5602 C 1424.4277,1906.8672 1431.8153,1907.0881 1432.9648,1908.9481 C 1433.2263,1909.3711 1435.7977,1909.4906 1438.6791,1909.2138 C 1442.3366,1908.8623 1444.4204,1908.0899 1445.5826,1906.6547 C 1447.9339,1903.7509 1455.0571,1904.215 1458.5,1907.4962 C 1460.3469,1909.2564 1461.4329,1909.6347 1462.657,1908.9443 C 1464.3865,1907.9688 1479.0828,1908.375 1483.6139,1909.5236 C 1485.7512,1910.0653 1486.8579,1909.5374 1489.683,1906.6284 C 1492.6789,1903.5436 1493.737,1903.0828 1497.643,1903.1612 C 1503.057,1903.2698 1506.5,1902.3025 1506.5,1900.6728 C 1506.5,1900.0142 1507.4195,1897.7597 1508.5434,1895.6628 C 1510.0765,1892.8024 1510.8244,1888.6848 1511.5377,1879.1776 C 1513.208,1856.9145 1514.3564,1748.6943 1515.487,1507.005 C 1517.783,1016.1833 1518.5159,898.34839 1519.5111,860.00504 C 1520.075,838.28004 1520.8657,779.40615 1521.2682,729.17417 C 1521.9798,640.36511 1522.0536,637.80411 1523.9411,636.42417 C 1526.3735,634.64593 1527.0022,634.65011 1528.8086,636.45651 C 1530.0262,637.67405 1530.3576,646.65889 1530.8655,692.20651 C 1531.7211,768.94481 1533.3115,1069.2088 1534.5349,1385.005 C 1535.718,1690.4074 1537.1674,1875.4253 1538.5015,1891.3483 C 1539.0011,1897.3121 1539.9353,1902.8246 1540.5774,1903.5983 C 1541.2195,1904.372 1543.249,1905.005 1545.0873,1905.005 C 1547.4749,1905.005 1548.7555,1905.6138 1549.5703,1907.1364 C 1550.6008,1909.0618 1551.2797,1909.2084 1556.5946,1908.6529 C 1560.261,1908.2697 1563.4443,1908.4781 1565.0418,1909.206 C 1567.1375,1910.1609 1568.1307,1910.0636 1570.4845,1908.6732 C 1573.1995,1907.0694 1573.5719,1907.0716 1577.0109,1908.7116 C 1580.4651,1910.3588 1580.8169,1910.3597 1583.6601,1908.7279 C 1586.9854,1906.8194 1590.0676,1906.4963 1590.973,1907.9613 C 1591.2981,1908.4873 1592.1492,1908.6931 1592.8645,1908.4186 C 1593.5797,1908.1442 1595.9816,1908.3278 1598.202,1908.8267 C 1601.3376,1909.5312 1602.8237,1909.3792 1604.8562,1908.1459 C 1607.2664,1906.6835 1607.7072,1906.6962 1610.4328,1908.3062 C 1613.4245,1910.0735 1626.1821,1910.9375 1628.4638,1909.5274 C 1629.0495,1909.1654 1632.0197,1909.3863 1635.0641,1910.0183 C 1639.261,1910.8896 1640.9388,1910.8857 1642.0032,1910.0023 C 1642.9412,1909.2239 1645.8285,1909.0284 1650.7035,1909.4134 C 1654.7166,1909.7303 1659.1968,1910.0596 1660.6596,1910.1454 C 1662.1224,1910.2311 1665.1817,1909.3304 1667.4581,1908.1439 C 1671.6097,1905.9799 1674.7767,1906.335 1675.6871,1909.0664 C 1675.9375,1909.8176 1677.27,1909.7322 1680.0243,1908.7885 C 1683.1495,1907.7177 1684.8557,1907.6704 1688,1908.5674 C 1690.7301,1909.3463 1692.7035,1909.3921 1694.2158,1908.7118 C 1695.7161,1908.037 1698.235,1908.0773 1702.0166,1908.8368 C 1706.2284,1909.6826 1708.0628,1909.6705 1709.4768,1908.7874 C 1710.8029,1907.9592 1712.0322,1907.9149 1713.6759,1908.6358 C 1715.8553,1909.5917 1719.8342,1909.1601 1723.6727,1907.5514 C 1724.766,1907.0932 1726.1466,1907.6516 1727.6587,1909.1637 C 1730.1243,1911.6293 1732.9901,1911.7192 1735.5787,1909.4121 C 1737.6929,1907.5278 1740.4356,1907.6367 1742.7103,1909.6953 C 1744.3692,1911.1966 1745.552,1911.2643 1753.289,1910.3009 C 1758.5124,1909.6504 1762.6743,1909.5742 1763.6843,1910.1106 C 1766.0415,1911.3624 1773.2438,1911.2286 1774.0538,1909.9179 C 1774.4234,1909.32 1775.5745,1909.0527 1776.6119,1909.324 C 1777.6492,1909.5953 1778.7514,1909.4073 1779.0611,1908.9062 C 1779.3707,1908.4051 1781.5087,1908.0164 1783.8121,1908.0424 C 1786.1154,1908.0684 1789.0125,1908.0786 1790.25,1908.0652 C 1791.4875,1908.0517 1795.3125,1908.1654 1798.75,1908.3178 C 1802.6427,1908.4904 1805.7955,1908.098 1807.1091,1907.2773 C 1809.5968,1905.7231 1812.145,1906.4732 1813.5975,1909.1872 C 1814.4086,1910.7028 1814.9446,1910.8809 1816.0168,1909.9911 C 1816.7743,1909.3624 1818.4304,1908.973 1819.6971,1909.1258 C 1820.9637,1909.2786 1823.0125,1908.8481 1824.25,1908.1691 C 1826.0312,1907.1919 1826.9688,1907.1908 1828.75,1908.1642 C 1830.6412,1909.1978 1839.8476,1910.2633 1844.25,1909.9583 C 1844.9375,1909.9106 1847.1875,1909.9003 1849.25,1909.9354 C 1851.3125,1909.9704 1855.1036,1909.9886 1857.6747,1909.9757 C 1860.2458,1909.9628 1862.6348,1910.4142 1862.9837,1910.9787 C 1863.7977,1912.2957 1868.1904,1912.3149 1869,1911.005 C 1869.3399,1910.455 1871.1823,1910.005 1873.0942,1910.005 C 1875.0061,1910.005 1877.6795,1909.2782 1879.0352,1908.39 C 1881.3098,1906.8996 1881.6965,1906.9038 1884.0475,1908.4441 C 1885.9565,1909.695 1887.7113,1909.9459 1891.0493,1909.4453 C 1894.3363,1908.9524 1896.1447,1909.1974 1897.9497,1910.3801 C 1899.6208,1911.475 1900.608,1911.6392 1901.066,1910.8983 C 1901.437,1910.298 1903.3578,1910.0088 1905.3681,1910.2506 C 1907.4263,1910.4981 1909.8899,1910.1121 1911.0538,1909.3597 C 1912.4749,1908.4411 1914.0288,1908.2963 1916.098,1908.8897 C 1920.2064,1910.068 1944.4905,1909.2671 1947.1955,1907.8641 C 1948.9179,1906.9707 1950.103,1907.0626 1952.6955,1908.2905 C 1956.5004,1910.0926 1974.8813,1909.9417 1978.3604,1908.0797 C 1981.2275,1906.5453 1982.8917,1906.7387 1985.6775,1908.93 C 1987.3764,1910.2664 1988.5643,1910.5665 1989.5624,1909.9115 C 1990.3531,1909.3926 1992.575,1909.0366 1994.5,1909.1202 C 1996.425,1909.2039 1998.7897,1908.9383 1999.7548,1908.5299 C 2001.5355,1907.7764 2004.3965,1908.0717 2012.5,1909.8455 C 2014.975,1910.3873 2017.45,1910.4662 2018,1910.0209 C 2019.39,1908.8954 2032.3456,1908.9462 2033.0463,1910.0799 C 2033.3607,1910.5887 2035.9582,1911.005 2038.8185,1911.005 C 2042.9359,1911.005 2044.279,1910.5885 2045.2679,1909.005 C 2046.6726,1906.7557 2049.487,1906.392 2051.3181,1908.2231 C 2052.1582,1909.0632 2056.9526,1909.4511 2066.7681,1909.4731 C 2074.5957,1909.4907 2081.4715,1909.8128 2082.0477,1910.189 C 2082.624,1910.5652 2083.7278,1910.4822 2084.5007,1910.0046 C 2085.2735,1909.527 2087.1095,1909.3769 2088.5807,1909.6711 C 2090.0519,1909.9654 2092.2272,1909.6862 2093.4146,1909.0507 C 2095.1163,1908.14 2096.2242,1908.2198 2098.645,1909.4274 C 2100.8716,1910.5382 2102.2366,1910.6811 2103.6081,1909.9471 C 2104.9091,1909.2509 2106.1447,1909.2796 2107.5639,1910.0392 C 2108.9274,1910.7689 2110.0303,1910.8099 2110.8139,1910.16 C 2111.4663,1909.6189 2114.475,1909.3734 2117.5,1909.6144 C 2120.525,1909.8555 2123.675,1910.0958 2124.5,1910.1485 C 2125.325,1910.2012 2129.15,1910.0188 2133,1909.7431 C 2136.85,1909.4673 2140.8249,1909.6743 2141.8332,1910.2031 C 2143.156,1910.8968 2144.1523,1910.7246 2145.4119,1909.5847 C 2147.3994,1907.786 2151.0648,1907.4919 2152.03,1909.0536 C 2152.4771,1909.7769 2153.0939,1909.757 2154.0188,1908.9894 C 2155.005,1908.1709 2156.9705,1908.1937 2161.4523,1909.0754 C 2166.9288,1910.1528 2167.7456,1910.0927 2169.5266,1908.4809 C 2171.1609,1907.0019 2171.9455,1906.887 2174.0041,1907.8249 C 2175.3768,1908.4504 2176.5,1909.4373 2176.5,1910.018 C 2176.5,1910.697 2178.1953,1910.8551 2181.25,1910.4607 C 2183.8625,1910.1235 2187.9787,1910.3 2190.397,1910.853 C 2193.8922,1911.6523 2195.2628,1911.5513 2197.0799,1910.3607 C 2198.8087,1909.2279 2199.8537,1909.1239 2201.3672,1909.9339 C 2204.2004,1911.4502 2207.1759,1911.2635 2210.0352,1909.39 C 2212.2335,1907.9496 2212.7459,1907.9361 2214.7741,1909.265 C 2217.0707,1910.7698 2224.8918,1910.8534 2230.7557,1909.4358 C 2232.3412,1909.0526 2234.0923,1909.2516 2234.879,1909.9046 C 2235.6311,1910.5288 2236.9314,1910.7767 2237.7684,1910.4555 C 2238.6055,1910.1343 2241.1719,1910.3781 2243.4715,1910.9973 C 2246.6248,1911.8464 2247.9999,1911.835 2249.0654,1910.9507 C 2249.9395,1910.2253 2251.8312,1910.0322 2254.0275,1910.4442 C 2255.9798,1910.8104 2262.0677,1910.588 2267.5564,1909.9499 C 2275.1084,1909.0719 2277.8746,1909.071 2278.9288,1909.9459 C 2279.8833,1910.7381 2280.526,1910.772 2280.97,1910.0536 C 2281.8792,1908.5825 2285.7778,1908.7489 2288.9491,1910.3942 C 2290.9971,1911.4567 2292.2984,1911.5299 2294.4828,1910.7054 C 2296.3744,1909.9914 2298.071,1909.9542 2299.5076,1910.5952 C 2300.7666,1911.157 2305.0563,1911.2726 2309.7325,1910.8707 C 2314.1632,1910.4899 2318.3985,1910.4125 2319.1442,1910.6987 C 2319.9517,1911.0086 2320.5,1912.7353 2320.5,1914.9684 L 2320.5,1918.7178 L 2309.7562,1919.2661 C 2303.8472,1919.5677 2298.2495,1919.4061 2297.3169,1918.907 C 2296.3264,1918.3769 2295.3921,1918.3706 2295.07,1918.8918 C 2294.2719,1920.1831 2287.2957,1920.8772 2285.3107,1919.8629 C 2284.2954,1919.3441 2283.3741,1919.3997 2283.0017,1920.0023 C 2282.08,1921.4936 2279.3912,1921.2165 2277.4133,1919.4265 C 2275.8293,1917.993 2275.4497,1917.9918 2273.28,1919.4135 C 2271.2954,1920.7139 2270.35,1920.7747 2267.6955,1919.7727 C 2265.2203,1918.8384 2263.7909,1918.8342 2261.3543,1919.7539 C 2259.4462,1920.4741 2257.5938,1920.5973 2256.6461,1920.0669 C 2255.7867,1919.586 2252.7761,1919.4306 2249.9558,1919.7217 C 2247.0013,1920.0267 2243.9351,1919.7731 2242.7212,1919.1234 C 2241.1482,1918.2816 2239.9641,1918.2921 2238.0486,1919.1648 C 2236.0577,1920.0719 2234.9527,1920.0501 2233.1165,1919.0673 C 2231.4998,1918.2021 2230.1559,1918.1066 2228.875,1918.7658 C 2225.2513,1920.6308 2218.3602,1921.1417 2216.1234,1919.7112 C 2214.4638,1918.6499 2211.9248,1918.5358 2204.5,1919.1889 C 2199.275,1919.6485 2193.425,1919.7299 2191.5,1919.3699 C 2189.575,1919.0098 2180.8,1918.6231 2172,1918.5104 C 2158.9661,1918.3436 2155.6748,1918.5852 2154.2459,1919.814 C 2152.923,1920.9516 2151.9398,1921.0725 2150.2459,1920.3058 C 2148.7125,1919.6117 2147.2602,1919.6215 2145.6681,1920.3365 C 2143.9734,1921.0976 2142.7989,1921.0483 2141.3703,1920.1561 C 2140.2891,1919.4809 2137.0635,1918.9602 2134.2022,1918.9991 C 2129.6925,1919.0603 2126.7201,1919.2417 2116,1920.1097 C 2112.5441,1920.3895 2101.082,1919.291 2099.1825,1918.498 C 2098.1381,1918.062 2096.3304,1918.293 2094.9325,1919.0411 C 2092.9309,1920.1123 2092.0632,1920.1092 2090.0341,1919.0232 C 2088.0445,1917.9584 2087.2743,1917.9474 2086.0468,1918.9661 C 2085.2101,1919.6606 2083.7322,1919.9214 2082.7627,1919.5458 C 2079.1901,1918.1617 2072.4472,1917.2814 2071.9224,1918.1306 C 2071.1762,1919.338 2066.7585,1919.2323 2065.9899,1917.9887 C 2065.6445,1917.4297 2064.9229,1917.2437 2064.3864,1917.5752 C 2063.5604,1918.0857 2033.1714,1919.3929 2025.5,1919.2479 C 2020.1229,1919.1463 2010.818,1918.2796 2007.2338,1917.5466 C 2003.8964,1916.864 2003.2336,1917.074 2001.4113,1919.3907 C 1998.8679,1922.624 1997.1842,1922.6903 1994.7936,1919.6512 C 1993.2687,1917.7125 1992.5062,1917.4601 1990.471,1918.2201 C 1989.112,1918.7277 1986.6647,1918.9505 1985.0328,1918.7153 C 1982.7909,1918.3922 1981.612,1918.8643 1980.2102,1920.6463 C 1977.7325,1923.7962 1974.8539,1923.6244 1972.7353,1920.2003 C 1971.1515,1917.6405 1970.6944,1917.4725 1967.5,1918.2768 C 1961.3608,1919.8224 1957.0765,1919.7858 1954.2598,1918.1636 C 1952.1162,1916.929 1951.2562,1916.8488 1950.3098,1917.7952 C 1948.7859,1919.3191 1946.0163,1919.3444 1943.6331,1917.856 C 1942.3082,1917.0286 1940.953,1917 1938.7904,1917.7539 C 1936.9548,1918.3938 1935.2457,1918.4476 1934.3938,1917.8923 C 1933.6272,1917.3926 1931.425,1917.2226 1929.5,1917.5144 C 1927.575,1917.8063 1921.1222,1918.2278 1915.1604,1918.4511 C 1907.1405,1918.7515 1903.8685,1919.2665 1902.5817,1920.4311 C 1900.0467,1922.7252 1896.9284,1922.3593 1894.8334,1919.5217 L 1893,1917.0384 L 1888.8003,1919.1858 C 1885.1953,1921.0292 1884.3666,1921.1392 1882.9489,1919.9626 C 1881.258,1918.5593 1873.7971,1917.833 1872,1918.8968 C 1871.45,1919.2224 1869.4326,1920.038 1867.5169,1920.7092 C 1864.5857,1921.7362 1863.6477,1921.6766 1861.5969,1920.3328 C 1859.5781,1919.0101 1857.6877,1918.871 1850.58,1919.5223 C 1845.861,1919.9548 1840.65,1920.2594 1839,1920.1994 C 1837.35,1920.1393 1835.1,1920.0561 1834,1920.0145 C 1832.9,1919.973 1830.541,1919.5411 1828.7579,1919.0547 C 1826.9465,1918.5608 1825.2805,1918.5512 1824.9827,1919.0331 C 1824.6895,1919.5074 1821.4234,1919.684 1817.7248,1919.4254 C 1807.0584,1918.6797 1799.1463,1918.7086 1797.2333,1919.5005 C 1796.2616,1919.9027 1794.2414,1919.9976 1792.744,1919.7113 C 1791.2465,1919.425 1789.1988,1919.631 1788.1936,1920.169 C 1786.8769,1920.8736 1785.6777,1920.6962 1783.9047,1919.5345 C 1782.5121,1918.622 1780.9131,1918.2647 1780.2218,1918.7116 C 1779.5498,1919.146 1769.775,1919.5973 1758.5,1919.7147 C 1747.225,1919.832 1735.6792,1920.1554 1732.8428,1920.4334 C 1728.715,1920.8379 1727.1864,1920.5462 1725.185,1918.9719 C 1722.4163,1916.794 1719.9668,1916.4407 1718.9575,1918.0737 C 1718.5285,1918.768 1716.0994,1918.9071 1712.0251,1918.4708 C 1707.9059,1918.0297 1705.0003,1918.2021 1703.5595,1918.9731 C 1701.8071,1919.911 1700.898,1919.8405 1699.0394,1918.6228 C 1697.154,1917.3874 1696.1343,1917.3168 1693.6615,1918.2501 C 1691.2754,1919.1508 1690.0708,1919.1133 1688.1364,1918.078 C 1686.5552,1917.2318 1684.4608,1917.0101 1682.3314,1917.4636 C 1679.2104,1918.1283 1675.8296,1918.2336 1669.2366,1917.8712 C 1667.7167,1917.7877 1665.6563,1918.4586 1664.6578,1919.3622 C 1662.3309,1921.468 1659.651,1921.4517 1657.2925,1919.3172 C 1655.7267,1917.9002 1654.912,1917.8146 1652.2138,1918.784 C 1650.3839,1919.4414 1646.6317,1919.7002 1643.5,1919.3851 C 1640.475,1919.0807 1634.85,1918.9019 1631,1918.9878 C 1627.15,1919.0738 1623.325,1919.1523 1622.5,1919.1623 C 1618.0155,1919.2168 1610.1654,1918.0704 1609.3347,1917.2397 C 1608.4496,1916.3546 1601.9034,1917.9856 1599.0522,1919.8017 C 1598.4735,1920.1703 1595.8626,1920.5556 1593.2503,1920.6579 C 1589.4304,1920.8076 1588.2127,1920.4328 1587.0293,1918.7433 C 1585.6441,1916.7658 1585.449,1916.7412 1583.7002,1918.3238 C 1581.6691,1920.1619 1574.0229,1920.6601 1573.0095,1919.0203 C 1572.6747,1918.4787 1571.4107,1918.0482 1570.2004,1918.0635 C 1568.9902,1918.0788 1563.725,1917.8252 1558.5,1917.5 C 1553.275,1917.1747 1547.425,1916.9085 1545.5,1916.9083 C 1543.3693,1916.9081 1541.2175,1916.1405 1540,1914.9462 C 1538.9,1913.8672 1536.9803,1912.2015 1535.7341,1911.2447 C 1532.1857,1908.5204 1530.7042,1898.4675 1529.5669,1869.3956 C 1529.0051,1855.0354 1528.0534,1718.6854 1527.4521,1566.3956 C 1526.8509,1414.1058 1526.051,1258.005 1525.6747,1219.505 C 1525.0926,1159.9559 1524.8787,1181.0068 1524.2423,1360.505 C 1523.3057,1624.6333 1521.8246,1821.3774 1520.5085,1856.505 C 1519.4832,1883.8671 1518.1065,1897.2069 1516.0885,1899.3334 C 1515.477,1899.9778 1514.4094,1901.7857 1513.7161,1903.3509 C 1511.1738,1909.0904 1507.4126,1913.005 1504.4403,1913.005 C 1502.8881,1913.005 1501.3137,1913.4974 1500.9418,1914.0992 C 1500.5699,1914.701 1499.17,1914.9839 1497.8309,1914.7279 C 1496.088,1914.3947 1494.5806,1915.0782 1492.5251,1917.1338 C 1490.1361,1919.5227 1488.8216,1920.005 1484.6994,1920.005 C 1481.452,1920.005 1479.3033,1919.4729 1478.4631,1918.4605 C 1477.5947,1917.4141 1476.2842,1917.1131 1474.3993,1917.5271 C 1472.8692,1917.8632 1470.7241,1917.6601 1469.6323,1917.0758 C 1468.1146,1916.2636 1466.9237,1916.4245 1464.5737,1917.7592 C 1461.6454,1919.4224 1461.3524,1919.4212 1458.3796,1917.7324 C 1456.4083,1916.6126 1454.8433,1916.2964 1454.1296,1916.8739 C 1453.5083,1917.3766 1449.625,1917.8368 1445.5,1917.8965 C 1441.375,1917.9562 1436.65,1918.0783 1435,1918.1679 C 1433.35,1918.2574 1430.0359,1917.7762 1427.6354,1917.0984 C 1424.021,1916.078 1422.7587,1916.1142 1420.2915,1917.3091 C 1418.372,1918.2388 1416.1896,1918.5016 1414.1561,1918.0481 C 1410.3256,1917.1938 1391.6653,1919.4397 1390.17,1920.935 C 1388.3853,1922.7197 1384.7057,1922.1368 1383.0771,1919.8116 L 1381.5407,1917.6181 L 1379.2059,1919.8116 C 1376.3399,1922.504 1374.3375,1922.5879 1372.0947,1920.1097 C 1370.2645,1918.0873 1364.7542,1916.7847 1363.897,1918.1717 C 1363.1443,1919.3896 1359.7678,1919.1892 1357.5339,1917.7941 C 1355.9327,1916.7941 1354.8737,1916.9682 1351.453,1918.7941 C 1347.12,1921.107 1343.559,1921.6091 1341.95,1920.1341 C 1340.0024,1918.3487 1335.7526,1917.9957 1334.492,1919.5147 C 1332.89,1921.4449 1328.6036,1921.4386 1327.8616,1919.505 C 1327.2298,1917.8584 1324.5,1917.4238 1324.5,1918.9698 C 1324.5,1919.5005 1323.546,1920.4452 1322.3801,1921.0692 C 1320.6655,1921.9868 1319.7572,1921.8409 1317.6301,1920.3062 C 1315.0285,1918.4293 1310.9415,1918.4847 1306.2945,1920.4599 C 1305.1289,1920.9554 1303.7485,1920.3444 1301.9341,1918.53 L 1299.2792,1915.8752 L 1297.7661,1918.0355 C 1296.557,1919.7617 1295.6248,1920.0698 1293.1265,1919.5687 C 1291.4069,1919.2238 1288.875,1919.0451 1287.5,1919.1716 C 1279.0735,1919.9464 1274.4341,1919.2917 1271.974,1916.9805 L 1269.4593,1914.6181 L 1267.9229,1916.8116 C 1266.3453,1919.064 1262.1061,1919.7948 1261,1918.005 C 1259.9368,1916.2847 1258.4883,1916.9055 1257.5,1919.505 C 1256.4194,1922.3471 1252.5219,1922.9412 1250.5493,1920.5644 C 1249.8918,1919.7721 1248.739,1919.3598 1247.9876,1919.6481 C 1247.2362,1919.9365 1245.8327,1919.731 1244.8687,1919.1915 C 1243.6235,1918.4946 1242.4475,1918.6485 1240.808,1919.7228 C 1238.7425,1921.0762 1238.2494,1921.0708 1236.1148,1919.6722 C 1232.8647,1917.5426 1225.0105,1918.2514 1221.2777,1921.0112 C 1217.8172,1923.5697 1214.343,1923.2862 1213.0494,1920.3399 C 1211.6169,1917.077 1202.2406,1915.6326 1201.1384,1918.505 C 1200.8218,1919.33 1199.4175,1920.005 1198.0178,1920.005 C 1196.6181,1920.005 1194.5841,1920.5601 1193.4977,1921.2385 C 1191.8963,1922.2386 1190.9055,1922.1787 1188.2613,1920.9219 C 1184.9831,1919.3637 1169.8479,1919.1811 1155.3223,1920.5244 C 1150.3561,1920.9837 1149.4606,1920.7869 1148.1767,1918.9538 C 1147.3694,1917.8012 1146.4418,1917.2901 1146.1155,1917.8182 C 1145.7891,1918.3462 1143.8906,1919.0843 1141.8966,1919.4584 C 1138.9687,1920.0077 1137.8293,1919.7236 1135.9754,1917.9819 L 1133.6798,1915.8252 L 1131.5899,1917.9151 C 1128.7153,1920.7897 1122.1696,1920.7991 1120.1611,1917.9316 C 1119.2527,1916.6346 1118.4604,1916.2601 1118.0454,1916.9316 C 1117.6805,1917.522 1116.65,1918.005 1115.7554,1918.005 C 1114.8608,1918.005 1113.105,1918.9669 1111.8536,1920.1425 C 1109.7912,1922.08 1109.2705,1922.1582 1106.2891,1920.9778 C 1104.4801,1920.2616 1102.2896,1919.0747 1101.4213,1918.3403 C 1099.4191,1916.6468 1099.0217,1916.6636 1094.9092,1918.6151 C 1092.9075,1919.565 1090.7953,1919.9162 1089.7581,1919.4716 C 1088.7911,1919.0571 1086.7398,1918.8189 1085.1996,1918.9421 C 1083.6594,1919.0654 1081.79,1918.6606 1081.0453,1918.0426 C 1080.2196,1917.3573 1078.581,1917.2117 1076.8457,1917.6693 C 1075.2805,1918.082 1073.4041,1918.299 1072.6758,1918.1515 C 1071.9475,1918.004 1070.8225,1918.3009 1070.1758,1918.8114 C 1068.0037,1920.5259 1059.6037,1919.4511 1057.1485,1917.1445 C 1054.6708,1914.8168 1052.0108,1914.3696 1050.9408,1916.1008 C 1050.5165,1916.7874 1048.6847,1916.9599 1046.0359,1916.5627 C 1042.9947,1916.1066 1041.4798,1916.3245 1040.6378,1917.3389 C 1039.17,1919.1076 1025.4056,1919.0015 1023.2408,1917.2049 C 1022.0736,1916.2362 1021.2742,1916.3948 1019.2336,1917.9999 C 1016.474,1920.1706 1014.4463,1920.5255 1012.95,1919.0998 C 1010.7704,1917.023 991.3012,1917.8996 989.9185,1920.1368 C 989.0372,1921.5629 984.6635,1921.1197 983.7645,1919.5132 C 983.1064,1918.3372 982.2282,1918.2226 979.6158,1918.9718 C 976.9735,1919.7296 975.4254,1919.5101 971.9756,1917.8885 C 968.4746,1916.2429 967.2384,1916.0747 965.4964,1917.0069 C 964.3124,1917.6406 962.7183,1917.919 961.9539,1917.6257 C 961.1895,1917.3323 960.2981,1917.5227 959.973,1918.0487 C 959.0671,1919.5145 955.357,1919.1855 953.4628,1917.4713 C 951.9393,1916.0926 951.2748,1916.0977 946.8841,1917.5217 C 944.1978,1918.3929 940.9689,1919.6191 939.7086,1920.2465 C 937.887,1921.1534 936.8602,1921.0583 934.7006,1919.7826 C 932.3414,1918.389 931.7298,1918.3638 930.0509,1919.5914 C 927.4024,1921.5281 925.2274,1921.3651 922.2271,1919.005 C 919.5002,1916.86 916.0064,1916.3765 915,1918.005 C 914.6601,1918.555 913.692,1919.005 912.8487,1919.005 C 912.0054,1919.005 910.1713,1919.905 908.7729,1921.005 C 905.4129,1923.6479 905.1573,1923.5956 900.9695,1919.4078 C 897.633,1916.0714 897.2443,1915.9264 895.6074,1917.4078 C 893.662,1919.1684 889.8005,1919.4808 887.5539,1918.0595 C 886.6765,1917.5044 885.4241,1917.5105 884.3694,1918.0749 C 883.2518,1918.673 881.6255,1918.599 879.8155,1917.8675 C 874.7453,1915.8187 868.4276,1916.1951 865.4207,1918.7252 C 862.0877,1921.5297 859.3714,1921.6253 857.0146,1919.0212 C 855.058,1916.8591 851.1883,1917.1738 848.6616,1919.7005 C 847.2943,1921.0678 841.1782,1920.6232 839,1918.9982 C 838.45,1918.5879 837.1,1918.6149 836,1919.0583 C 832.6352,1920.4145 825.8416,1920.1215 824.5493,1918.5644 C 823.1521,1916.8809 820.5555,1917.6013 818.6933,1920.1891 C 816.771,1922.8605 813.0452,1922.4969 811.682,1919.505 C 810.3113,1916.4967 807.4487,1916.2562 805.7321,1919.005 C 805.0278,1920.1327 803.4,1921.005 802,1921.005 C 800.6,1921.005 798.9722,1920.1327 798.2679,1919.005 C 797.581,1917.905 796.3272,1917.005 795.4817,1917.005 C 794.6362,1917.005 793.1739,1917.905 792.232,1919.005 C 790.2525,1921.317 788.0008,1921.4885 784.5712,1919.5887 C 782.0427,1918.188 774.7918,1918.5295 773.05,1920.1313 C 771.5554,1921.5058 767.8679,1921.1532 766.5,1919.505 C 765.8153,1918.68 764.4653,1918.005 763.5,1918.005 C 762.5347,1918.005 761.213,1917.3641 760.563,1916.5809 C 759.5412,1915.3498 758.9048,1915.3557 755.8671,1916.625 C 753.9345,1917.4325 751.5022,1917.8231 750.462,1917.493 C 749.3082,1917.1267 747.3965,1917.761 745.5585,1919.1199 C 742.983,1921.024 742.1733,1921.1772 739.976,1920.176 C 736.315,1918.5079 735.5708,1918.6885 734.5,1921.505 C 733.7705,1923.4238 732.8344,1924.005 730.4737,1924.005 C 727.9038,1924.005 727.1575,1923.4294 725.9356,1920.505 C 724.4657,1916.9871 723.1469,1916.1493 722,1918.005 C 721.2728,1919.1816 714.87165,1919.2158 712,1918.0583 C 710.86051,1917.599 709.462,1917.6821 708.74959,1918.2514 C 708.0171,1918.8367 697.82172,1919.3477 684.13488,1919.4852 C 671.28452,1919.6142 660.23991,1920.0477 659.59132,1920.4486 C 658.94272,1920.8494 657.41934,1920.5376 656.20602,1919.7556 C 652.40458,1917.3054 649.85643,1917.1078 648.12588,1919.129 C 646.09293,1921.5033 645.37432,1921.4806 642.14451,1918.94 C 640.70065,1917.8043 639.0558,1917.1615 638.48929,1917.5116 C 637.92277,1917.8617 635.35128,1918.3546 632.77485,1918.6069 C 630.19843,1918.8592 627.35966,1919.727 626.46648,1920.5353 C 624.12843,1922.6512 621.91638,1922.3498 619.77147,1919.623 C 618.08691,1917.4814 617.70105,1917.3856 615.94889,1918.6733 C 614.877,1919.4611 612.65,1919.9983 611,1919.867 C 609.35,1919.7358 607.01322,1920.1652 605.80715,1920.8213 C 604.17538,1921.709 602.99237,1921.7308 601.18364,1920.9067 C 599.44526,1920.1147 598.1831,1920.1042 596.75202,1920.8701 C 595.33089,1921.6307 593.04845,1921.6314 588.87553,1920.8727 C 581.09998,1919.4588 571.5755,1919.0738 570.91251,1920.1466 C 570.09361,1921.4716 567.13421,1921.1681 563.57902,1919.3945 C 560.8102,1918.0133 559.27534,1917.944 552.79406,1918.908 C 547.31173,1919.7234 544.87481,1919.731 543.91666,1918.9358 C 543.14627,1918.2965 541.63847,1918.1551 540.29799,1918.5965 C 539.03409,1919.0127 533.5,1919.4849 528,1919.6459 C 522.5,1919.8068 516.425,1920.1221 514.5,1920.3466 C 512.575,1920.571 510.26408,1920.3728 509.36462,1919.906 C 506.68805,1918.517 499.31604,1917.9128 498.03342,1918.9773 C 497.37832,1919.5209 493.72781,1919.8371 489.92117,1919.6799 C 485.32672,1919.4901 482.26615,1919.8568 480.81706,1920.7706 C 479.11014,1921.847 478.16082,1921.8938 476.46372,1920.9856 C 474.65228,1920.0161 462.5501,1918.861 455,1918.937 C 453.9,1918.948 448.275,1918.919 442.5,1918.8725 C 431.1342,1918.7809 431.06833,1918.7829 421.59112,1919.5007 C 418.00112,1919.7727 414.65073,1919.5451 413.9738,1918.9833 C 413.13858,1918.2901 412.37772,1918.4474 411.51023,1919.4927 C 409.86019,1921.4809 406.61075,1921.4152 404.32598,1919.3475 C 402.61968,1917.8033 402.0988,1917.8098 396.70663,1919.4424 C 392.09001,1920.8402 390.11757,1920.9827 386.95939,1920.1464 C 384.78173,1919.5698 381.28751,1919.2414 379.19446,1919.4166 C 377.10142,1919.5919 372.52413,1919.4387 369.02272,1919.0763 C 364.52427,1918.6107 362.14356,1918.7925 360.90816,1919.6958 C 359.06345,1921.0447 351.81583,1920.4982 350.05,1918.8771 C 348.55277,1917.5026 345.77027,1917.8583 345.13837,1919.505 C 344.4255,1921.3627 340.1346,1921.4746 338.64056,1919.6744 C 337.36813,1918.1412 325.67085,1918.4342 324.06559,1920.0394 C 322.64526,1921.4597 317.16855,1921.2143 315.00662,1919.6335 C 312.89147,1918.0869 294.903,1918.4257 292.94703,1920.049 C 292.30142,1920.5848 289.62627,1920.6008 286.42616,1920.0881 C 283.44177,1919.61 278.75,1919.5698 276,1919.9989 C 272.28932,1920.5778 270.25287,1920.3951 268.1026,1919.2901 C 265.43349,1917.9185 264.82379,1917.9798 260.36422,1920.0686 C 255.97146,1922.1261 255.36012,1922.1931 253.76161,1920.7923 C 250.9042,1918.2884 245.51199,1917.993 243.28647,1920.2185 C 242.23516,1921.2698 240.84063,1921.9079 240.1875,1921.6365 C 239.53437,1921.365 236.62112,1920.3495 233.71359,1919.3799 C 228.6749,1917.6994 228.28821,1917.6989 225.46154,1919.3686 C 223.83043,1920.3322 222.00391,1920.8164 221.40259,1920.4448 C 220.80128,1920.0732 219.22558,1920.3491 217.90103,1921.058 C 215.79445,1922.1854 215.21136,1922.0847 213.24638,1920.2542 C 211.17254,1918.3224 210.19354,1918.2043 200.5,1918.7164 C 189.35874,1919.3051 171.32642,1919.5162 165.5,1919.1263 C 163.575,1918.9974 157.275,1919.1301 151.5,1919.421 C 141.28868,1919.9355 128.84664,1918.7334 127.17149,1917.0705 C 126.71582,1916.6181 124.24288,1916.88 121.67608,1917.6525 C 119.10927,1918.425 115.4321,1919.0559 113.50458,1919.0545 C 111.57706,1919.0531 106.06863,1919.2333 101.26363,1919.455 C 96.45862,1919.6767 92.33066,1919.54 92.09038,1919.1512 C 91.63557,1918.4153 83.7411,1918.6871 77.23623,1919.6626 C 75.16615,1919.973 72.91488,1919.7643 72.23339,1919.1987 C 71.36832,1918.4807 70.42505,1918.5866 69.10824,1919.5495 C 67.8488,1920.4704 65.81699,1920.7361 62.99293,1920.349 C 60.35496,1919.9874 58.50377,1920.1899 58.07284,1920.8871 C 56.86944,1922.8343 52.39973,1922.0984 49.23008,1919.4313 C 47.17027,1917.6981 45.49033,1917.0526 44.08572,1917.4547 C 40.06369,1918.606 26.92823,1919.6791 19.5,1919.4632 C 15.375,1919.3433 11.44243,1919.6922 10.76096,1920.2385 C 10.07949,1920.7847 7.97462,1920.9414 6.08347,1920.5866 C 4.19231,1920.2319 -3.03176,1919.7456 -9.97004,1919.506 C -16.90831,1919.2665 -22.94964,1918.8451 -23.39521,1918.5698 C -23.84078,1918.2944 -27.57797,1918.4473 -31.70008,1918.9096 C -35.98856,1919.3905 -41.68185,1919.3601 -45.00831,1918.8384 C -48.88843,1918.23 -51.16736,1918.2724 -51.8609,1918.9659 C -52.4324,1919.5374 -54.16,1920.005 -55.7,1920.005 L -58.5,1920.005 C -59.725546,1910.4614 -60.616331,1910.4467 -59.621429,1921.0183 z"
         id="path2459"
         sodipodi:nodetypes="cssssssssssssssssssssssssssssssssssssssssssssssssssssssssssssssssssssssssssssssssssssssssssssssssssssssssssssssssssssssssssssssssssssssscccssssssssssssssssssssssssssssssssssssssssssssssssssssssssssssssssssssssssssssssssssssssscsssssssssssssssssssssssssssssssssssssssssssssssssssssssssssssssssssssssssssssssssssssssssssssssssssssssssssssssscccssssssssssssssssssssssssssssssssssssssssssssssssscccsssssssssssssssssssssssssssssssssssssssssssscscsssssssssssssssssssscccssssssssssscccsscccssssssssssssssssscccssssssssssssssssssssssssssssssssssssssssssssssssssssssssssssssssssssssssssssssssssssssssssssssssssssssssssssssssssssssssssssssssssssssssssssssssssssccc" />
      <text
         xml:space="preserve"
         style="font-size:40px;font-style:normal;font-weight:normal;fill:#000000;fill-opacity:1;stroke:none;stroke-width:1px;stroke-linecap:butt;stroke-linejoin:miter;stroke-opacity:1;font-family:Bitstream Vera Sans"
         x="856.04352"
         y="508.46939"
         id="text4534"><tspan
           sodipodi:role="line"
           id="tspan4536"
           x="856.04352"
           y="508.46939"
           style="font-size:48px;font-style:normal;font-variant:normal;font-weight:normal;font-stretch:normal;font-family:Arial;-inkscape-font-specification:Arial">632.8 nm</tspan></text>
      <path
         style="fill:none;fill-rule:evenodd;stroke:#000000;stroke-width:8;stroke-linecap:butt;stroke-linejoin:miter;marker-end:url(#Arrow2Mend);stroke-miterlimit:4;stroke-dasharray:none;stroke-opacity:1"
         d="M 131.31983,569.50927 L 581.84787,674.56513"
         id="path2461"
         transform="translate(908.57143,-42.857143)" />
      <text
         xml:space="preserve"
         style="font-size:48px;font-style:normal;font-variant:normal;font-weight:normal;font-stretch:normal;fill:#000000;fill-opacity:1;stroke:none;stroke-width:1px;stroke-linecap:butt;stroke-linejoin:miter;stroke-opacity:1;font-family:Arial;-inkscape-font-specification:Arial"
         x="-1443.4771"
         y="-260.97208"
         id="text4538"
         transform="matrix(0,-1,1,0,0,0)"><tspan
           sodipodi:role="line"
           id="tspan4540"
           x="-1443.4771"
           y="-260.97208">Intensity (counts)</tspan></text>
      <text
         xml:space="preserve"
         style="font-size:48px;font-style:normal;font-variant:normal;font-weight:normal;font-stretch:normal;fill:#000000;fill-opacity:1;stroke:none;stroke-width:1px;stroke-linecap:butt;stroke-linejoin:miter;stroke-opacity:1;font-family:Arial;-inkscape-font-specification:Arial"
         x="893.50116"
         y="2138.0344"
         id="text4542"><tspan
           sodipodi:role="line"
           id="tspan4544"
           x="893.50116"
           y="2138.0344">Wavelength (nanometers)</tspan></text>
      <text
         xml:space="preserve"
         style="font-size:48px;font-style:normal;font-variant:normal;font-weight:normal;font-stretch:normal;fill:#000000;fill-opacity:1;stroke:none;stroke-width:1px;stroke-linecap:butt;stroke-linejoin:miter;stroke-opacity:1;font-family:Arial;-inkscape-font-specification:Arial"
         x="-99.999992"
         y="2049.5051"
         id="text4546"><tspan
           sodipodi:role="line"
           id="tspan4548"
           x="-99.999992"
           y="2049.5051">300</tspan></text>
      <text
         xml:space="preserve"
         style="font-size:48px;font-style:normal;font-variant:normal;font-weight:normal;font-stretch:normal;fill:#000000;fill-opacity:1;stroke:none;stroke-width:1px;stroke-linecap:butt;stroke-linejoin:miter;stroke-opacity:1;font-family:Arial;-inkscape-font-specification:Arial"
         x="138.57141"
         y="2049.5051"
         id="text4550"><tspan
           sodipodi:role="line"
           id="tspan4552"
           x="138.57141"
           y="2049.5051">350</tspan></text>
      <text
         xml:space="preserve"
         style="font-size:48px;font-style:normal;font-variant:normal;font-weight:normal;font-stretch:normal;fill:#000000;fill-opacity:1;stroke:none;stroke-width:1px;stroke-linecap:butt;stroke-linejoin:miter;stroke-opacity:1;font-family:Arial;-inkscape-font-specification:Arial"
         x="377.14288"
         y="2049.5051"
         id="text4554"><tspan
           sodipodi:role="line"
           id="tspan4556"
           x="377.14288"
           y="2049.5051">400</tspan></text>
      <text
         xml:space="preserve"
         style="font-size:48px;font-style:normal;font-variant:normal;font-weight:normal;font-stretch:normal;fill:#000000;fill-opacity:1;stroke:none;stroke-width:1px;stroke-linecap:butt;stroke-linejoin:miter;stroke-opacity:1;font-family:Arial;-inkscape-font-specification:Arial"
         x="614.28571"
         y="2049.5051"
         id="text4558"><tspan
           sodipodi:role="line"
           id="tspan4560"
           x="614.28571"
           y="2049.5051">450</tspan></text>
      <text
         xml:space="preserve"
         style="font-size:48px;font-style:normal;font-variant:normal;font-weight:normal;font-stretch:normal;fill:#000000;fill-opacity:1;stroke:none;stroke-width:1px;stroke-linecap:butt;stroke-linejoin:miter;stroke-opacity:1;font-family:Arial;-inkscape-font-specification:Arial"
         x="851.42859"
         y="2049.5051"
         id="text4562"><tspan
           sodipodi:role="line"
           id="tspan4564"
           x="851.42859"
           y="2049.5051">500</tspan></text>
      <text
         xml:space="preserve"
         style="font-size:48px;font-style:normal;font-variant:normal;font-weight:normal;font-stretch:normal;fill:#000000;fill-opacity:1;stroke:none;stroke-width:1px;stroke-linecap:butt;stroke-linejoin:miter;stroke-opacity:1;font-family:Arial;-inkscape-font-specification:Arial"
         x="1090"
         y="2049.5051"
         id="text4566"><tspan
           sodipodi:role="line"
           id="tspan4568"
           x="1090"
           y="2049.5051">550</tspan></text>
      <text
         xml:space="preserve"
         style="font-size:48px;font-style:normal;font-variant:normal;font-weight:normal;font-stretch:normal;fill:#000000;fill-opacity:1;stroke:none;stroke-width:1px;stroke-linecap:butt;stroke-linejoin:miter;stroke-opacity:1;font-family:Arial;-inkscape-font-specification:Arial"
         x="1327.1428"
         y="2049.5051"
         id="text4570"><tspan
           sodipodi:role="line"
           id="tspan4572"
           x="1327.1428"
           y="2049.5051">600</tspan></text>
      <text
         xml:space="preserve"
         style="font-size:48px;font-style:normal;font-variant:normal;font-weight:normal;font-stretch:normal;fill:#000000;fill-opacity:1;stroke:none;stroke-width:1px;stroke-linecap:butt;stroke-linejoin:miter;stroke-opacity:1;font-family:Arial;-inkscape-font-specification:Arial"
         x="1565.7144"
         y="2049.5051"
         id="text4574"><tspan
           sodipodi:role="line"
           id="tspan4576"
           x="1565.7144"
           y="2049.5051">650</tspan></text>
      <text
         xml:space="preserve"
         style="font-size:48px;font-style:normal;font-variant:normal;font-weight:normal;font-stretch:normal;fill:#000000;fill-opacity:1;stroke:none;stroke-width:1px;stroke-linecap:butt;stroke-linejoin:miter;stroke-opacity:1;font-family:Arial;-inkscape-font-specification:Arial"
         x="1804.2858"
         y="2049.5051"
         id="text4578"><tspan
           sodipodi:role="line"
           id="tspan4580"
           x="1804.2858"
           y="2049.5051">700</tspan></text>
      <text
         xml:space="preserve"
         style="font-size:48px;font-style:normal;font-variant:normal;font-weight:normal;font-stretch:normal;fill:#000000;fill-opacity:1;stroke:none;stroke-width:1px;stroke-linecap:butt;stroke-linejoin:miter;stroke-opacity:1;font-family:Arial;-inkscape-font-specification:Arial"
         x="2041.4287"
         y="2049.5051"
         id="text4582"><tspan
           sodipodi:role="line"
           id="tspan4584"
           x="2041.4287"
           y="2049.5051">750</tspan></text>
      <text
         xml:space="preserve"
         style="font-size:48px;font-style:normal;font-variant:normal;font-weight:normal;font-stretch:normal;fill:#000000;fill-opacity:1;stroke:none;stroke-width:1px;stroke-linecap:butt;stroke-linejoin:miter;stroke-opacity:1;font-family:Arial;-inkscape-font-specification:Arial"
         x="2281.4287"
         y="2049.5051"
         id="text4586"><tspan
           sodipodi:role="line"
           id="tspan4588"
           x="2281.4287"
           y="2049.5051">800</tspan></text>
      <text
         xml:space="preserve"
         style="font-size:48px;font-style:normal;font-variant:normal;font-weight:normal;font-stretch:normal;fill:#000000;fill-opacity:1;stroke:none;stroke-width:1px;stroke-linecap:butt;stroke-linejoin:miter;stroke-opacity:1;font-family:Arial;-inkscape-font-specification:Arial"
         x="-127.14293"
         y="1976.6478"
         id="text4592"><tspan
           sodipodi:role="line"
           id="tspan4594"
           x="-127.14293"
           y="1976.6478">0</tspan></text>
      <text
         xml:space="preserve"
         style="font-size:48px;font-style:normal;font-variant:normal;font-weight:normal;font-stretch:normal;fill:#000000;fill-opacity:1;stroke:none;stroke-width:1px;stroke-linecap:butt;stroke-linejoin:miter;stroke-opacity:1;font-family:Arial;-inkscape-font-specification:Arial"
         x="-178.57144"
         y="1783.7908"
         id="text4596"><tspan
           sodipodi:role="line"
           id="tspan4598"
           x="-178.57144"
           y="1783.7908">500</tspan></text>
      <text
         xml:space="preserve"
         style="font-size:48px;font-style:normal;font-variant:normal;font-weight:normal;font-stretch:normal;fill:#000000;fill-opacity:1;stroke:none;stroke-width:1px;stroke-linecap:butt;stroke-linejoin:miter;stroke-opacity:1;font-family:Arial;-inkscape-font-specification:Arial"
         x="-205.71428"
         y="1589.5051"
         id="text4600"><tspan
           sodipodi:role="line"
           id="tspan4602"
           x="-205.71428"
           y="1589.5051">1000</tspan></text>
      <text
         xml:space="preserve"
         style="font-size:48px;font-style:normal;font-variant:normal;font-weight:normal;font-stretch:normal;fill:#000000;fill-opacity:1;stroke:none;stroke-width:1px;stroke-linecap:butt;stroke-linejoin:miter;stroke-opacity:1;font-family:Arial;-inkscape-font-specification:Arial"
         x="-205.71436"
         y="1395.2194"
         id="text4604"><tspan
           sodipodi:role="line"
           id="tspan4606"
           x="-205.71436"
           y="1395.2194">1500</tspan></text>
      <text
         xml:space="preserve"
         style="font-size:48px;font-style:normal;font-variant:normal;font-weight:normal;font-stretch:normal;fill:#000000;fill-opacity:1;stroke:none;stroke-width:1px;stroke-linecap:butt;stroke-linejoin:miter;stroke-opacity:1;font-family:Arial;-inkscape-font-specification:Arial"
         x="-204.2858"
         y="1202.3623"
         id="text4608"><tspan
           sodipodi:role="line"
           id="tspan4610"
           x="-204.2858"
           y="1202.3623">2000</tspan></text>
      <text
         xml:space="preserve"
         style="font-size:48px;font-style:normal;font-variant:normal;font-weight:normal;font-stretch:normal;fill:#000000;fill-opacity:1;stroke:none;stroke-width:1px;stroke-linecap:butt;stroke-linejoin:miter;stroke-opacity:1;font-family:Arial;-inkscape-font-specification:Arial"
         x="-204.28563"
         y="1008.0765"
         id="text4612"><tspan
           sodipodi:role="line"
           id="tspan4614"
           x="-204.28563"
           y="1008.0765">2500</tspan></text>
      <text
         xml:space="preserve"
         style="font-size:48px;font-style:normal;font-variant:normal;font-weight:normal;font-stretch:normal;fill:#000000;fill-opacity:1;stroke:none;stroke-width:1px;stroke-linecap:butt;stroke-linejoin:miter;stroke-opacity:1;font-family:Arial;-inkscape-font-specification:Arial"
         x="-207.14293"
         y="815.21936"
         id="text4616"><tspan
           sodipodi:role="line"
           id="tspan4618"
           x="-207.14293"
           y="815.21936">3000</tspan></text>
      <text
         xml:space="preserve"
         style="font-size:48px;font-style:normal;font-variant:normal;font-weight:normal;font-stretch:normal;fill:#000000;fill-opacity:1;stroke:none;stroke-width:1px;stroke-linecap:butt;stroke-linejoin:miter;stroke-opacity:1;font-family:Arial;-inkscape-font-specification:Arial"
         x="-204.28563"
         y="622.36218"
         id="text4620"><tspan
           sodipodi:role="line"
           id="tspan4622"
           x="-204.28563"
           y="622.36218">3500</tspan></text>
      <text
         xml:space="preserve"
         style="font-size:48px;font-style:normal;font-variant:normal;font-weight:normal;font-stretch:normal;fill:#000000;fill-opacity:1;stroke:none;stroke-width:1px;stroke-linecap:butt;stroke-linejoin:miter;stroke-opacity:1;font-family:Arial;-inkscape-font-specification:Arial"
         x="-205.71436"
         y="429.50504"
         id="text4624"><tspan
           sodipodi:role="line"
           id="tspan4626"
           x="-205.71436"
           y="429.50504">4000</tspan></text>
      <path
         style="fill:#000000;fill-rule:evenodd;stroke:#000000;stroke-width:5;stroke-linecap:butt;stroke-linejoin:miter;stroke-miterlimit:4;stroke-dasharray:none;stroke-opacity:1"
         d="M -59.999997,409.50505 L -59.999997,1978.0765"
         id="path4632"
         sodipodi:nodetypes="cc" />
      <path
         style="fill:#000000;fill-rule:evenodd;stroke:#000000;stroke-width:5;stroke-linecap:butt;stroke-linejoin:miter;stroke-miterlimit:4;stroke-dasharray:none;stroke-opacity:1"
         d="M 2322.0636,1959.5051 L -76.428583,1959.5051"
         id="path4634"
         sodipodi:nodetypes="cc" />
      <path
         style="fill:#000000;fill-rule:evenodd;stroke:#000000;stroke-width:5;stroke-linecap:butt;stroke-linejoin:miter;stroke-miterlimit:4;stroke-dasharray:none;stroke-opacity:1"
         d="M 177.85715,1959.5052 L 177.85715,1978.0765"
         id="path4636"
         sodipodi:nodetypes="cc" />
      <path
         style="fill:#000000;fill-rule:evenodd;stroke:#000000;stroke-width:5;stroke-linecap:butt;stroke-linejoin:miter;stroke-miterlimit:4;stroke-dasharray:none;stroke-opacity:1"
         d="M 415.71429,1959.5052 L 415.71429,1978.0765"
         id="path4642"
         sodipodi:nodetypes="cc" />
      <path
         style="fill:#000000;fill-rule:evenodd;stroke:#000000;stroke-width:5;stroke-linecap:butt;stroke-linejoin:miter;stroke-miterlimit:4;stroke-dasharray:none;stroke-opacity:1"
         d="M 653.57143,1959.5052 L 653.57143,1978.0765"
         id="path4644"
         sodipodi:nodetypes="cc" />
      <path
         style="fill:#000000;fill-rule:evenodd;stroke:#000000;stroke-width:5;stroke-linecap:butt;stroke-linejoin:miter;stroke-miterlimit:4;stroke-dasharray:none;stroke-opacity:1"
         d="M 889.28572,1959.5052 L 889.28572,1978.0765"
         id="path4646"
         sodipodi:nodetypes="cc" />
      <path
         style="fill:#000000;fill-rule:evenodd;stroke:#000000;stroke-width:5;stroke-linecap:butt;stroke-linejoin:miter;stroke-miterlimit:4;stroke-dasharray:none;stroke-opacity:1"
         d="M 1130,1959.5052 L 1130,1978.0765"
         id="path4648"
         sodipodi:nodetypes="cc" />
      <path
         style="fill:#000000;fill-rule:evenodd;stroke:#000000;stroke-width:5;stroke-linecap:butt;stroke-linejoin:miter;stroke-miterlimit:4;stroke-dasharray:none;stroke-opacity:1"
         d="M 1367.1428,1959.5052 L 1367.1428,1978.0765"
         id="path4650"
         sodipodi:nodetypes="cc" />
      <path
         style="fill:#000000;fill-rule:evenodd;stroke:#000000;stroke-width:5;stroke-linecap:butt;stroke-linejoin:miter;stroke-miterlimit:4;stroke-dasharray:none;stroke-opacity:1"
         d="M 1605.7142,1959.5052 L 1605.7142,1978.0765"
         id="path4652"
         sodipodi:nodetypes="cc" />
      <path
         style="fill:#000000;fill-rule:evenodd;stroke:#000000;stroke-width:5;stroke-linecap:butt;stroke-linejoin:miter;stroke-miterlimit:4;stroke-dasharray:none;stroke-opacity:1"
         d="M 1843.5715,1959.5052 L 1843.5715,1978.0765"
         id="path4654"
         sodipodi:nodetypes="cc" />
      <path
         style="fill:#000000;fill-rule:evenodd;stroke:#000000;stroke-width:5;stroke-linecap:butt;stroke-linejoin:miter;stroke-miterlimit:4;stroke-dasharray:none;stroke-opacity:1"
         d="M 2082.1429,1959.5052 L 2082.1429,1978.0765"
         id="path4656"
         sodipodi:nodetypes="cc" />
      <path
         style="fill:#000000;fill-rule:evenodd;stroke:#000000;stroke-width:5;stroke-linecap:butt;stroke-linejoin:miter;stroke-miterlimit:4;stroke-dasharray:none;stroke-opacity:1"
         d="M 2320,1959.5051 C 2320,1978.2867 2320,1978.398 2320,1978.0764"
         id="path4658"
         sodipodi:nodetypes="cc" />
      <path
         style="fill:#000000;fill-rule:evenodd;stroke:#000000;stroke-width:5;stroke-linecap:butt;stroke-linejoin:miter;stroke-miterlimit:4;stroke-dasharray:none;stroke-opacity:1"
         d="M -60.00013,1767.3622 L -78.57143,1767.3622"
         id="path4660"
         sodipodi:nodetypes="cc" />
      <path
         style="fill:#000000;fill-rule:evenodd;stroke:#000000;stroke-width:5;stroke-linecap:butt;stroke-linejoin:miter;stroke-miterlimit:4;stroke-dasharray:none;stroke-opacity:1"
         d="M -60.00013,1575.2194 L -78.57143,1575.2194"
         id="path4666"
         sodipodi:nodetypes="cc" />
      <path
         style="fill:#000000;fill-rule:evenodd;stroke:#000000;stroke-width:5;stroke-linecap:butt;stroke-linejoin:miter;stroke-miterlimit:4;stroke-dasharray:none;stroke-opacity:1"
         d="M -60.00013,1381.6479 L -78.57143,1381.6479"
         id="path4668"
         sodipodi:nodetypes="cc" />
      <path
         style="fill:#000000;fill-rule:evenodd;stroke:#000000;stroke-width:5;stroke-linecap:butt;stroke-linejoin:miter;stroke-miterlimit:4;stroke-dasharray:none;stroke-opacity:1"
         d="M -60.00013,1187.3622 L -78.57143,1187.3622"
         id="path4670"
         sodipodi:nodetypes="cc" />
      <path
         style="fill:#000000;fill-rule:evenodd;stroke:#000000;stroke-width:5;stroke-linecap:butt;stroke-linejoin:miter;stroke-miterlimit:4;stroke-dasharray:none;stroke-opacity:1"
         d="M -60.00013,993.79075 L -78.57143,993.79075"
         id="path4672"
         sodipodi:nodetypes="cc" />
      <path
         style="fill:#000000;fill-rule:evenodd;stroke:#000000;stroke-width:5;stroke-linecap:butt;stroke-linejoin:miter;stroke-miterlimit:4;stroke-dasharray:none;stroke-opacity:1"
         d="M -60.00013,800.21932 L -78.57143,800.21932"
         id="path4674"
         sodipodi:nodetypes="cc" />
      <path
         style="fill:#000000;fill-rule:evenodd;stroke:#000000;stroke-width:5;stroke-linecap:butt;stroke-linejoin:miter;stroke-miterlimit:4;stroke-dasharray:none;stroke-opacity:1"
         d="M -60.00013,608.07647 L -78.57143,608.07647"
         id="path4676"
         sodipodi:nodetypes="cc" />
      <path
         style="fill:#000000;fill-rule:evenodd;stroke:#000000;stroke-width:5;stroke-linecap:butt;stroke-linejoin:miter;stroke-miterlimit:4;stroke-dasharray:none;stroke-opacity:1"
         d="M -60.71435,413.07647 L -79.28565,413.07647"
         id="path4678"
         sodipodi:nodetypes="cc" />
    </g>
  </g>
</svg>
