<?xml version="1.0" encoding="UTF-8" standalone="no"?>
<!-- Creator: CorelDRAW -->

<svg
   xmlns:dc="http://purl.org/dc/elements/1.1/"
   xmlns:cc="http://creativecommons.org/ns#"
   xmlns:rdf="http://www.w3.org/1999/02/22-rdf-syntax-ns#"
   xmlns:svg="http://www.w3.org/2000/svg"
   xmlns="http://www.w3.org/2000/svg"
   xmlns:sodipodi="http://sodipodi.sourceforge.net/DTD/sodipodi-0.dtd"
   xmlns:inkscape="http://www.inkscape.org/namespaces/inkscape"
   xml:space="preserve"
   width="1654px"
   height="1063px"
   style="shape-rendering:geometricPrecision; text-rendering:geometricPrecision; image-rendering:optimizeQuality; fill-rule:evenodd"
   viewBox="0 0 1654 1063.29"
   id="svg3200"
   version="1.1"
   inkscape:version="0.48.4 r9939"
   sodipodi:docname="LuminosityCurve1.svg"><metadata
   id="metadata3413"><rdf:RDF><cc:Work
       rdf:about=""><dc:format>image/svg+xml</dc:format><dc:type
         rdf:resource="http://purl.org/dc/dcmitype/StillImage" /></cc:Work></rdf:RDF></metadata><sodipodi:namedview
   pagecolor="#ffffff"
   bordercolor="#666666"
   borderopacity="1"
   objecttolerance="10"
   gridtolerance="10"
   guidetolerance="10"
   inkscape:pageopacity="0"
   inkscape:pageshadow="2"
   inkscape:window-width="1280"
   inkscape:window-height="738"
   id="namedview3411"
   showgrid="false"
   inkscape:zoom="1.0362919"
   inkscape:cx="-239.86497"
   inkscape:cy="984.34489"
   inkscape:window-x="-8"
   inkscape:window-y="-8"
   inkscape:window-maximized="1"
   inkscape:current-layer="SVG-laag" />
 <defs
   id="defs3202">
  <style
   type="text/css"
   id="style3204">
   
    .str0 {stroke:#000000;stroke-width:0.900249}
    .str1 {stroke:#0000FF;stroke-width:5.90714}
    .str2 {stroke:#FF0000;stroke-width:5.90714}
    .fil0 {fill:none}
    .fil2 {fill:#000000}
    .fil1 {fill:#000000}
    .fil4 {fill:#FFFFFF}
    .fil3 {fill:url(#id0)}
   
  </style>
  <linearGradient
   id="id0"
   gradientUnits="userSpaceOnUse"
   x1="132.567"
   y1="991.676"
   x2="1575.26"
   y2="991.676">
   <stop
   offset="0"
   style="stop-color:#000000"
   id="stop3207" />
   <stop
   offset="0.0509804"
   style="stop-color:#000000"
   id="stop3209" />
   <stop
   offset="0.14902"
   style="stop-color:#7D08FA"
   id="stop3211" />
   <stop
   offset="0.219608"
   style="stop-color:#0000FF"
   id="stop3213" />
   <stop
   offset="0.270588"
   style="stop-color:#0E3BED"
   id="stop3215" />
   <stop
   offset="0.368627"
   style="stop-color:#00A03B"
   id="stop3217" />
   <stop
   offset="0.541176"
   style="stop-color:#FFFF00"
   id="stop3219" />
   <stop
   offset="0.611765"
   style="stop-color:#FFF100"
   id="stop3221" />
   <stop
   offset="0.709804"
   style="stop-color:#FF3500"
   id="stop3223" />
   <stop
   offset="0.8"
   style="stop-color:#FF0000"
   id="stop3225" />
   <stop
   offset="0.870588"
   style="stop-color:#000000"
   id="stop3227" />
   <stop
   offset="1"
   style="stop-color:#000000"
   id="stop3229" />
  </linearGradient>
 </defs>
 <g
   id="SVG-laag">
  <g
   id="g3232"
   transform="translate(32.761411,30.031293)">
   <path
   id="V_x0020_=_x0020_1,0"
   class="fil0 str0"
   d="m 1582.36,88.5918 -1469.1,0"
   inkscape:connector-curvature="0"
   style="fill:none;stroke:#000000;stroke-width:0.900249" />
   <path
   id="V_x0020_=_x0020_0,9"
   class="fil0 str0"
   d="m 1582.36,163.022 -1469.1,0"
   inkscape:connector-curvature="0"
   style="fill:none;stroke:#000000;stroke-width:0.900249" />
   <path
   id="V_x0020_=_x0020_0,8"
   class="fil0 str0"
   d="m 1582.36,237.452 -1469.1,0"
   inkscape:connector-curvature="0"
   style="fill:none;stroke:#000000;stroke-width:0.900249" />
   <path
   id="V_x0020_=_x0020_0,7"
   class="fil0 str0"
   d="m 1582.36,311.882 -1469.1,0"
   inkscape:connector-curvature="0"
   style="fill:none;stroke:#000000;stroke-width:0.900249" />
   <path
   id="V_x0020_=_x0020_0,6"
   class="fil0 str0"
   d="m 1582.36,386.312 -1469.1,0"
   inkscape:connector-curvature="0"
   style="fill:none;stroke:#000000;stroke-width:0.900249" />
   <path
   id="V_x0020_=_x0020_0,5"
   class="fil0 str0"
   d="m 1582.36,460.742 -1469.1,0"
   inkscape:connector-curvature="0"
   style="fill:none;stroke:#000000;stroke-width:0.900249" />
   <path
   id="V_x0020_=_x0020_0,4"
   class="fil0 str0"
   d="m 1582.36,535.172 -1469.1,0"
   inkscape:connector-curvature="0"
   style="fill:none;stroke:#000000;stroke-width:0.900249" />
   <path
   id="V_x0020_=_x0020_0,3"
   class="fil0 str0"
   d="m 1582.36,609.602 -1469.1,0"
   inkscape:connector-curvature="0"
   style="fill:none;stroke:#000000;stroke-width:0.900249" />
   <path
   id="V_x0020_=_x0020_0,2"
   class="fil0 str0"
   d="m 1582.36,684.032 -1469.1,0"
   inkscape:connector-curvature="0"
   style="fill:none;stroke:#000000;stroke-width:0.900249" />
   <path
   id="V_x0020_=_x0020_0,1"
   class="fil0 str0"
   d="m 1582.36,758.462 -1469.1,0"
   inkscape:connector-curvature="0"
   style="fill:none;stroke:#000000;stroke-width:0.900249" />
   <path
   id="V_x0020_=_x0020_0,0"
   class="fil0 str0"
   d="m 1582.36,830.529 -1469.1,0"
   inkscape:connector-curvature="0"
   style="fill:none;stroke:#000000;stroke-width:0.900249" />
   <path
   id="350nm"
   class="fil0 str0"
   d="m 133.949,88.5918 0,762.631"
   inkscape:connector-curvature="0"
   style="fill:none;stroke:#000000;stroke-width:0.900249" />
   <path
   id="400nm"
   class="fil0 str0"
   d="m 294.151,88.5918 0,762.631"
   inkscape:connector-curvature="0"
   style="fill:none;stroke:#000000;stroke-width:0.900249" />
   <path
   id="450nm"
   class="fil0 str0"
   d="m 454.353,88.5918 0,762.631"
   inkscape:connector-curvature="0"
   style="fill:none;stroke:#000000;stroke-width:0.900249" />
   <path
   id="500nm"
   class="fil0 str0"
   d="m 614.554,88.5918 0,762.631"
   inkscape:connector-curvature="0"
   style="fill:none;stroke:#000000;stroke-width:0.900249" />
   <path
   id="550nm"
   class="fil0 str0"
   d="m 774.756,88.5918 0,762.631"
   inkscape:connector-curvature="0"
   style="fill:none;stroke:#000000;stroke-width:0.900249" />
   <path
   id="600nm"
   class="fil0 str0"
   d="m 934.958,88.5918 0,762.631"
   inkscape:connector-curvature="0"
   style="fill:none;stroke:#000000;stroke-width:0.900249" />
   <path
   id="650nm"
   class="fil0 str0"
   d="m 1095.16,88.5918 0,762.631"
   inkscape:connector-curvature="0"
   style="fill:none;stroke:#000000;stroke-width:0.900249" />
   <path
   id="700nm"
   class="fil0 str0"
   d="m 1255.36,88.5918 0,762.631"
   inkscape:connector-curvature="0"
   style="fill:none;stroke:#000000;stroke-width:0.900249" />
   <path
   id="750nm"
   class="fil0 str0"
   d="m 1415.56,88.5918 0,762.631"
   inkscape:connector-curvature="0"
   style="fill:none;stroke:#000000;stroke-width:0.900249" />
   <path
   id="800nm"
   class="fil0 str0"
   d="m 1575.76,88.5918 0,762.631"
   inkscape:connector-curvature="0"
   style="fill:none;stroke:#000000;stroke-width:0.900249" />
   <path
   id="Scotopisch"
   class="fil0 str1"
   d="m 266.966,830.531 c 9.6062,-6.37144 38.4531,-4.01331 56.5597,-12.4676 14.0838,-6.57465 21.131,-23.7833 24.2358,-30.384 15.4413,-32.8142 36.8417,-71.4351 46.7491,-97.2304 1.78986,-4.65955 21.5457,-73.6798 50.4364,-155.867 53.54,-152.306 135.47,-354.273 141.595,-364.738 7.79034,-13.3088 15.2428,-81.2244 57.115,-80.447 13.9279,0.258733 31.348,11.8757 45.7177,58.1015 16.5601,53.2683 115.784,389.853 133.218,460.723 7.71945,31.3776 54.8266,216.721 208.468,218.479 104.911,1.20033 158.956,1.46615 241.732,-1.20151"
   inkscape:connector-curvature="0"
   style="fill:none;stroke:#0000ff;stroke-width:5.90713978" />
   <path
   id="Fotopisch"
   class="fil0 str2"
   d="m 261.054,827.575 c 36.7566,-3.31273 58.7359,11.1078 126.529,-6.98579 62.2707,-16.6203 154.924,-65.5102 183.32,-113.868 57.7128,-98.283 94.1303,-286.762 129.945,-464.976 9.76923,-48.6099 43.4683,-150.944 96.3207,-149.92 36.564,0.708857 46.2482,22.6787 66.4849,63.1143 0.40523,0.81046 33.7782,80.3879 70.0729,183.339 54.797,155.438 127.607,364.166 193.803,435.557 58.3236,62.9016 209.973,53.1253 198.604,51.847"
   inkscape:connector-curvature="0"
   style="fill:none;stroke:#ff0000;stroke-width:5.90713978" />
   <path
   id="Verticale_x0020_schaal"
   class="fil1"
   d="m 54.9045,104.411 -3.66125,0 0,-23.3403 c -0.881346,0.841177 -2.03442,1.68117 -3.46513,2.52235 -1.43898,0.839996 -2.72319,1.47206 -3.86327,1.8891 l 0,-3.53602 c 2.04978,-0.965227 3.84201,-2.13248 5.37668,-3.50057 1.52877,-1.37518 2.61923,-2.70193 3.25838,-3.99441 l 2.35459,0 0,29.9598 z"
   inkscape:connector-curvature="0"
   style="fill:#000000" />
   <path
   id="path3258"
   class="fil1"
   d="m 66.2616,104.411 0,-4.17517 4.17517,0 0,4.17517 c 0,1.53468 -0.271729,2.77163 -0.812823,3.71677 -0.549364,0.93687 -1.41063,1.667 -2.58497,2.18801 l -1.02075,-1.57012 c 0.771473,-0.34025 1.34092,-0.84118 1.70835,-1.49333 0.368606,-0.66042 0.57063,-1.60438 0.61198,-2.84134 l -2.07695,0 z"
   inkscape:connector-curvature="0"
   style="fill:#000000" />
   <path
   id="path3260"
   class="fil1"
   d="m 75.8678,89.6988 c 0,-3.52893 0.361517,-6.37026 1.09046,-8.51692 0.723034,-2.15256 1.8064,-3.81365 3.23711,-4.97972 1.43071,-1.16725 3.23003,-1.75088 5.39795,-1.75088 1.60438,0 3.00674,0.326074 4.21652,0.972316 1.2086,0.639153 2.201,1.57012 2.99374,2.78581 0.784469,1.21569 1.40236,2.69484 1.84775,4.43863 0.451306,1.74379 0.673414,4.09129 0.673414,7.05077 0,3.50057 -0.361517,6.32064 -1.07628,8.47439 -0.723034,2.153744 -1.79932,3.813654 -3.23003,4.987994 -1.43189,1.17316 -3.23711,1.75678 -5.42512,1.75678 -2.87678,0 -5.13449,-1.02784 -6.77313,-3.09062 -1.9659,-2.479824 -2.95239,-6.529764 -2.95239,-12.128504 z m 3.76521,0 c 0,4.89702 0.576537,8.1554 1.72252,9.77987 1.14599,1.61856 2.55661,2.43138 4.23778,2.43138 1.68708,0 3.09771,-0.81873 4.24369,-2.44438 1.14599,-1.62565 1.72252,-4.88403 1.72252,-9.76687 0,-4.9112 -0.576537,-8.17667 -1.72252,-9.78814 -1.14599,-1.61856 -2.56961,-2.42429 -4.27913,-2.42429 -1.68826,0 -3.028,0.715946 -4.03576,2.13957 -1.25704,1.81349 -1.8891,5.17584 -1.8891,10.0729 z"
   inkscape:connector-curvature="0"
   style="fill:#000000" />
   <path
   id="path3262"
   class="fil1"
   d="m 41.109,163.731 c 0,-3.52893 0.361517,-6.37026 1.09046,-8.51692 0.723034,-2.15256 1.8064,-3.81365 3.23711,-4.97972 1.43071,-1.16725 3.23003,-1.75088 5.39795,-1.75088 1.60438,0 3.00674,0.32607 4.21652,0.97232 1.2086,0.63915 2.201,1.57012 2.99374,2.78581 0.784469,1.21569 1.40236,2.69484 1.84775,4.43863 0.451306,1.74379 0.673414,4.09129 0.673414,7.05077 0,3.50057 -0.361517,6.32064 -1.07628,8.47439 -0.723034,2.15374 -1.79932,3.81365 -3.23003,4.98799 -1.43189,1.17316 -3.23711,1.75678 -5.42512,1.75678 -2.87678,0 -5.13449,-1.02784 -6.77313,-3.09062 -1.9659,-2.47982 -2.95239,-6.52976 -2.95239,-12.1285 z m 3.76521,0 c 0,4.89702 0.576537,8.1554 1.72252,9.77987 1.14599,1.61856 2.55661,2.43138 4.23778,2.43138 1.68708,0 3.09771,-0.81873 4.24369,-2.44438 1.14599,-1.62565 1.72252,-4.88403 1.72252,-9.76687 0,-4.9112 -0.576537,-8.17667 -1.72252,-9.78814 -1.14599,-1.61856 -2.56961,-2.42429 -4.27913,-2.42429 -1.68826,0 -3.028,0.71595 -4.03576,2.13957 -1.25704,1.81349 -1.8891,5.17584 -1.8891,10.0729 z"
   inkscape:connector-curvature="0"
   style="fill:#000000" />
   <path
   id="path3264"
   class="fil1"
   d="m 66.2616,178.443 0,-4.17517 4.17517,0 0,4.17517 c 0,1.53468 -0.271729,2.77163 -0.812823,3.71677 -0.549364,0.93687 -1.41063,1.667 -2.58497,2.18801 l -1.02075,-1.57012 c 0.771473,-0.34025 1.34092,-0.84118 1.70835,-1.49333 0.368606,-0.66042 0.57063,-1.60438 0.61198,-2.84134 l -2.07695,0 z"
   inkscape:connector-curvature="0"
   style="fill:#000000" />
   <path
   id="path3266"
   class="fil1"
   d="m 76.4172,171.545 3.52184,-0.32607 c 0.29772,1.654 0.867169,2.85551 1.70835,3.60572 0.839996,0.74311 1.91746,1.11763 3.23711,1.11763 1.12472,0 2.11121,-0.25637 2.95948,-0.77738 0.847084,-0.51393 1.54176,-1.20151 2.08286,-2.06277 0.549364,-0.86245 1.00067,-2.02851 1.36928,-3.48758 0.361517,-1.46615 0.548183,-2.95948 0.548183,-4.47998 0,-0.16068 -0.0071,-0.40996 -0.02008,-0.73013 -0.737211,1.16016 -1.7367,2.11239 -3.00083,2.83425 -1.27122,0.72894 -2.64758,1.09046 -4.11964,1.09046 -2.47273,0 -4.56386,-0.89552 -6.2722,-2.68775 -1.70953,-1.79223 -2.5637,-4.14681 -2.5637,-7.07912 0,-3.028 0.889616,-5.45938 2.67475,-7.30714 1.78514,-1.84775 4.02158,-2.77163 6.70933,-2.77163 1.93872,0 3.70969,0.5281 5.32115,1.57012 1.60438,1.04202 2.82716,2.53535 3.66125,4.4658 0.832907,1.93164 1.24995,4.73044 1.24995,8.39878 0,3.80656 -0.409956,6.84165 -1.23577,9.10645 -0.834089,2.25771 -2.06396,3.97314 -3.69551,5.15457 -1.63982,1.18025 -3.55019,1.77096 -5.75238,1.77096 -2.33332,0 -4.2366,-0.64624 -5.71693,-1.94463 -1.47915,-1.29248 -2.36876,-3.11188 -2.66648,-5.46056 z m 14.9971,-13.1694 c 0,-2.09822 -0.556453,-3.7723 -1.67408,-5.00217 -1.1259,-1.23577 -2.46682,-1.85484 -4.04285,-1.85484 -1.62565,0 -3.04336,0.66751 -4.25196,1.99425 -1.2086,1.33383 -1.81231,3.05636 -1.81231,5.16757 0,1.90328 0.576537,3.44623 1.72252,4.63356 1.14599,1.18852 2.55661,1.77805 4.23778,1.77805 1.70126,0 3.09062,-0.58953 4.18108,-1.77805 1.09755,-1.18734 1.63982,-2.83425 1.63982,-4.93837 z"
   inkscape:connector-curvature="0"
   style="fill:#000000" />
   <path
   id="path3268"
   class="fil1"
   d="m 41.109,237.763 c 0,-3.52893 0.361517,-6.37026 1.09046,-8.51692 0.723034,-2.15256 1.8064,-3.81365 3.23711,-4.97972 1.43071,-1.16725 3.23003,-1.75088 5.39795,-1.75088 1.60438,0 3.00674,0.32607 4.21652,0.97232 1.2086,0.63915 2.201,1.57012 2.99374,2.78581 0.784469,1.21569 1.40236,2.69484 1.84775,4.43863 0.451306,1.74379 0.673414,4.09129 0.673414,7.05077 0,3.50057 -0.361517,6.32064 -1.07628,8.47439 -0.723034,2.15374 -1.79932,3.81365 -3.23003,4.98799 -1.43189,1.17316 -3.23711,1.75678 -5.42512,1.75678 -2.87678,0 -5.13449,-1.02784 -6.77313,-3.09062 -1.9659,-2.47982 -2.95239,-6.52976 -2.95239,-12.1285 z m 3.76521,0 c 0,4.89702 0.576537,8.1554 1.72252,9.77987 1.14599,1.61856 2.55661,2.43138 4.23778,2.43138 1.68708,0 3.09771,-0.81873 4.24369,-2.44438 1.14599,-1.62565 1.72252,-4.88403 1.72252,-9.76687 0,-4.9112 -0.576537,-8.17667 -1.72252,-9.78814 -1.14599,-1.61856 -2.56961,-2.42429 -4.27913,-2.42429 -1.68826,0 -3.028,0.71595 -4.03576,2.13957 -1.25704,1.81349 -1.8891,5.17584 -1.8891,10.0729 z"
   inkscape:connector-curvature="0"
   style="fill:#000000" />
   <path
   id="path3270"
   class="fil1"
   d="m 66.2616,252.475 0,-4.17517 4.17517,0 0,4.17517 c 0,1.53468 -0.271729,2.77163 -0.812823,3.71677 -0.549364,0.93687 -1.41063,1.667 -2.58497,2.18801 l -1.02075,-1.57012 c 0.771473,-0.34025 1.34092,-0.84118 1.70835,-1.49333 0.368606,-0.66042 0.57063,-1.60438 0.61198,-2.84134 l -2.07695,0 z"
   inkscape:connector-curvature="0"
   style="fill:#000000" />
   <path
   id="path3272"
   class="fil1"
   d="m 81.5079,236.296 c -1.5205,-0.55527 -2.6464,-1.34683 -3.38243,-2.38176 -0.728941,-1.02902 -1.09755,-2.2648 -1.09755,-3.7026 0,-2.17501 0.77738,-3.99441 2.34041,-5.47474 1.56303,-1.47915 3.63289,-2.22227 6.22495,-2.22227 2.60387,0 4.70209,0.7573 6.29347,2.27189 1.58311,1.51341 2.37467,3.35526 2.37467,5.52909 0,1.38227 -0.360336,2.58378 -1.08337,3.61163 -0.728941,1.02194 -1.82649,1.81349 -3.30682,2.36876 1.82767,0.5978 3.22412,1.55594 4.18226,2.88977 0.952231,1.32674 1.43071,2.91813 1.43071,4.75879 0,2.55543 -0.902611,4.695 -2.70193,6.4317 -1.8064,1.7367 -4.18226,2.60505 -7.12756,2.60505 -2.94412,0 -5.31288,-0.86835 -7.11929,-2.61214 -1.8064,-1.74261 -2.70902,-3.91762 -2.70902,-6.52267 0,-1.93754 0.492656,-3.56319 1.47915,-4.87576 0.979404,-1.30548 2.38294,-2.20218 4.20234,-2.67475 z m -0.73603,-6.20959 c 0,1.40944 0.458394,2.56252 1.36101,3.45922 0.910881,0.89552 2.09113,1.34801 3.5431,1.34801 1.41063,0 2.57079,-0.4454 3.4734,-1.33383 0.902611,-0.88962 1.34801,-1.98007 1.34801,-3.26547 0,-1.34683 -0.458394,-2.47273 -1.38936,-3.38952 -0.930966,-0.91679 -2.08404,-1.37518 -3.4734,-1.37518 -1.39645,0 -2.55661,0.45131 -3.48049,1.34092 -0.923877,0.89552 -1.38227,1.9718 -1.38227,3.21585 z m -1.18025,13.7814 c 0,1.04202 0.249281,2.05569 0.743119,3.02918 0.492656,0.9794 1.22869,1.7367 2.20809,2.27071 0.979404,0.53519 2.02851,0.80573 3.15441,0.80573 1.7497,0 3.19458,-0.56236 4.33466,-1.69417 1.1389,-1.1259 1.70835,-2.55661 1.70835,-4.29331 0,-1.76387 -0.583626,-3.22294 -1.75678,-4.37601 -1.17434,-1.15307 -2.64758,-1.72961 -4.41145,-1.72961 -1.72252,0 -3.14733,0.56945 -4.27913,1.70835 -1.13181,1.14599 -1.70126,2.57079 -1.70126,4.27913 z"
   inkscape:connector-curvature="0"
   style="fill:#000000" />
   <path
   id="path3274"
   class="fil1"
   d="m 41.109,311.794 c 0,-3.52893 0.361517,-6.37026 1.09046,-8.51692 0.723034,-2.15256 1.8064,-3.81365 3.23711,-4.97972 1.43071,-1.16725 3.23003,-1.75088 5.39795,-1.75088 1.60438,0 3.00674,0.32607 4.21652,0.97232 1.2086,0.63915 2.201,1.57012 2.99374,2.78581 0.784469,1.21569 1.40236,2.69484 1.84775,4.43863 0.451306,1.74379 0.673414,4.09129 0.673414,7.05077 0,3.50057 -0.361517,6.32064 -1.07628,8.47439 -0.723034,2.15374 -1.79932,3.81365 -3.23003,4.98799 -1.43189,1.17316 -3.23711,1.75678 -5.42512,1.75678 -2.87678,0 -5.13449,-1.02784 -6.77313,-3.09062 -1.9659,-2.47982 -2.95239,-6.52976 -2.95239,-12.1285 z m 3.76521,0 c 0,4.89702 0.576537,8.1554 1.72252,9.77987 1.14599,1.61856 2.55661,2.43138 4.23778,2.43138 1.68708,0 3.09771,-0.81873 4.24369,-2.44438 1.14599,-1.62565 1.72252,-4.88403 1.72252,-9.76687 0,-4.9112 -0.576537,-8.17667 -1.72252,-9.78814 -1.14599,-1.61856 -2.56961,-2.42429 -4.27913,-2.42429 -1.68826,0 -3.028,0.71595 -4.03576,2.13957 -1.25704,1.81349 -1.8891,5.17584 -1.8891,10.0729 z"
   inkscape:connector-curvature="0"
   style="fill:#000000" />
   <path
   id="path3276"
   class="fil1"
   d="m 66.2616,326.507 0,-4.17517 4.17517,0 0,4.17517 c 0,1.53468 -0.271729,2.77163 -0.812823,3.71677 -0.549364,0.93687 -1.41063,1.667 -2.58497,2.18801 l -1.02075,-1.57012 c 0.771473,-0.34025 1.34092,-0.84118 1.70835,-1.49333 0.368606,-0.66042 0.57063,-1.60438 0.61198,-2.84134 l -2.07695,0 z"
   inkscape:connector-curvature="0"
   style="fill:#000000" />
   <path
   id="path3278"
   class="fil1"
   d="m 76.1112,300.583 0,-3.52184 19.3105,0 0,2.84842 c -1.89619,2.02142 -3.77821,4.70917 -5.64723,8.05734 -1.86193,3.34817 -3.30682,6.8003 -4.32048,10.3363 -0.73603,2.50108 -1.20151,5.23137 -1.40354,8.20384 l -3.76403,0 c 0.04135,-2.3475 0.499744,-5.18175 1.38227,-8.50983 0.881346,-3.31981 2.14547,-6.52857 3.79239,-9.61328 1.65282,-3.08471 3.4037,-5.68858 5.26563,-7.80097 l -14.6155,0 z"
   inkscape:connector-curvature="0"
   style="fill:#000000" />
   <path
   id="path3280"
   class="fil1"
   d="m 41.109,385.826 c 0,-3.52893 0.361517,-6.37026 1.09046,-8.51692 0.723034,-2.15256 1.8064,-3.81365 3.23711,-4.97972 1.43071,-1.16725 3.23003,-1.75088 5.39795,-1.75088 1.60438,0 3.00674,0.32607 4.21652,0.97232 1.2086,0.63915 2.201,1.57012 2.99374,2.78581 0.784469,1.21569 1.40236,2.69484 1.84775,4.43863 0.451306,1.74379 0.673414,4.09129 0.673414,7.05077 0,3.50057 -0.361517,6.32064 -1.07628,8.47439 -0.723034,2.15374 -1.79932,3.81365 -3.23003,4.98799 -1.43189,1.17316 -3.23711,1.75678 -5.42512,1.75678 -2.87678,0 -5.13449,-1.02784 -6.77313,-3.09062 -1.9659,-2.47982 -2.95239,-6.52976 -2.95239,-12.1285 z m 3.76521,0 c 0,4.89702 0.576537,8.1554 1.72252,9.77987 1.14599,1.61856 2.55661,2.43138 4.23778,2.43138 1.68708,0 3.09771,-0.81873 4.24369,-2.44438 1.14599,-1.62565 1.72252,-4.88403 1.72252,-9.76687 0,-4.9112 -0.576537,-8.17667 -1.72252,-9.78814 -1.14599,-1.61856 -2.56961,-2.42429 -4.27913,-2.42429 -1.68826,0 -3.028,0.71595 -4.03576,2.13957 -1.25704,1.81349 -1.8891,5.17584 -1.8891,10.0729 z"
   inkscape:connector-curvature="0"
   style="fill:#000000" />
   <path
   id="path3282"
   class="fil1"
   d="m 66.2616,400.539 0,-4.17517 4.17517,0 0,4.17517 c 0,1.53468 -0.271729,2.77163 -0.812823,3.71677 -0.549364,0.93687 -1.41063,1.667 -2.58497,2.18801 l -1.02075,-1.57012 c 0.771473,-0.34025 1.34092,-0.84118 1.70835,-1.49333 0.368606,-0.66042 0.57063,-1.60438 0.61198,-2.84134 l -2.07695,0 z"
   inkscape:connector-curvature="0"
   style="fill:#000000" />
   <path
   id="path3284"
   class="fil1"
   d="m 94.8734,378.011 -3.63998,0.28472 c -0.326074,-1.4378 -0.78565,-2.48691 -1.38227,-3.13197 -0.993581,-1.04911 -2.21636,-1.57012 -3.66834,-1.57012 -1.16607,0 -2.18801,0.32608 -3.06935,0.97941 -1.15307,0.83999 -2.06396,2.06986 -2.73028,3.68133 -0.660419,1.61147 -1.00776,3.91053 -1.03493,6.89836 0.881346,-1.34092 1.95881,-2.34159 3.23711,-2.99492 1.27122,-0.64506 2.61096,-0.97232 4.00741,-0.97232 2.44556,0 4.52251,0.89671 6.23794,2.69602 1.71543,1.79813 2.57788,4.11846 2.57788,6.96688 0,1.87493 -0.409956,3.61163 -1.21569,5.2231 -0.805734,1.60556 -1.91746,2.84134 -3.32808,3.69551 -1.40944,0.85536 -3.00792,1.27831 -4.80014,1.27831 -3.05636,0 -5.54326,-1.11763 -7.46663,-3.36825 -1.93164,-2.24471 -2.88977,-5.94613 -2.88977,-11.1007 0,-5.76537 1.0621,-9.95472 3.19458,-12.5728 1.85484,-2.27898 4.35593,-3.42496 7.50916,-3.42496 2.34159,0 4.26496,0.66042 5.76537,1.98007 1.5016,1.31257 2.39712,3.13197 2.69602,5.45229 z m -14.9557,12.8587 c 0,1.26413 0.270547,2.47273 0.805734,3.6258 0.535187,1.15307 1.28539,2.02851 2.24353,2.63222 0.965227,0.60489 1.98007,0.9097 3.03509,0.9097 1.55003,0 2.87678,-0.62498 3.98732,-1.87493 1.11172,-1.25113 1.66818,-2.9453 1.66818,-5.08487 0,-2.06277 -0.549364,-3.68842 -1.64691,-4.87694 -1.09755,-1.18734 -2.47982,-1.77805 -4.14681,-1.77805 -1.65991,0 -3.06344,0.59071 -4.21652,1.77805 -1.15307,1.18852 -1.72961,2.74446 -1.72961,4.66901 z"
   inkscape:connector-curvature="0"
   style="fill:#000000" />
   <path
   id="path3286"
   class="fil1"
   d="m 41.109,459.858 c 0,-3.52893 0.361517,-6.37026 1.09046,-8.51692 0.723034,-2.15256 1.8064,-3.81365 3.23711,-4.97972 1.43071,-1.16725 3.23003,-1.75088 5.39795,-1.75088 1.60438,0 3.00674,0.32607 4.21652,0.97232 1.2086,0.63915 2.201,1.57012 2.99374,2.78581 0.784469,1.21569 1.40236,2.69484 1.84775,4.43863 0.451306,1.74379 0.673414,4.09129 0.673414,7.05077 0,3.50057 -0.361517,6.32064 -1.07628,8.47439 -0.723034,2.15374 -1.79932,3.81365 -3.23003,4.98799 -1.43189,1.17316 -3.23711,1.75678 -5.42512,1.75678 -2.87678,0 -5.13449,-1.02784 -6.77313,-3.09062 -1.9659,-2.47982 -2.95239,-6.52976 -2.95239,-12.1285 z m 3.76521,0 c 0,4.89702 0.576537,8.1554 1.72252,9.77987 1.14599,1.61856 2.55661,2.43138 4.23778,2.43138 1.68708,0 3.09771,-0.81873 4.24369,-2.44438 1.14599,-1.62565 1.72252,-4.88403 1.72252,-9.76687 0,-4.9112 -0.576537,-8.17667 -1.72252,-9.78814 -1.14599,-1.61856 -2.56961,-2.42429 -4.27913,-2.42429 -1.68826,0 -3.028,0.71595 -4.03576,2.13957 -1.25704,1.81349 -1.8891,5.17584 -1.8891,10.0729 z"
   inkscape:connector-curvature="0"
   style="fill:#000000" />
   <path
   id="path3288"
   class="fil1"
   d="m 66.2616,474.57 0,-4.17517 4.17517,0 0,4.17517 c 0,1.53468 -0.271729,2.77163 -0.812823,3.71677 -0.549364,0.93687 -1.41063,1.667 -2.58497,2.18801 l -1.02075,-1.57012 c 0.771473,-0.34025 1.34092,-0.84118 1.70835,-1.49333 0.368606,-0.66042 0.57063,-1.60438 0.61198,-2.84134 l -2.07695,0 z"
   inkscape:connector-curvature="0"
   style="fill:#000000" />
   <path
   id="path3290"
   class="fil1"
   d="m 75.8678,466.755 3.84791,-0.32607 c 0.284724,1.87611 0.945143,3.27846 1.98007,4.22361 1.04202,0.94514 2.29197,1.41653 3.75812,1.41653 1.76387,0 3.25838,-0.66633 4.47289,-1.99307 1.22278,-1.33383 1.83476,-3.09771 1.83476,-5.2928 0,-2.09113 -0.583626,-3.73804 -1.75797,-4.94664 -1.17434,-1.2086 -2.70902,-1.81231 -4.6123,-1.81231 -1.18025,0 -2.24353,0.27054 -3.19576,0.80573 -0.95105,0.53401 -1.69417,1.22869 -2.23644,2.08404 l -3.43796,-0.4454 2.88977,-15.3231 14.8376,0 0,3.50057 -11.9064,0 -1.61147,8.01599 c 1.79223,-1.24995 3.67424,-1.87493 5.64014,-1.87493 2.60505,0 4.80014,0.90261 6.59237,2.70902 1.79223,1.80522 2.68775,4.12555 2.68775,6.9598 0,2.70193 -0.791557,5.03643 -2.36168,7.00233 -1.91746,2.41011 -4.52842,3.61872 -7.83523,3.61872 -2.7161,0 -4.93246,-0.7573 -6.6479,-2.27779 -1.71543,-1.52168 -2.69484,-3.53602 -2.93821,-6.04419 z"
   inkscape:connector-curvature="0"
   style="fill:#000000" />
   <path
   id="path3292"
   class="fil1"
   d="m 41.109,533.89 c 0,-3.52893 0.361517,-6.37026 1.09046,-8.51692 0.723034,-2.15256 1.8064,-3.81365 3.23711,-4.97972 1.43071,-1.16725 3.23003,-1.75088 5.39795,-1.75088 1.60438,0 3.00674,0.32607 4.21652,0.97232 1.2086,0.63915 2.201,1.57012 2.99374,2.78581 0.784469,1.21569 1.40236,2.69484 1.84775,4.43863 0.451306,1.74379 0.673414,4.09129 0.673414,7.05077 0,3.50057 -0.361517,6.32064 -1.07628,8.47439 -0.723034,2.15374 -1.79932,3.81365 -3.23003,4.98799 -1.43189,1.17316 -3.23711,1.75678 -5.42512,1.75678 -2.87678,0 -5.13449,-1.02784 -6.77313,-3.09062 -1.9659,-2.47982 -2.95239,-6.52976 -2.95239,-12.1285 z m 3.76521,0 c 0,4.89702 0.576537,8.1554 1.72252,9.77987 1.14599,1.61856 2.55661,2.43138 4.23778,2.43138 1.68708,0 3.09771,-0.81873 4.24369,-2.44438 1.14599,-1.62565 1.72252,-4.88403 1.72252,-9.76687 0,-4.9112 -0.576537,-8.17667 -1.72252,-9.78814 -1.14599,-1.61856 -2.56961,-2.42429 -4.27913,-2.42429 -1.68826,0 -3.028,0.71595 -4.03576,2.13957 -1.25704,1.81349 -1.8891,5.17584 -1.8891,10.0729 z"
   inkscape:connector-curvature="0"
   style="fill:#000000" />
   <path
   id="path3294"
   class="fil1"
   d="m 66.2616,548.602 0,-4.17517 4.17517,0 0,4.17517 c 0,1.53468 -0.271729,2.77163 -0.812823,3.71677 -0.549364,0.93687 -1.41063,1.667 -2.58497,2.18801 l -1.02075,-1.57012 c 0.771473,-0.34025 1.34092,-0.84118 1.70835,-1.49333 0.368606,-0.66042 0.57063,-1.60438 0.61198,-2.84134 l -2.07695,0 z"
   inkscape:connector-curvature="0"
   style="fill:#000000" />
   <path
   id="path3296"
   class="fil1"
   d="m 87.6077,548.602 0,-7.14055 -12.9414,0 0,-3.36235 13.6148,-19.3317 2.99374,0 0,19.3317 4.02867,0 0,3.36235 -4.02867,0 0,7.14055 -3.66715,0 z m 0,-10.5029 0,-13.4482 -9.33683,13.4482 9.33683,0 z"
   inkscape:connector-curvature="0"
   style="fill:#000000" />
   <path
   id="path3298"
   class="fil1"
   d="m 41.109,607.922 c 0,-3.52893 0.361517,-6.37026 1.09046,-8.51692 0.723034,-2.15256 1.8064,-3.81365 3.23711,-4.97972 1.43071,-1.16725 3.23003,-1.75088 5.39795,-1.75088 1.60438,0 3.00674,0.32607 4.21652,0.97232 1.2086,0.63915 2.201,1.57012 2.99374,2.78581 0.784469,1.21569 1.40236,2.69484 1.84775,4.43863 0.451306,1.74379 0.673414,4.09129 0.673414,7.05077 0,3.50057 -0.361517,6.32064 -1.07628,8.47439 -0.723034,2.15374 -1.79932,3.81365 -3.23003,4.98799 -1.43189,1.17316 -3.23711,1.75678 -5.42512,1.75678 -2.87678,0 -5.13449,-1.02784 -6.77313,-3.09062 -1.9659,-2.47982 -2.95239,-6.52976 -2.95239,-12.1285 z m 3.76521,0 c 0,4.89702 0.576537,8.1554 1.72252,9.77987 1.14599,1.61856 2.55661,2.43138 4.23778,2.43138 1.68708,0 3.09771,-0.81873 4.24369,-2.44438 1.14599,-1.62565 1.72252,-4.88403 1.72252,-9.76687 0,-4.9112 -0.576537,-8.17667 -1.72252,-9.78814 -1.14599,-1.61856 -2.56961,-2.42429 -4.27913,-2.42429 -1.68826,0 -3.028,0.71595 -4.03576,2.13957 -1.25704,1.81349 -1.8891,5.17584 -1.8891,10.0729 z"
   inkscape:connector-curvature="0"
   style="fill:#000000" />
   <path
   id="path3300"
   class="fil1"
   d="m 66.2616,622.634 0,-4.17517 4.17517,0 0,4.17517 c 0,1.53468 -0.271729,2.77163 -0.812823,3.71677 -0.549364,0.93687 -1.41063,1.667 -2.58497,2.18801 l -1.02075,-1.57012 c 0.771473,-0.34025 1.34092,-0.84118 1.70835,-1.49333 0.368606,-0.66042 0.57063,-1.60438 0.61198,-2.84134 l -2.07695,0 z"
   inkscape:connector-curvature="0"
   style="fill:#000000" />
   <path
   id="path3302"
   class="fil1"
   d="m 75.8891,614.756 3.66007,-0.48557 c 0.424133,2.07695 1.14008,3.57028 2.14666,4.48707 1.01485,0.91679 2.24353,1.37518 3.69551,1.37518 1.72252,0 3.18159,-0.59662 4.36892,-1.79223 1.18143,-1.19442 1.77923,-2.67357 1.77923,-4.43863 0,-1.68117 -0.549364,-3.07053 -1.64691,-4.16099 -1.10464,-1.09046 -2.50108,-1.63864 -4.19525,-1.63864 -0.69468,0 -1.55594,0.13823 -2.58378,0.40996 l 0.408774,-3.21703 c 0.243374,0.0284 0.43831,0.0425 0.590714,0.0425 1.55594,0 2.95948,-0.40996 4.20943,-1.22278 1.25113,-0.81282 1.87611,-2.06986 1.87611,-3.76521 0,-1.34092 -0.458394,-2.45855 -1.36928,-3.33399 -0.9097,-0.88253 -2.08286,-1.32674 -3.52066,-1.32674 -1.4248,0 -2.61214,0.45131 -3.55728,1.34092 -0.95105,0.89552 -1.56303,2.24353 -1.83358,4.03576 l -3.66125,-0.65333 c 0.445399,-2.45855 1.46615,-4.36183 3.04927,-5.70984 1.59138,-1.34801 3.56437,-2.02851 5.92605,-2.02851 1.62565,0 3.12606,0.35443 4.49415,1.04911 1.36809,0.70177 2.4172,1.65282 3.14614,2.86142 0.723034,1.2086 1.09164,2.48691 1.09164,3.84909 0,1.28421 -0.34734,2.45855 -1.04202,3.52184 -0.69468,1.05502 -1.71662,1.89619 -3.07053,2.52117 1.76387,0.40287 3.13315,1.24995 4.11255,2.53535 0.972316,1.27831 1.45788,2.88269 1.45788,4.80723 0,2.60505 -0.943961,4.81314 -2.84724,6.62663 -1.89737,1.81231 -4.3004,2.7161 -7.20435,2.7161 -2.61805,0 -4.79306,-0.77856 -6.52267,-2.34159 -1.72961,-1.55594 -2.7161,-3.57737 -2.9583,-6.06427 z"
   inkscape:connector-curvature="0"
   style="fill:#000000" />
   <path
   id="path3304"
   class="fil1"
   d="m 41.109,681.954 c 0,-3.52893 0.361517,-6.37026 1.09046,-8.51692 0.723034,-2.15256 1.8064,-3.81365 3.23711,-4.97972 1.43071,-1.16725 3.23003,-1.75088 5.39795,-1.75088 1.60438,0 3.00674,0.32607 4.21652,0.97232 1.2086,0.63915 2.201,1.57012 2.99374,2.78581 0.784469,1.21569 1.40236,2.69484 1.84775,4.43863 0.451306,1.74379 0.673414,4.09129 0.673414,7.05077 0,3.50057 -0.361517,6.32064 -1.07628,8.47439 -0.723034,2.15374 -1.79932,3.81365 -3.23003,4.98799 -1.43189,1.17316 -3.23711,1.75678 -5.42512,1.75678 -2.87678,0 -5.13449,-1.02784 -6.77313,-3.09062 -1.9659,-2.47982 -2.95239,-6.52976 -2.95239,-12.1285 z m 3.76521,0 c 0,4.89702 0.576537,8.1554 1.72252,9.77987 1.14599,1.61856 2.55661,2.43138 4.23778,2.43138 1.68708,0 3.09771,-0.81873 4.24369,-2.44438 1.14599,-1.62565 1.72252,-4.88403 1.72252,-9.76687 0,-4.9112 -0.576537,-8.17667 -1.72252,-9.78814 -1.14599,-1.61856 -2.56961,-2.42429 -4.27913,-2.42429 -1.68826,0 -3.028,0.71595 -4.03576,2.13957 -1.25704,1.81349 -1.8891,5.17584 -1.8891,10.0729 z"
   inkscape:connector-curvature="0"
   style="fill:#000000" />
   <path
   id="path3306"
   class="fil1"
   d="m 66.2616,696.666 0,-4.17517 4.17517,0 0,4.17517 c 0,1.53468 -0.271729,2.77163 -0.812823,3.71677 -0.549364,0.93687 -1.41063,1.667 -2.58497,2.18801 l -1.02075,-1.57012 c 0.771473,-0.34025 1.34092,-0.84118 1.70835,-1.49333 0.368606,-0.66042 0.57063,-1.60438 0.61198,-2.84134 l -2.07695,0 z"
   inkscape:connector-curvature="0"
   style="fill:#000000" />
   <path
   id="path3308"
   class="fil1"
   d="m 95.1227,693.144 0,3.52184 -19.7204,0 c -0.02717,-0.88253 0.111054,-1.72961 0.424133,-2.54243 0.499744,-1.34801 1.30548,-2.66767 2.41011,-3.97314 1.11172,-1.29957 2.70902,-2.80707 4.79306,-4.51542 3.2442,-2.66058 5.4393,-4.7647 6.57819,-6.32064 1.1389,-1.55003 1.70835,-3.02209 1.70835,-4.40437 0,-1.45198 -0.52101,-2.67475 -1.55594,-3.67424 -1.04202,-0.99358 -2.39594,-1.49451 -4.06293,-1.49451 -1.76505,0 -3.1745,0.5281 -4.2307,1.59138 -1.06329,1.0562 -1.59729,2.52117 -1.61147,4.39019 l -3.76521,-0.38278 c 0.257551,-2.81298 1.22987,-4.95255 2.91104,-6.42461 1.68117,-1.47324 3.94479,-2.20927 6.77904,-2.20927 2.8626,0 5.1274,0.79864 6.7944,2.38294 1.67408,1.5902 2.50699,3.5561 2.50699,5.9036 0,1.19561 -0.243374,2.36876 -0.73603,3.52184 -0.486749,1.15307 -1.29957,2.36876 -2.43138,3.63998 -1.13181,1.27831 -3.01501,3.02918 -5.64723,5.25145 -2.19509,1.84775 -3.60572,3.09889 -4.2307,3.75812 -0.624976,0.65333 -1.1389,1.31375 -1.54885,1.98007 l 14.6355,0 z"
   inkscape:connector-curvature="0"
   style="fill:#000000" />
   <path
   id="path3310"
   class="fil1"
   d="m 41.109,755.986 c 0,-3.52893 0.361517,-6.37026 1.09046,-8.51692 0.723034,-2.15256 1.8064,-3.81365 3.23711,-4.97972 1.43071,-1.16725 3.23003,-1.75088 5.39795,-1.75088 1.60438,0 3.00674,0.32607 4.21652,0.97232 1.2086,0.63915 2.201,1.57012 2.99374,2.78581 0.784469,1.21569 1.40236,2.69484 1.84775,4.43863 0.451306,1.74379 0.673414,4.09129 0.673414,7.05077 0,3.50057 -0.361517,6.32064 -1.07628,8.47439 -0.723034,2.15374 -1.79932,3.81365 -3.23003,4.98799 -1.43189,1.17316 -3.23711,1.75678 -5.42512,1.75678 -2.87678,0 -5.13449,-1.02784 -6.77313,-3.09062 -1.9659,-2.47982 -2.95239,-6.52976 -2.95239,-12.1285 z m 3.76521,0 c 0,4.89702 0.576537,8.1554 1.72252,9.77987 1.14599,1.61856 2.55661,2.43138 4.23778,2.43138 1.68708,0 3.09771,-0.81873 4.24369,-2.44438 1.14599,-1.62565 1.72252,-4.88403 1.72252,-9.76687 0,-4.9112 -0.576537,-8.17667 -1.72252,-9.78814 -1.14599,-1.61856 -2.56961,-2.42429 -4.27913,-2.42429 -1.68826,0 -3.028,0.71595 -4.03576,2.13957 -1.25704,1.81349 -1.8891,5.17584 -1.8891,10.0729 z"
   inkscape:connector-curvature="0"
   style="fill:#000000" />
   <path
   id="path3312"
   class="fil1"
   d="m 66.2616,770.698 0,-4.17517 4.17517,0 0,4.17517 c 0,1.53468 -0.271729,2.77163 -0.812823,3.71677 -0.549364,0.93687 -1.41063,1.667 -2.58497,2.18801 l -1.02075,-1.57012 c 0.771473,-0.34025 1.34092,-0.84118 1.70835,-1.49333 0.368606,-0.66042 0.57063,-1.60438 0.61198,-2.84134 l -2.07695,0 z"
   inkscape:connector-curvature="0"
   style="fill:#000000" />
   <path
   id="path3314"
   class="fil1"
   d="m 89.6633,770.698 -3.66125,0 0,-23.3403 c -0.881346,0.84118 -2.03442,1.68117 -3.46513,2.52235 -1.43898,0.84 -2.72319,1.47206 -3.86327,1.8891 l 0,-3.53602 c 2.04978,-0.96523 3.84201,-2.13248 5.37668,-3.50057 1.52877,-1.37518 2.61923,-2.70193 3.25838,-3.99441 l 2.35459,0 0,29.9598 z"
   inkscape:connector-curvature="0"
   style="fill:#000000" />
   <path
   id="path3316"
   class="fil1"
   d="m 41.109,830.017 c 0,-3.52893 0.361517,-6.37026 1.09046,-8.51692 0.723034,-2.15256 1.8064,-3.81365 3.23711,-4.97972 1.43071,-1.16725 3.23003,-1.75088 5.39795,-1.75088 1.60438,0 3.00674,0.32607 4.21652,0.97232 1.2086,0.63915 2.201,1.57012 2.99374,2.78581 0.784469,1.21569 1.40236,2.69484 1.84775,4.43863 0.451306,1.74379 0.673414,4.09129 0.673414,7.05077 0,3.50057 -0.361517,6.32064 -1.07628,8.47439 -0.723034,2.15374 -1.79932,3.81365 -3.23003,4.98799 -1.43189,1.17316 -3.23711,1.75678 -5.42512,1.75678 -2.87678,0 -5.13449,-1.02784 -6.77313,-3.09062 -1.9659,-2.47982 -2.95239,-6.52976 -2.95239,-12.1285 z m 3.76521,0 c 0,4.89702 0.576537,8.1554 1.72252,9.77987 1.14599,1.61856 2.55661,2.43138 4.23778,2.43138 1.68708,0 3.09771,-0.81873 4.24369,-2.44438 1.14599,-1.62565 1.72252,-4.88403 1.72252,-9.76687 0,-4.9112 -0.576537,-8.17667 -1.72252,-9.78814 -1.14599,-1.61856 -2.56961,-2.42429 -4.27913,-2.42429 -1.68826,0 -3.028,0.71595 -4.03576,2.13957 -1.25704,1.81349 -1.8891,5.17584 -1.8891,10.0729 z"
   inkscape:connector-curvature="0"
   style="fill:#000000" />
   <path
   id="path3318"
   class="fil1"
   d="m 66.2616,844.73 0,-4.17517 4.17517,0 0,4.17517 c 0,1.53468 -0.271729,2.77163 -0.812823,3.71677 -0.549364,0.93687 -1.41063,1.667 -2.58497,2.18801 l -1.02075,-1.57012 c 0.771473,-0.34025 1.34092,-0.84118 1.70835,-1.49333 0.368606,-0.66042 0.57063,-1.60438 0.61198,-2.84134 l -2.07695,0 z"
   inkscape:connector-curvature="0"
   style="fill:#000000" />
   <path
   id="path3320"
   class="fil1"
   d="m 75.8678,830.017 c 0,-3.52893 0.361517,-6.37026 1.09046,-8.51692 0.723034,-2.15256 1.8064,-3.81365 3.23711,-4.97972 1.43071,-1.16725 3.23003,-1.75088 5.39795,-1.75088 1.60438,0 3.00674,0.32607 4.21652,0.97232 1.2086,0.63915 2.201,1.57012 2.99374,2.78581 0.784469,1.21569 1.40236,2.69484 1.84775,4.43863 0.451306,1.74379 0.673414,4.09129 0.673414,7.05077 0,3.50057 -0.361517,6.32064 -1.07628,8.47439 -0.723034,2.15374 -1.79932,3.81365 -3.23003,4.98799 -1.43189,1.17316 -3.23711,1.75678 -5.42512,1.75678 -2.87678,0 -5.13449,-1.02784 -6.77313,-3.09062 -1.9659,-2.47982 -2.95239,-6.52976 -2.95239,-12.1285 z m 3.76521,0 c 0,4.89702 0.576537,8.1554 1.72252,9.77987 1.14599,1.61856 2.55661,2.43138 4.23778,2.43138 1.68708,0 3.09771,-0.81873 4.24369,-2.44438 1.14599,-1.62565 1.72252,-4.88403 1.72252,-9.76687 0,-4.9112 -0.576537,-8.17667 -1.72252,-9.78814 -1.14599,-1.61856 -2.56961,-2.42429 -4.27913,-2.42429 -1.68826,0 -3.028,0.71595 -4.03576,2.13957 -1.25704,1.81349 -1.8891,5.17584 -1.8891,10.0729 z"
   inkscape:connector-curvature="0"
   style="fill:#000000" />
   <path
   class="fil2"
   d="m 101.966,896.023 3.66007,-0.48557 c 0.42413,2.07695 1.14008,3.57028 2.14666,4.48707 1.01485,0.91679 2.24353,1.37518 3.69551,1.37518 1.72252,0 3.18159,-0.59662 4.36892,-1.79223 1.18143,-1.19442 1.77923,-2.67357 1.77923,-4.43863 0,-1.68117 -0.54936,-3.07053 -1.64691,-4.16099 -1.10464,-1.09046 -2.50108,-1.63864 -4.19525,-1.63864 -0.69468,0 -1.55594,0.13823 -2.58378,0.40996 l 0.40877,-3.21703 c 0.24338,0.0283 0.43831,0.0425 0.59072,0.0425 1.55594,0 2.95948,-0.40996 4.20943,-1.22278 1.25113,-0.81282 1.87611,-2.06986 1.87611,-3.76521 0,-1.34092 -0.4584,-2.45855 -1.36928,-3.33399 -0.9097,-0.88253 -2.08286,-1.32674 -3.52066,-1.32674 -1.4248,0 -2.61214,0.45131 -3.55728,1.34092 -0.95105,0.89552 -1.56303,2.24353 -1.83358,4.03576 l -3.66125,-0.65333 c 0.4454,-2.45855 1.46615,-4.36183 3.04927,-5.70984 1.59138,-1.34801 3.56437,-2.02851 5.92605,-2.02851 1.62565,0 3.12606,0.35443 4.49415,1.04911 1.36809,0.70177 2.4172,1.65282 3.14614,2.86142 0.72303,1.2086 1.09164,2.48691 1.09164,3.84909 0,1.28421 -0.34734,2.45855 -1.04202,3.52184 -0.69468,1.05502 -1.71662,1.89619 -3.07053,2.52117 1.76387,0.40287 3.13315,1.24995 4.11255,2.53535 0.97231,1.27831 1.45788,2.88269 1.45788,4.80723 0,2.60505 -0.94396,4.81314 -2.84724,6.62663 -1.89737,1.81231 -4.3004,2.7161 -7.20435,2.7161 -2.61805,0 -4.79306,-0.77856 -6.52267,-2.34159 -1.72961,-1.55594 -2.7161,-3.57737 -2.9583,-6.06427 z"
   id="path3322"
   inkscape:connector-curvature="0"
   style="fill:#000000" />
   <path
   class="fil2"
   d="m 125.124,896.085 3.84791,-0.32607 c 0.28472,1.87611 0.94514,3.27846 1.98007,4.22361 1.04202,0.94514 2.29197,1.41653 3.75812,1.41653 1.76387,0 3.25838,-0.66633 4.47289,-1.99307 1.22278,-1.33383 1.83476,-3.09771 1.83476,-5.2928 0,-2.09113 -0.58363,-3.73804 -1.75797,-4.94664 -1.17434,-1.2086 -2.70902,-1.81231 -4.6123,-1.81231 -1.18025,0 -2.24353,0.27054 -3.19576,0.80573 -0.95105,0.53401 -1.69417,1.22869 -2.23644,2.08404 l -3.43796,-0.4454 2.88977,-15.3231 14.8376,0 0,3.50057 -11.9064,0 -1.61147,8.01599 c 1.79223,-1.24995 3.67424,-1.87493 5.64014,-1.87493 2.60505,0 4.80014,0.90261 6.59237,2.70902 1.79223,1.80522 2.68775,4.12555 2.68775,6.9598 0,2.70193 -0.79156,5.03643 -2.36168,7.00233 -1.91746,2.41011 -4.52842,3.61872 -7.83523,3.61872 -2.7161,0 -4.93246,-0.75729 -6.6479,-2.27779 -1.71543,-1.52168 -2.69484,-3.53602 -2.93821,-6.04419 z"
   id="path3324"
   inkscape:connector-curvature="0"
   style="fill:#000000" />
   <path
   class="fil2"
   d="m 148.304,889.188 c 0,-3.52893 0.36152,-6.37026 1.09046,-8.51692 0.72303,-2.15256 1.8064,-3.81365 3.23711,-4.97972 1.43071,-1.16725 3.23003,-1.75088 5.39795,-1.75088 1.60438,0 3.00674,0.32607 4.21652,0.97232 1.2086,0.63915 2.201,1.57012 2.99374,2.78581 0.78447,1.21569 1.40236,2.69484 1.84775,4.43863 0.45131,1.74379 0.67341,4.09129 0.67341,7.05077 0,3.50057 -0.36151,6.32064 -1.07628,8.47439 -0.72303,2.15374 -1.79932,3.81365 -3.23003,4.98799 -1.43189,1.17316 -3.23711,1.75678 -5.42512,1.75678 -2.87678,0 -5.13449,-1.02784 -6.77313,-3.09062 -1.9659,-2.47982 -2.95239,-6.52976 -2.95239,-12.1285 z m 3.76521,0 c 0,4.89702 0.57654,8.1554 1.72252,9.77987 1.14599,1.61856 2.55661,2.43138 4.23778,2.43138 1.68708,0 3.09771,-0.81873 4.24369,-2.44438 1.14599,-1.62565 1.72252,-4.88403 1.72252,-9.76687 0,-4.9112 -0.57654,-8.17667 -1.72252,-9.78814 -1.14599,-1.61856 -2.56961,-2.42429 -4.27913,-2.42429 -1.68826,0 -3.028,0.71595 -4.03576,2.13957 -1.25704,1.81349 -1.8891,5.17584 -1.8891,10.0729 z"
   id="path3326"
   inkscape:connector-curvature="0"
   style="fill:#000000" />
   <path
   class="fil2"
   d="m 269.874,903.9 0,-7.14055 -12.9414,0 0,-3.36235 13.6148,-19.3317 2.99374,0 0,19.3317 4.02867,0 0,3.36235 -4.02867,0 0,7.14055 -3.66715,0 z m 0,-10.5029 0,-13.4482 -9.33683,13.4482 9.33683,0 z"
   id="path3328"
   inkscape:connector-curvature="0"
   style="fill:#000000" />
   <path
   class="fil2"
   d="m 281.314,889.188 c 0,-3.52893 0.36152,-6.37026 1.09046,-8.51692 0.72303,-2.15256 1.8064,-3.81365 3.23711,-4.97972 1.43071,-1.16725 3.23003,-1.75088 5.39795,-1.75088 1.60438,0 3.00674,0.32607 4.21652,0.97232 1.2086,0.63915 2.201,1.57012 2.99374,2.78581 0.78447,1.21569 1.40236,2.69484 1.84775,4.43863 0.45131,1.74379 0.67341,4.09129 0.67341,7.05077 0,3.50057 -0.36151,6.32064 -1.07628,8.47439 -0.72303,2.15374 -1.79932,3.81365 -3.23003,4.98799 -1.43189,1.17316 -3.23711,1.75678 -5.42512,1.75678 -2.87678,0 -5.13449,-1.02784 -6.77313,-3.09062 -1.9659,-2.47982 -2.95239,-6.52976 -2.95239,-12.1285 z m 3.76521,0 c 0,4.89702 0.57654,8.1554 1.72252,9.77987 1.14599,1.61856 2.55661,2.43138 4.23778,2.43138 1.68708,0 3.09771,-0.81873 4.24369,-2.44438 1.14599,-1.62565 1.72252,-4.88403 1.72252,-9.76687 0,-4.9112 -0.57654,-8.17667 -1.72252,-9.78814 -1.14599,-1.61856 -2.56961,-2.42429 -4.27913,-2.42429 -1.68826,0 -3.028,0.71595 -4.03576,2.13957 -1.25704,1.81349 -1.8891,5.17584 -1.8891,10.0729 z"
   id="path3330"
   inkscape:connector-curvature="0"
   style="fill:#000000" />
   <path
   class="fil2"
   d="m 304.493,889.188 c 0,-3.52893 0.36152,-6.37026 1.09046,-8.51692 0.72303,-2.15256 1.8064,-3.81365 3.23711,-4.97972 1.43071,-1.16725 3.23003,-1.75088 5.39795,-1.75088 1.60438,0 3.00674,0.32607 4.21652,0.97232 1.2086,0.63915 2.201,1.57012 2.99374,2.78581 0.78447,1.21569 1.40236,2.69484 1.84775,4.43863 0.45131,1.74379 0.67341,4.09129 0.67341,7.05077 0,3.50057 -0.36151,6.32064 -1.07628,8.47439 -0.72303,2.15374 -1.79932,3.81365 -3.23003,4.98799 -1.43189,1.17316 -3.23711,1.75678 -5.42512,1.75678 -2.87678,0 -5.13449,-1.02784 -6.77313,-3.09062 -1.9659,-2.47982 -2.95239,-6.52976 -2.95239,-12.1285 z m 3.76521,0 c 0,4.89702 0.57654,8.1554 1.72252,9.77987 1.14599,1.61856 2.55661,2.43138 4.23778,2.43138 1.68708,0 3.09771,-0.81873 4.24369,-2.44438 1.14599,-1.62565 1.72252,-4.88403 1.72252,-9.76687 0,-4.9112 -0.57654,-8.17667 -1.72252,-9.78814 -1.14599,-1.61856 -2.56961,-2.42429 -4.27913,-2.42429 -1.68826,0 -3.028,0.71595 -4.03576,2.13957 -1.25704,1.81349 -1.8891,5.17584 -1.8891,10.0729 z"
   id="path3332"
   inkscape:connector-curvature="0"
   style="fill:#000000" />
   <path
   class="fil2"
   d="m 435.118,903.9 0,-7.14055 -12.9414,0 0,-3.36235 13.6148,-19.3317 2.99374,0 0,19.3317 4.02867,0 0,3.36235 -4.02867,0 0,7.14055 -3.66715,0 z m 0,-10.5029 0,-13.4482 -9.33683,13.4482 9.33683,0 z"
   id="path3334"
   inkscape:connector-curvature="0"
   style="fill:#000000" />
   <path
   class="fil2"
   d="m 446.558,896.085 3.84791,-0.32607 c 0.28472,1.87611 0.94514,3.27846 1.98007,4.22361 1.04202,0.94514 2.29197,1.41653 3.75812,1.41653 1.76387,0 3.25838,-0.66633 4.47289,-1.99307 1.22278,-1.33383 1.83476,-3.09771 1.83476,-5.2928 0,-2.09113 -0.58363,-3.73804 -1.75797,-4.94664 -1.17434,-1.2086 -2.70902,-1.81231 -4.6123,-1.81231 -1.18025,0 -2.24353,0.27054 -3.19576,0.80573 -0.95105,0.53401 -1.69417,1.22869 -2.23644,2.08404 l -3.43796,-0.4454 2.88977,-15.3231 14.8376,0 0,3.50057 -11.9064,0 -1.61147,8.01599 c 1.79223,-1.24995 3.67424,-1.87493 5.64014,-1.87493 2.60505,0 4.80014,0.90261 6.59237,2.70902 1.79223,1.80522 2.68775,4.12555 2.68775,6.9598 0,2.70193 -0.79156,5.03643 -2.36168,7.00233 -1.91746,2.41011 -4.52842,3.61872 -7.83523,3.61872 -2.7161,0 -4.93246,-0.75729 -6.6479,-2.27779 -1.71543,-1.52168 -2.69484,-3.53602 -2.93821,-6.04419 z"
   id="path3336"
   inkscape:connector-curvature="0"
   style="fill:#000000" />
   <path
   class="fil2"
   d="m 469.737,889.188 c 0,-3.52893 0.36152,-6.37026 1.09046,-8.51692 0.72303,-2.15256 1.8064,-3.81365 3.23711,-4.97972 1.43071,-1.16725 3.23003,-1.75088 5.39795,-1.75088 1.60438,0 3.00674,0.32607 4.21652,0.97232 1.2086,0.63915 2.201,1.57012 2.99374,2.78581 0.78447,1.21569 1.40236,2.69484 1.84775,4.43863 0.45131,1.74379 0.67341,4.09129 0.67341,7.05077 0,3.50057 -0.36151,6.32064 -1.07628,8.47439 -0.72303,2.15374 -1.79932,3.81365 -3.23003,4.98799 -1.43189,1.17316 -3.23711,1.75678 -5.42512,1.75678 -2.87678,0 -5.13449,-1.02784 -6.77313,-3.09062 -1.9659,-2.47982 -2.95239,-6.52976 -2.95239,-12.1285 z m 3.76521,0 c 0,4.89702 0.57654,8.1554 1.72252,9.77987 1.14599,1.61856 2.55661,2.43138 4.23778,2.43138 1.68708,0 3.09771,-0.81873 4.24369,-2.44438 1.14599,-1.62565 1.72252,-4.88403 1.72252,-9.76687 0,-4.9112 -0.57654,-8.17667 -1.72252,-9.78814 -1.14599,-1.61856 -2.56961,-2.42429 -4.27913,-2.42429 -1.68826,0 -3.028,0.71595 -4.03576,2.13957 -1.25704,1.81349 -1.8891,5.17584 -1.8891,10.0729 z"
   id="path3338"
   inkscape:connector-curvature="0"
   style="fill:#000000" />
   <path
   class="fil2"
   d="m 581.831,896.085 3.84791,-0.32607 c 0.28472,1.87611 0.94514,3.27846 1.98007,4.22361 1.04202,0.94514 2.29197,1.41653 3.75812,1.41653 1.76387,0 3.25838,-0.66633 4.47289,-1.99307 1.22278,-1.33383 1.83476,-3.09771 1.83476,-5.2928 0,-2.09113 -0.58363,-3.73804 -1.75797,-4.94664 -1.17434,-1.2086 -2.70902,-1.81231 -4.6123,-1.81231 -1.18025,0 -2.24353,0.27054 -3.19576,0.80573 -0.95105,0.53401 -1.69417,1.22869 -2.23644,2.08404 l -3.43796,-0.4454 2.88977,-15.3231 14.8376,0 0,3.50057 -11.9064,0 -1.61147,8.01599 c 1.79223,-1.24995 3.67424,-1.87493 5.64014,-1.87493 2.60505,0 4.80014,0.90261 6.59237,2.70902 1.79223,1.80522 2.68775,4.12555 2.68775,6.9598 0,2.70193 -0.79156,5.03643 -2.36168,7.00233 -1.91746,2.41011 -4.52842,3.61872 -7.83523,3.61872 -2.7161,0 -4.93246,-0.75729 -6.6479,-2.27779 -1.71543,-1.52168 -2.69484,-3.53602 -2.93821,-6.04419 z"
   id="path3340"
   inkscape:connector-curvature="0"
   style="fill:#000000" />
   <path
   class="fil2"
   d="m 605.011,889.188 c 0,-3.52893 0.36152,-6.37026 1.09046,-8.51692 0.72303,-2.15256 1.8064,-3.81365 3.23711,-4.97972 1.43071,-1.16725 3.23003,-1.75088 5.39795,-1.75088 1.60438,0 3.00674,0.32607 4.21652,0.97232 1.2086,0.63915 2.201,1.57012 2.99374,2.78581 0.78447,1.21569 1.40236,2.69484 1.84775,4.43863 0.45131,1.74379 0.67341,4.09129 0.67341,7.05077 0,3.50057 -0.36151,6.32064 -1.07628,8.47439 -0.72303,2.15374 -1.79932,3.81365 -3.23003,4.98799 -1.43189,1.17316 -3.23711,1.75678 -5.42512,1.75678 -2.87678,0 -5.13449,-1.02784 -6.77313,-3.09062 -1.9659,-2.47982 -2.95239,-6.52976 -2.95239,-12.1285 z m 3.76521,0 c 0,4.89702 0.57654,8.1554 1.72252,9.77987 1.14599,1.61856 2.55661,2.43138 4.23778,2.43138 1.68708,0 3.09771,-0.81873 4.24369,-2.44438 1.14599,-1.62565 1.72252,-4.88403 1.72252,-9.76687 0,-4.9112 -0.57654,-8.17667 -1.72252,-9.78814 -1.14599,-1.61856 -2.56961,-2.42429 -4.27913,-2.42429 -1.68826,0 -3.028,0.71595 -4.03576,2.13957 -1.25704,1.81349 -1.8891,5.17584 -1.8891,10.0729 z"
   id="path3342"
   inkscape:connector-curvature="0"
   style="fill:#000000" />
   <path
   class="fil2"
   d="m 628.19,889.188 c 0,-3.52893 0.36152,-6.37026 1.09046,-8.51692 0.72303,-2.15256 1.8064,-3.81365 3.23711,-4.97972 1.43071,-1.16725 3.23003,-1.75088 5.39795,-1.75088 1.60438,0 3.00674,0.32607 4.21652,0.97232 1.2086,0.63915 2.201,1.57012 2.99374,2.78581 0.78447,1.21569 1.40236,2.69484 1.84775,4.43863 0.45131,1.74379 0.67341,4.09129 0.67341,7.05077 0,3.50057 -0.36151,6.32064 -1.07628,8.47439 -0.72303,2.15374 -1.79932,3.81365 -3.23003,4.98799 -1.43189,1.17316 -3.23711,1.75678 -5.42512,1.75678 -2.87678,0 -5.13449,-1.02784 -6.77313,-3.09062 -1.9659,-2.47982 -2.95239,-6.52976 -2.95239,-12.1285 z m 3.76521,0 c 0,4.89702 0.57654,8.1554 1.72252,9.77987 1.14599,1.61856 2.55661,2.43138 4.23778,2.43138 1.68708,0 3.09771,-0.81873 4.24369,-2.44438 1.14599,-1.62565 1.72252,-4.88403 1.72252,-9.76687 0,-4.9112 -0.57654,-8.17667 -1.72252,-9.78814 -1.14599,-1.61856 -2.56961,-2.42429 -4.27913,-2.42429 -1.68826,0 -3.028,0.71595 -4.03576,2.13957 -1.25704,1.81349 -1.8891,5.17584 -1.8891,10.0729 z"
   id="path3344"
   inkscape:connector-curvature="0"
   style="fill:#000000" />
   <path
   class="fil2"
   d="m 744.812,896.085 3.84791,-0.32607 c 0.28472,1.87611 0.94514,3.27846 1.98007,4.22361 1.04202,0.94514 2.29197,1.41653 3.75812,1.41653 1.76387,0 3.25838,-0.66633 4.47289,-1.99307 1.22278,-1.33383 1.83476,-3.09771 1.83476,-5.2928 0,-2.09113 -0.58363,-3.73804 -1.75797,-4.94664 -1.17434,-1.2086 -2.70902,-1.81231 -4.6123,-1.81231 -1.18025,0 -2.24353,0.27054 -3.19576,0.80573 -0.95105,0.53401 -1.69417,1.22869 -2.23644,2.08404 l -3.43796,-0.4454 2.88977,-15.3231 14.8376,0 0,3.50057 -11.9064,0 -1.61147,8.01599 c 1.79223,-1.24995 3.67424,-1.87493 5.64014,-1.87493 2.60505,0 4.80014,0.90261 6.59237,2.70902 1.79223,1.80522 2.68775,4.12555 2.68775,6.9598 0,2.70193 -0.79156,5.03643 -2.36168,7.00233 -1.91746,2.41011 -4.52842,3.61872 -7.83523,3.61872 -2.7161,0 -4.93246,-0.75729 -6.6479,-2.27779 -1.71543,-1.52168 -2.69484,-3.53602 -2.93821,-6.04419 z"
   id="path3346"
   inkscape:connector-curvature="0"
   style="fill:#000000" />
   <path
   class="fil2"
   d="m 767.991,896.085 3.84791,-0.32607 c 0.28472,1.87611 0.94514,3.27846 1.98007,4.22361 1.04202,0.94514 2.29197,1.41653 3.75812,1.41653 1.76387,0 3.25838,-0.66633 4.47289,-1.99307 1.22278,-1.33383 1.83476,-3.09771 1.83476,-5.2928 0,-2.09113 -0.58363,-3.73804 -1.75797,-4.94664 -1.17434,-1.2086 -2.70902,-1.81231 -4.6123,-1.81231 -1.18025,0 -2.24353,0.27054 -3.19576,0.80573 -0.95105,0.53401 -1.69417,1.22869 -2.23644,2.08404 l -3.43796,-0.4454 2.88977,-15.3231 14.8376,0 0,3.50057 -11.9064,0 -1.61147,8.01599 c 1.79223,-1.24995 3.67424,-1.87493 5.64014,-1.87493 2.60505,0 4.80014,0.90261 6.59237,2.70902 1.79223,1.80522 2.68775,4.12555 2.68775,6.9598 0,2.70193 -0.79156,5.03643 -2.36168,7.00233 -1.91746,2.41011 -4.52842,3.61872 -7.83523,3.61872 -2.7161,0 -4.93246,-0.75729 -6.6479,-2.27779 -1.71543,-1.52168 -2.69484,-3.53602 -2.93821,-6.04419 z"
   id="path3348"
   inkscape:connector-curvature="0"
   style="fill:#000000" />
   <path
   class="fil2"
   d="m 791.171,889.188 c 0,-3.52893 0.36152,-6.37026 1.09046,-8.51692 0.72303,-2.15256 1.8064,-3.81365 3.23711,-4.97972 1.43071,-1.16725 3.23003,-1.75088 5.39795,-1.75088 1.60438,0 3.00674,0.32607 4.21652,0.97232 1.2086,0.63915 2.201,1.57012 2.99374,2.78581 0.78447,1.21569 1.40236,2.69484 1.84775,4.43863 0.45131,1.74379 0.67341,4.09129 0.67341,7.05077 0,3.50057 -0.36151,6.32064 -1.07628,8.47439 -0.72303,2.15374 -1.79932,3.81365 -3.23003,4.98799 -1.43189,1.17316 -3.23711,1.75678 -5.42512,1.75678 -2.87678,0 -5.13449,-1.02784 -6.77313,-3.09062 -1.9659,-2.47982 -2.95239,-6.52976 -2.95239,-12.1285 z m 3.76521,0 c 0,4.89702 0.57654,8.1554 1.72252,9.77987 1.14599,1.61856 2.55661,2.43138 4.23778,2.43138 1.68708,0 3.09771,-0.81873 4.24369,-2.44438 1.14599,-1.62565 1.72252,-4.88403 1.72252,-9.76687 0,-4.9112 -0.57654,-8.17667 -1.72252,-9.78814 -1.14599,-1.61856 -2.56961,-2.42429 -4.27913,-2.42429 -1.68826,0 -3.028,0.71595 -4.03576,2.13957 -1.25704,1.81349 -1.8891,5.17584 -1.8891,10.0729 z"
   id="path3350"
   inkscape:connector-curvature="0"
   style="fill:#000000" />
   <path
   class="fil2"
   d="m 922.27,881.373 -3.63998,0.28472 c -0.32607,-1.4378 -0.78565,-2.48691 -1.38227,-3.13197 -0.99358,-1.04911 -2.21636,-1.57012 -3.66834,-1.57012 -1.16607,0 -2.18801,0.32608 -3.06935,0.97941 -1.15307,0.83999 -2.06396,2.06986 -2.73028,3.68133 -0.66042,1.61147 -1.00776,3.91053 -1.03493,6.89836 0.88135,-1.34092 1.95881,-2.34159 3.23711,-2.99492 1.27122,-0.64506 2.61096,-0.97232 4.00741,-0.97232 2.44556,0 4.52251,0.89671 6.23794,2.69602 1.71543,1.79813 2.57788,4.11846 2.57788,6.96688 0,1.87493 -0.40996,3.61163 -1.21569,5.2231 -0.80573,1.60556 -1.91746,2.84134 -3.32808,3.69551 -1.40944,0.85536 -3.00792,1.27831 -4.80014,1.27831 -3.05636,0 -5.54326,-1.11763 -7.46663,-3.36825 -1.93164,-2.24471 -2.88977,-5.94613 -2.88977,-11.1007 0,-5.76537 1.0621,-9.95472 3.19458,-12.5728 1.85484,-2.27898 4.35593,-3.42496 7.50916,-3.42496 2.34159,0 4.26496,0.66042 5.76537,1.98007 1.5016,1.31257 2.39712,3.13197 2.69602,5.45229 z m -14.9557,12.8587 c 0,1.26413 0.27055,2.47273 0.80573,3.6258 0.53519,1.15307 1.28539,2.02851 2.24353,2.63222 0.96523,0.60489 1.98007,0.9097 3.03509,0.9097 1.55003,0 2.87678,-0.62498 3.98732,-1.87493 1.11172,-1.25113 1.66818,-2.9453 1.66818,-5.08487 0,-2.06277 -0.54936,-3.68842 -1.64691,-4.87694 -1.09755,-1.18734 -2.47982,-1.77805 -4.14681,-1.77805 -1.65991,0 -3.06344,0.59071 -4.21652,1.77805 -1.15307,1.18852 -1.72961,2.74446 -1.72961,4.66901 z"
   id="path3352"
   inkscape:connector-curvature="0"
   style="fill:#000000" />
   <path
   class="fil2"
   d="m 926.444,889.188 c 0,-3.52893 0.36152,-6.37026 1.09046,-8.51692 0.72303,-2.15256 1.8064,-3.81365 3.23711,-4.97972 1.43071,-1.16725 3.23003,-1.75088 5.39795,-1.75088 1.60438,0 3.00674,0.32607 4.21652,0.97232 1.2086,0.63915 2.201,1.57012 2.99374,2.78581 0.78447,1.21569 1.40236,2.69484 1.84775,4.43863 0.45131,1.74379 0.67341,4.09129 0.67341,7.05077 0,3.50057 -0.36151,6.32064 -1.07628,8.47439 -0.72303,2.15374 -1.79932,3.81365 -3.23003,4.98799 -1.43189,1.17316 -3.23711,1.75678 -5.42512,1.75678 -2.87678,0 -5.13449,-1.02784 -6.77313,-3.09062 -1.9659,-2.47982 -2.95239,-6.52976 -2.95239,-12.1285 z m 3.76521,0 c 0,4.89702 0.57654,8.1554 1.72252,9.77987 1.14599,1.61856 2.55661,2.43138 4.23778,2.43138 1.68708,0 3.09771,-0.81873 4.24369,-2.44438 1.14599,-1.62565 1.72252,-4.88403 1.72252,-9.76687 0,-4.9112 -0.57654,-8.17667 -1.72252,-9.78814 -1.14599,-1.61856 -2.56961,-2.42429 -4.27913,-2.42429 -1.68826,0 -3.028,0.71595 -4.03576,2.13957 -1.25704,1.81349 -1.8891,5.17584 -1.8891,10.0729 z"
   id="path3354"
   inkscape:connector-curvature="0"
   style="fill:#000000" />
   <path
   class="fil2"
   d="m 949.624,889.188 c 0,-3.52893 0.36152,-6.37026 1.09046,-8.51692 0.72303,-2.15256 1.8064,-3.81365 3.23711,-4.97972 1.43071,-1.16725 3.23003,-1.75088 5.39795,-1.75088 1.60438,0 3.00674,0.32607 4.21652,0.97232 1.2086,0.63915 2.201,1.57012 2.99374,2.78581 0.78447,1.21569 1.40236,2.69484 1.84775,4.43863 0.45131,1.74379 0.67341,4.09129 0.67341,7.05077 0,3.50057 -0.36151,6.32064 -1.07628,8.47439 -0.72303,2.15374 -1.79932,3.81365 -3.23003,4.98799 -1.43189,1.17316 -3.23711,1.75678 -5.42512,1.75678 -2.87678,0 -5.13449,-1.02784 -6.77313,-3.09062 -1.9659,-2.47982 -2.95239,-6.52976 -2.95239,-12.1285 z m 3.76521,0 c 0,4.89702 0.57654,8.1554 1.72252,9.77987 1.14599,1.61856 2.55661,2.43138 4.23778,2.43138 1.68708,0 3.09771,-0.81873 4.24369,-2.44438 1.14599,-1.62565 1.72252,-4.88403 1.72252,-9.76687 0,-4.9112 -0.57654,-8.17667 -1.72252,-9.78814 -1.14599,-1.61856 -2.56961,-2.42429 -4.27913,-2.42429 -1.68826,0 -3.028,0.71595 -4.03576,2.13957 -1.25704,1.81349 -1.8891,5.17584 -1.8891,10.0729 z"
   id="path3356"
   inkscape:connector-curvature="0"
   style="fill:#000000" />
   <path
   class="fil2"
   d="m 1082.99,881.373 -3.64,0.28472 c -0.3261,-1.4378 -0.7856,-2.48691 -1.3822,-3.13197 -0.9936,-1.04911 -2.2164,-1.57012 -3.6684,-1.57012 -1.1661,0 -2.188,0.32608 -3.0693,0.97941 -1.1531,0.83999 -2.064,2.06986 -2.7303,3.68133 -0.6604,1.61147 -1.0078,3.91053 -1.0349,6.89836 0.8813,-1.34092 1.9588,-2.34159 3.2371,-2.99492 1.2712,-0.64506 2.6109,-0.97232 4.0074,-0.97232 2.4455,0 4.5225,0.89671 6.2379,2.69602 1.7154,1.79813 2.5779,4.11846 2.5779,6.96688 0,1.87493 -0.41,3.61163 -1.2157,5.2231 -0.8057,1.60556 -1.9175,2.84134 -3.3281,3.69551 -1.4094,0.85536 -3.0079,1.27831 -4.8001,1.27831 -3.0564,0 -5.5433,-1.11763 -7.4666,-3.36825 -1.9317,-2.24471 -2.8898,-5.94613 -2.8898,-11.1007 0,-5.76537 1.0621,-9.95472 3.1946,-12.5728 1.8548,-2.27898 4.3559,-3.42496 7.5091,-3.42496 2.3416,0 4.265,0.66042 5.7654,1.98007 1.5016,1.31257 2.3971,3.13197 2.696,5.45229 z m -14.9557,12.8587 c 0,1.26413 0.2705,2.47273 0.8057,3.6258 0.5352,1.15307 1.2854,2.02851 2.2436,2.63222 0.9652,0.60489 1.98,0.9097 3.0351,0.9097 1.55,0 2.8767,-0.62498 3.9873,-1.87493 1.1117,-1.25113 1.6682,-2.9453 1.6682,-5.08487 0,-2.06277 -0.5494,-3.68842 -1.647,-4.87694 -1.0975,-1.18734 -2.4798,-1.77805 -4.1468,-1.77805 -1.6599,0 -3.0634,0.59071 -4.2165,1.77805 -1.1531,1.18852 -1.7296,2.74446 -1.7296,4.66901 z"
   id="path3358"
   inkscape:connector-curvature="0"
   style="fill:#000000" />
   <path
   class="fil2"
   d="m 1087.16,896.085 3.8479,-0.32607 c 0.2847,1.87611 0.9452,3.27846 1.9801,4.22361 1.042,0.94514 2.292,1.41653 3.7581,1.41653 1.7639,0 3.2584,-0.66633 4.4729,-1.99307 1.2228,-1.33383 1.8348,-3.09771 1.8348,-5.2928 0,-2.09113 -0.5837,-3.73804 -1.758,-4.94664 -1.1744,-1.2086 -2.709,-1.81231 -4.6123,-1.81231 -1.1803,0 -2.2435,0.27054 -3.1958,0.80573 -0.951,0.53401 -1.6941,1.22869 -2.2364,2.08404 l -3.438,-0.4454 2.8898,-15.3231 14.8376,0 0,3.50057 -11.9064,0 -1.6115,8.01599 c 1.7923,-1.24995 3.6743,-1.87493 5.6402,-1.87493 2.605,0 4.8001,0.90261 6.5923,2.70902 1.7923,1.80522 2.6878,4.12555 2.6878,6.9598 0,2.70193 -0.7916,5.03643 -2.3617,7.00233 -1.9175,2.41011 -4.5284,3.61872 -7.8352,3.61872 -2.7161,0 -4.9325,-0.75729 -6.6479,-2.27779 -1.7155,-1.52168 -2.6949,-3.53602 -2.9382,-6.04419 z"
   id="path3360"
   inkscape:connector-curvature="0"
   style="fill:#000000" />
   <path
   class="fil2"
   d="m 1110.34,889.188 c 0,-3.52893 0.3615,-6.37026 1.0905,-8.51692 0.723,-2.15256 1.8064,-3.81365 3.2371,-4.97972 1.4307,-1.16725 3.23,-1.75088 5.3979,-1.75088 1.6044,0 3.0068,0.32607 4.2165,0.97232 1.2086,0.63915 2.201,1.57012 2.9938,2.78581 0.7844,1.21569 1.4023,2.69484 1.8477,4.43863 0.4513,1.74379 0.6734,4.09129 0.6734,7.05077 0,3.50057 -0.3615,6.32064 -1.0762,8.47439 -0.7231,2.15374 -1.7994,3.81365 -3.2301,4.98799 -1.4319,1.17316 -3.2371,1.75678 -5.4251,1.75678 -2.8768,0 -5.1345,-1.02784 -6.7731,-3.09062 -1.9659,-2.47982 -2.9524,-6.52976 -2.9524,-12.1285 z m 3.7652,0 c 0,4.89702 0.5765,8.1554 1.7225,9.77987 1.146,1.61856 2.5566,2.43138 4.2378,2.43138 1.6871,0 3.0977,-0.81873 4.2437,-2.44438 1.146,-1.62565 1.7225,-4.88403 1.7225,-9.76687 0,-4.9112 -0.5765,-8.17667 -1.7225,-9.78814 -1.146,-1.61856 -2.5696,-2.42429 -4.2791,-2.42429 -1.6883,0 -3.028,0.71595 -4.0358,2.13957 -1.257,1.81349 -1.8891,5.17584 -1.8891,10.0729 z"
   id="path3362"
   inkscape:connector-curvature="0"
   style="fill:#000000" />
   <path
   class="fil2"
   d="m 1222.68,877.976 0,-3.52184 19.3104,0 0,2.84842 c -1.8962,2.02142 -3.7782,4.70917 -5.6472,8.05734 -1.862,3.34817 -3.3068,6.8003 -4.3205,10.3363 -0.736,2.50108 -1.2015,5.23137 -1.4035,8.20384 l -3.7641,0 c 0.041,-2.3475 0.4998,-5.18175 1.3823,-8.50983 0.8813,-3.31981 2.1455,-6.52857 3.7924,-9.61328 1.6528,-3.08471 3.4037,-5.68858 5.2656,-7.80097 l -14.6155,0 z"
   id="path3364"
   inkscape:connector-curvature="0"
   style="fill:#000000" />
   <path
   class="fil2"
   d="m 1245.61,889.188 c 0,-3.52893 0.3615,-6.37026 1.0905,-8.51692 0.723,-2.15256 1.8064,-3.81365 3.2371,-4.97972 1.4307,-1.16725 3.23,-1.75088 5.3979,-1.75088 1.6044,0 3.0068,0.32607 4.2165,0.97232 1.2086,0.63915 2.201,1.57012 2.9938,2.78581 0.7844,1.21569 1.4023,2.69484 1.8477,4.43863 0.4513,1.74379 0.6734,4.09129 0.6734,7.05077 0,3.50057 -0.3615,6.32064 -1.0762,8.47439 -0.7231,2.15374 -1.7994,3.81365 -3.2301,4.98799 -1.4319,1.17316 -3.2371,1.75678 -5.4251,1.75678 -2.8768,0 -5.1345,-1.02784 -6.7731,-3.09062 -1.9659,-2.47982 -2.9524,-6.52976 -2.9524,-12.1285 z m 3.7652,0 c 0,4.89702 0.5765,8.1554 1.7225,9.77987 1.146,1.61856 2.5566,2.43138 4.2378,2.43138 1.6871,0 3.0977,-0.81873 4.2437,-2.44438 1.146,-1.62565 1.7225,-4.88403 1.7225,-9.76687 0,-4.9112 -0.5765,-8.17667 -1.7225,-9.78814 -1.146,-1.61856 -2.5696,-2.42429 -4.2791,-2.42429 -1.6883,0 -3.028,0.71595 -4.0358,2.13957 -1.257,1.81349 -1.8891,5.17584 -1.8891,10.0729 z"
   id="path3366"
   inkscape:connector-curvature="0"
   style="fill:#000000" />
   <path
   class="fil2"
   d="m 1268.79,889.188 c 0,-3.52893 0.3615,-6.37026 1.0905,-8.51692 0.723,-2.15256 1.8064,-3.81365 3.2371,-4.97972 1.4307,-1.16725 3.23,-1.75088 5.3979,-1.75088 1.6044,0 3.0068,0.32607 4.2165,0.97232 1.2086,0.63915 2.201,1.57012 2.9938,2.78581 0.7844,1.21569 1.4023,2.69484 1.8477,4.43863 0.4513,1.74379 0.6734,4.09129 0.6734,7.05077 0,3.50057 -0.3615,6.32064 -1.0762,8.47439 -0.7231,2.15374 -1.7994,3.81365 -3.2301,4.98799 -1.4319,1.17316 -3.2371,1.75678 -5.4251,1.75678 -2.8768,0 -5.1345,-1.02784 -6.7731,-3.09062 -1.9659,-2.47982 -2.9524,-6.52976 -2.9524,-12.1285 z m 3.7652,0 c 0,4.89702 0.5765,8.1554 1.7225,9.77987 1.146,1.61856 2.5566,2.43138 4.2378,2.43138 1.6871,0 3.0977,-0.81873 4.2437,-2.44438 1.146,-1.62565 1.7225,-4.88403 1.7225,-9.76687 0,-4.9112 -0.5765,-8.17667 -1.7225,-9.78814 -1.146,-1.61856 -2.5696,-2.42429 -4.2791,-2.42429 -1.6883,0 -3.028,0.71595 -4.0358,2.13957 -1.257,1.81349 -1.8891,5.17584 -1.8891,10.0729 z"
   id="path3368"
   inkscape:connector-curvature="0"
   style="fill:#000000" />
   <path
   class="fil2"
   d="m 1385.66,877.976 0,-3.52184 19.3104,0 0,2.84842 c -1.8962,2.02142 -3.7782,4.70917 -5.6472,8.05734 -1.862,3.34817 -3.3068,6.8003 -4.3205,10.3363 -0.736,2.50108 -1.2015,5.23137 -1.4035,8.20384 l -3.7641,0 c 0.041,-2.3475 0.4998,-5.18175 1.3823,-8.50983 0.8813,-3.31981 2.1455,-6.52857 3.7924,-9.61328 1.6528,-3.08471 3.4037,-5.68858 5.2656,-7.80097 l -14.6155,0 z"
   id="path3370"
   inkscape:connector-curvature="0"
   style="fill:#000000" />
   <path
   class="fil2"
   d="m 1408.59,896.085 3.8479,-0.32607 c 0.2847,1.87611 0.9452,3.27846 1.9801,4.22361 1.042,0.94514 2.292,1.41653 3.7581,1.41653 1.7639,0 3.2584,-0.66633 4.4729,-1.99307 1.2228,-1.33383 1.8347,-3.09771 1.8347,-5.2928 0,-2.09113 -0.5836,-3.73804 -1.7579,-4.94664 -1.1744,-1.2086 -2.709,-1.81231 -4.6123,-1.81231 -1.1803,0 -2.2435,0.27054 -3.1958,0.80573 -0.951,0.53401 -1.6941,1.22869 -2.2364,2.08404 l -3.438,-0.4454 2.8898,-15.3231 14.8376,0 0,3.50057 -11.9064,0 -1.6115,8.01599 c 1.7923,-1.24995 3.6743,-1.87493 5.6402,-1.87493 2.605,0 4.8001,0.90261 6.5923,2.70902 1.7923,1.80522 2.6878,4.12555 2.6878,6.9598 0,2.70193 -0.7916,5.03643 -2.3617,7.00233 -1.9175,2.41011 -4.5284,3.61872 -7.8352,3.61872 -2.7161,0 -4.9325,-0.75729 -6.6479,-2.27779 -1.7155,-1.52168 -2.6949,-3.53602 -2.9382,-6.04419 z"
   id="path3372"
   inkscape:connector-curvature="0"
   style="fill:#000000" />
   <path
   class="fil2"
   d="m 1431.77,889.188 c 0,-3.52893 0.3615,-6.37026 1.0905,-8.51692 0.723,-2.15256 1.8064,-3.81365 3.2371,-4.97972 1.4307,-1.16725 3.23,-1.75088 5.3979,-1.75088 1.6044,0 3.0068,0.32607 4.2165,0.97232 1.2086,0.63915 2.201,1.57012 2.9938,2.78581 0.7844,1.21569 1.4023,2.69484 1.8477,4.43863 0.4513,1.74379 0.6734,4.09129 0.6734,7.05077 0,3.50057 -0.3615,6.32064 -1.0762,8.47439 -0.7231,2.15374 -1.7994,3.81365 -3.2301,4.98799 -1.4319,1.17316 -3.2371,1.75678 -5.4251,1.75678 -2.8768,0 -5.1345,-1.02784 -6.7731,-3.09062 -1.9659,-2.47982 -2.9524,-6.52976 -2.9524,-12.1285 z m 3.7652,0 c 0,4.89702 0.5765,8.1554 1.7225,9.77987 1.146,1.61856 2.5566,2.43138 4.2378,2.43138 1.6871,0 3.0977,-0.81873 4.2437,-2.44438 1.146,-1.62565 1.7225,-4.88403 1.7225,-9.76687 0,-4.9112 -0.5765,-8.17667 -1.7225,-9.78814 -1.146,-1.61856 -2.5696,-2.42429 -4.2791,-2.42429 -1.6883,0 -3.028,0.71595 -4.0358,2.13957 -1.257,1.81349 -1.8891,5.17584 -1.8891,10.0729 z"
   id="path3374"
   inkscape:connector-curvature="0"
   style="fill:#000000" />
   <path
   class="fil2"
   d="m 1554.04,887.722 c -1.5205,-0.55527 -2.6464,-1.34683 -3.3824,-2.38176 -0.729,-1.02902 -1.0976,-2.2648 -1.0976,-3.7026 0,-2.17501 0.7774,-3.99441 2.3404,-5.47474 1.5631,-1.47915 3.6329,-2.22227 6.225,-2.22227 2.6038,0 4.7021,0.7573 6.2935,2.27189 1.5831,1.51341 2.3746,3.35526 2.3746,5.52909 0,1.38227 -0.3603,2.58378 -1.0834,3.61163 -0.7289,1.02194 -1.8264,1.81349 -3.3068,2.36876 1.8277,0.5978 3.2242,1.55594 4.1823,2.88977 0.9522,1.32674 1.4307,2.91813 1.4307,4.75879 0,2.55543 -0.9026,4.695 -2.7019,6.4317 -1.8064,1.7367 -4.1823,2.60505 -7.1276,2.60505 -2.9441,0 -5.3129,-0.86835 -7.1193,-2.61214 -1.8064,-1.74261 -2.709,-3.91762 -2.709,-6.52267 0,-1.93754 0.4927,-3.56319 1.4792,-4.87576 0.9794,-1.30548 2.3829,-2.20218 4.2023,-2.67475 z m -0.736,-6.20959 c 0,1.40944 0.4584,2.56252 1.361,3.45922 0.9109,0.89552 2.0911,1.34801 3.5431,1.34801 1.4106,0 2.5708,-0.4454 3.4734,-1.33383 0.9026,-0.88962 1.348,-1.98007 1.348,-3.26547 0,-1.34683 -0.4584,-2.47273 -1.3894,-3.38952 -0.9309,-0.91679 -2.084,-1.37518 -3.4734,-1.37518 -1.3964,0 -2.5566,0.45131 -3.4805,1.34092 -0.9238,0.89552 -1.3822,1.9718 -1.3822,3.21585 z m -1.1803,13.7814 c 0,1.04202 0.2493,2.05569 0.7431,3.02918 0.4927,0.9794 1.2287,1.7367 2.2081,2.27071 0.9794,0.53519 2.0285,0.80573 3.1544,0.80573 1.7497,0 3.1946,-0.56236 4.3347,-1.69417 1.1389,-1.1259 1.7083,-2.55661 1.7083,-4.29331 0,-1.76387 -0.5836,-3.22294 -1.7567,-4.37601 -1.1744,-1.15307 -2.6476,-1.72961 -4.4115,-1.72961 -1.7225,0 -3.1473,0.56945 -4.2791,1.70835 -1.1318,1.14599 -1.7013,2.57079 -1.7013,4.27913 z"
   id="path3376"
   inkscape:connector-curvature="0"
   style="fill:#000000" />
   <path
   class="fil2"
   d="m 1571.58,889.188 c 0,-3.52893 0.3615,-6.37026 1.0905,-8.51692 0.723,-2.15256 1.8064,-3.81365 3.2371,-4.97972 1.4307,-1.16725 3.23,-1.75088 5.3979,-1.75088 1.6044,0 3.0068,0.32607 4.2165,0.97232 1.2086,0.63915 2.201,1.57012 2.9938,2.78581 0.7844,1.21569 1.4023,2.69484 1.8477,4.43863 0.4513,1.74379 0.6734,4.09129 0.6734,7.05077 0,3.50057 -0.3615,6.32064 -1.0762,8.47439 -0.7231,2.15374 -1.7994,3.81365 -3.2301,4.98799 -1.4319,1.17316 -3.2371,1.75678 -5.4251,1.75678 -2.8768,0 -5.1345,-1.02784 -6.7731,-3.09062 -1.9659,-2.47982 -2.9524,-6.52976 -2.9524,-12.1285 z m 3.7652,0 c 0,4.89702 0.5765,8.1554 1.7225,9.77987 1.146,1.61856 2.5566,2.43138 4.2378,2.43138 1.6871,0 3.0977,-0.81873 4.2437,-2.44438 1.146,-1.62565 1.7225,-4.88403 1.7225,-9.76687 0,-4.9112 -0.5765,-8.17667 -1.7225,-9.78814 -1.146,-1.61856 -2.5696,-2.42429 -4.2791,-2.42429 -1.6883,0 -3.028,0.71595 -4.0358,2.13957 -1.257,1.81349 -1.8891,5.17584 -1.8891,10.0729 z"
   id="path3378"
   inkscape:connector-curvature="0"
   style="fill:#000000" />
   <path
   class="fil2"
   d="m 1594.75,889.188 c 0,-3.52893 0.3615,-6.37026 1.0905,-8.51692 0.723,-2.15256 1.8064,-3.81365 3.2371,-4.97972 1.4307,-1.16725 3.23,-1.75088 5.3979,-1.75088 1.6044,0 3.0068,0.32607 4.2165,0.97232 1.2086,0.63915 2.201,1.57012 2.9938,2.78581 0.7844,1.21569 1.4023,2.69484 1.8477,4.43863 0.4513,1.74379 0.6734,4.09129 0.6734,7.05077 0,3.50057 -0.3615,6.32064 -1.0762,8.47439 -0.7231,2.15374 -1.7994,3.81365 -3.2301,4.98799 -1.4319,1.17316 -3.2371,1.75678 -5.4251,1.75678 -2.8768,0 -5.1345,-1.02784 -6.7731,-3.09062 -1.9659,-2.47982 -2.9524,-6.52976 -2.9524,-12.1285 z m 3.7652,0 c 0,4.89702 0.5765,8.1554 1.7225,9.77987 1.146,1.61856 2.5566,2.43138 4.2378,2.43138 1.6871,0 3.0977,-0.81873 4.2437,-2.44438 1.146,-1.62565 1.7225,-4.88403 1.7225,-9.76687 0,-4.9112 -0.5765,-8.17667 -1.7225,-9.78814 -1.146,-1.61856 -2.5696,-2.42429 -4.2791,-2.42429 -1.6883,0 -3.028,0.71595 -4.0358,2.13957 -1.257,1.81349 -1.8891,5.17584 -1.8891,10.0729 z"
   id="path3380"
   inkscape:connector-curvature="0"
   style="fill:#000000" />
   <rect
   id="Spectrum"
   class="fil3 str0"
   x="132.567"
   y="963.96301"
   width="1442.6899"
   height="55.425499"
   style="fill:url(#id0);stroke:#000000;stroke-width:0.900249" />
   <path
   class="fil2"
   d="m 1375.61,937.598 -6.8558,14.2268 -3.6187,0 9.3143,-19.1935 -0.3402,-1.79105 c -0.41,-1.9529 -0.9582,-3.27965 -1.6387,-3.97433 -0.6876,-0.70059 -1.4519,-1.04793 -2.2931,-1.04793 -0.7573,0 -1.4236,0.27764 -1.9931,0.83291 -0.5694,0.55527 -0.9451,1.45906 -1.1188,2.70902 l -0.736,0 c 0.041,-2.1183 0.5623,-3.81365 1.5701,-5.09196 0.7219,-0.92388 1.5973,-1.38227 2.6251,-1.38227 0.9109,0 1.6883,0.36151 2.3416,1.07746 0.9723,1.09755 1.7781,3.04218 2.403,5.8209 l 3.2513,14.3307 c 0.4927,2.13957 1.0491,3.52775 1.6741,4.1669 0.6037,0.65333 1.3268,0.9794 2.1526,0.9794 0.7856,0 1.439,-0.26346 1.9458,-0.79156 0.5068,-0.53518 0.8128,-1.38227 0.9026,-2.54952 l 0.7986,0 c 0.01,0.35443 0.014,0.61907 0.014,0.79865 0,1.77923 -0.4371,3.20994 -1.3196,4.29331 -0.6675,0.81282 -1.5347,1.22278 -2.6051,1.22278 -0.951,0 -1.7993,-0.40287 -2.5424,-1.20151 -0.7502,-0.79865 -1.4449,-2.64049 -2.0982,-5.51609 l -1.8336,-7.91912 z"
   id="path3383"
   inkscape:connector-curvature="0"
   style="fill:#000000" />
   <path
   class="fil2"
   d="m 1408.33,960.598 c -2.0214,-2.54952 -3.7298,-5.53617 -5.1262,-8.95405 -1.3965,-3.42496 -2.0982,-6.9598 -2.0982,-10.6281 0,-3.23003 0.521,-6.32064 1.5701,-9.28012 1.2228,-3.43205 3.1048,-6.84874 5.6543,-10.2524 l 2.6263,0 c -1.6398,2.82007 -2.7232,4.83441 -3.2513,6.04301 -0.8341,1.86902 -1.4791,3.82783 -1.9588,5.86225 -0.5836,2.53535 -0.8754,5.08487 -0.8754,7.64857 0,6.52976 2.0285,13.0453 6.0855,19.5609 l -2.6263,0 z"
   id="path3385"
   inkscape:connector-curvature="0"
   style="fill:#000000" />
   <path
   class="fil2"
   d="m 1415.22,951.825 0,-21.6107 3.2926,0 0,3.07053 c 1.5914,-2.37585 3.8834,-3.56319 6.8771,-3.56319 1.3067,0 2.5011,0.23629 3.5916,0.70177 1.0975,0.47257 1.9103,1.08337 2.4514,1.84775 0.5494,0.7573 0.9239,1.65991 1.1472,2.70193 0.1311,0.6805 0.2009,1.86902 0.2009,3.56319 l 0,13.2887 -3.6672,0 0,-13.1493 c 0,-1.48624 -0.1394,-2.60505 -0.4241,-3.34817 -0.2848,-0.73603 -0.7916,-1.32674 -1.5146,-1.76505 -0.729,-0.44422 -1.5761,-0.66633 -2.5554,-0.66633 -1.5631,0 -2.904,0.49975 -4.0429,1.48624 -1.133,0.99358 -1.6953,2.86851 -1.6953,5.64014 l 0,11.8025 -3.6613,0 z"
   id="path3387"
   inkscape:connector-curvature="0"
   style="fill:#000000" />
   <path
   class="fil2"
   d="m 1438.4,951.825 0,-21.6107 3.2726,0 0,3.02918 c 0.6805,-1.0562 1.5831,-1.91037 2.709,-2.54952 1.1247,-0.64624 2.4101,-0.97232 3.8479,-0.97232 1.5973,0 2.911,0.33317 3.9318,1.00067 1.0278,0.66633 1.7509,1.5902 2.1667,2.78463 1.7166,-2.52117 3.9389,-3.7853 6.6763,-3.7853 2.1466,0 3.7924,0.59781 4.9454,1.78514 1.1531,1.18734 1.7296,3.01501 1.7296,5.48065 l 0,14.8376 -3.6399,0 0,-13.6148 c 0,-1.46615 -0.1182,-2.52117 -0.3545,-3.16741 -0.2422,-0.63915 -0.6734,-1.16016 -1.2913,-1.55594 -0.6249,-0.38987 -1.3622,-0.59071 -2.2021,-0.59071 -1.5217,0 -2.7788,0.50683 -3.7865,1.52168 -0.9995,1.00658 -1.5063,2.62513 -1.5063,4.84858 l 0,12.5586 -3.6613,0 0,-14.0389 c 0,-1.63273 -0.2989,-2.85433 -0.8967,-3.66715 -0.5966,-0.81282 -1.5689,-1.22278 -2.9311,-1.22278 -1.0279,0 -1.9789,0.27055 -2.8544,0.81991 -0.8754,0.54109 -1.5145,1.33383 -1.9032,2.37585 -0.3958,1.04793 -0.5907,2.55543 -0.5907,4.52133 l 0,11.2118 -3.6613,0 z"
   id="path3389"
   inkscape:connector-curvature="0"
   style="fill:#000000" />
   <path
   class="fil2"
   d="m 1475.51,960.598 -2.6263,0 c 4.057,-6.51558 6.0855,-13.0312 6.0855,-19.5609 0,-2.54952 -0.2918,-5.07778 -0.8754,-7.59304 -0.4584,-2.02733 -1.1047,-3.98732 -1.9305,-5.85516 -0.5281,-1.22278 -1.6185,-3.25838 -3.2796,-6.10562 l 2.6263,0 c 2.5495,3.4037 4.4386,6.82039 5.6614,10.2524 1.042,2.95948 1.563,6.0501 1.563,9.28012 0,3.66834 -0.7017,7.20317 -2.1053,10.6281 -1.4035,3.41787 -3.1118,6.40452 -5.1191,8.95405 z"
   id="path3391"
   inkscape:connector-curvature="0"
   style="fill:#000000" />
   <path
   class="fil2"
   d="m 1529.47,936.765 -10.4403,-6.02292 0,4.51542 -19.6791,0 0,3.01501 19.6791,0 0,4.51542 10.4403,-6.02292 z"
   id="path3393"
   inkscape:connector-curvature="0"
   style="fill:#000000" />
   <path
   class="fil4"
   d="m 156.717,1011.05 -3.93179,0 c -2.06986,-3.1332 -3.65416,-6.3904 -4.73753,-9.774 -1.08337,-3.3753 -1.63273,-6.64786 -1.63273,-9.80818 0,-3.91762 0.6746,-7.6273 2.02142,-11.1279 1.16016,-3.04218 2.64049,-5.84216 4.43272,-8.40468 l 3.91053,0 c -1.86193,4.11137 -3.14024,7.60604 -3.84201,10.4887 -0.69468,2.88269 -1.04202,5.93904 -1.04202,9.16907 0,2.22345 0.20202,4.50124 0.61907,6.83575 0.40995,2.33334 0.9794,4.55674 1.70126,6.65384 0.47257,1.3893 1.30666,3.3765 2.50108,5.9674 z"
   id="path3395"
   inkscape:connector-curvature="0"
   style="fill:#ffffff" />
   <path
   class="fil4"
   d="m 161.114,972.446 6.02292,0 0,16.1572 c 0,2.5637 0.0756,4.2307 0.22211,4.98799 0.25755,1.2216 0.87544,2.201 1.84067,2.93821 0.97231,0.74312 2.29906,1.11054 3.98023,1.11054 1.70953,0 3.00083,-0.34734 3.86918,-1.04793 0.86835,-0.69468 1.38936,-1.55594 1.56303,-2.57079 0.18076,-1.02075 0.26346,-2.70902 0.26346,-5.07069 l 0,-16.5046 6.02292,0 0,15.6705 c 0,3.58445 -0.1595,6.11271 -0.48557,7.59304 -0.32726,1.47915 -0.92388,2.72319 -1.79932,3.74395 -0.87544,1.01368 -2.04978,1.82648 -3.50884,2.43138 -1.46497,0.6037 -3.38243,0.9026 -5.74411,0.9026 -2.84842,0 -5.00808,-0.3261 -6.48132,-0.9865 -1.47206,-0.6592 -2.63222,-1.5134 -3.4864,-2.5625 -0.85535,-1.04911 -1.41771,-2.15374 -1.68826,-3.30682 -0.39578,-1.70835 -0.59071,-4.2307 -0.59071,-7.57178 l 0,-15.9138 z"
   id="path3397"
   inkscape:connector-curvature="0"
   style="fill:#ffffff" />
   <path
   class="fil4"
   d="m 198.862,1002.28 -10.6636,-29.8346 6.53684,0 7.54342,22.0821 7.30832,-22.0821 6.39035,0 -10.6837,29.8346 -6.4317,0 z"
   id="path3399"
   inkscape:connector-curvature="0"
   style="fill:#ffffff" />
   <path
   class="fil4"
   d="m 217.422,1011.05 c 1.12472,-2.4172 1.92337,-4.2721 2.38176,-5.5574 0.45839,-1.2913 0.88962,-2.7788 1.27831,-4.4588 0.39578,-1.68112 0.68759,-3.2796 0.87544,-4.79301 0.19494,-1.5075 0.28472,-3.06344 0.28472,-4.64774 0,-3.23003 -0.34025,-6.28638 -1.03493,-9.16907 -0.69468,-2.88269 -1.9659,-6.37735 -3.82783,-10.4887 l 3.89044,0 c 2.04978,2.91695 3.63998,6.00875 4.77179,9.28012 1.13299,3.26429 1.70244,6.58528 1.70244,9.94763 0,2.84015 -0.4513,5.87643 -1.34801,9.12067 -1.01367,3.6328 -2.69484,7.2232 -5.02225,10.7664 l -3.95188,0 z"
   id="path3401"
   inkscape:connector-curvature="0"
   style="fill:#ffffff" />
   <path
   class="fil4"
   d="m 1478.69,1013.04 -3.9318,0 c -2.0698,-3.1332 -3.6541,-6.3904 -4.7375,-9.774 -1.0834,-3.3753 -1.6328,-6.64786 -1.6328,-9.80818 0,-3.91762 0.6746,-7.6273 2.0215,-11.1279 1.1601,-3.04218 2.6405,-5.84216 4.4327,-8.40468 l 3.9105,0 c -1.8619,4.11137 -3.1402,7.60604 -3.842,10.4887 -0.6947,2.88269 -1.042,5.93904 -1.042,9.16907 0,2.22345 0.202,4.50124 0.6191,6.83579 0.4099,2.3333 0.9794,4.5567 1.7012,6.6538 0.4726,1.3893 1.3067,3.3765 2.5011,5.9674 z"
   id="path3403"
   inkscape:connector-curvature="0"
   style="fill:#ffffff" />
   <path
   class="fil4"
   d="m 1482.94,1004.27 0,-29.8346 6.0217,0 0,29.8346 -6.0217,0 z"
   id="path3405"
   inkscape:connector-curvature="0"
   style="fill:#ffffff" />
   <path
   class="fil4"
   d="m 1494.72,1004.27 0,-29.8346 12.6838,0 c 3.1887,0 5.5019,0.27055 6.9468,0.80573 1.4449,0.53519 2.605,1.48624 3.4734,2.85433 0.8684,1.37636 1.2984,2.93939 1.2984,4.70327 0,2.23644 -0.6592,4.09129 -1.9718,5.55035 -1.3138,1.45198 -3.2856,2.37585 -5.9048,2.75037 1.3055,0.76439 2.3829,1.59729 3.23,2.50817 0.8471,0.9097 1.9872,2.52117 3.425,4.84149 l 3.6459,5.82089 -7.2032,0 -4.3547,-6.4943 c -1.5489,-2.32033 -2.6051,-3.77939 -3.1745,-4.38428 -0.5695,-0.60371 -1.1744,-1.01367 -1.8135,-1.24286 -0.6392,-0.22211 -1.6458,-0.33316 -3.0351,-0.33316 l -1.2157,0 0,12.4546 -6.03,0 z m 6.03,-17.2205 4.4528,0 c 2.8898,0 4.695,-0.11814 5.418,-0.36034 0.7148,-0.24337 1.2784,-0.6675 1.6871,-1.26531 0.4041,-0.59662 0.612,-1.33974 0.612,-2.23644 0,-1.00658 -0.2705,-1.81231 -0.8057,-2.43138 -0.5352,-0.61788 -1.2925,-1.00658 -2.2719,-1.17316 -0.4856,-0.0626 -1.9517,-0.098 -4.3973,-0.098 l -4.695,0 0,7.56469 z"
   id="path3407"
   inkscape:connector-curvature="0"
   style="fill:#ffffff" />
   <path
   class="fil4"
   d="m 1523.18,1013.04 c 1.1247,-2.4172 1.9234,-4.2721 2.3818,-5.5574 0.4584,-1.2913 0.8896,-2.7788 1.2783,-4.4588 0.3957,-1.6811 0.6876,-3.2796 0.8754,-4.79301 0.1949,-1.5075 0.2847,-3.06344 0.2847,-4.64774 0,-3.23003 -0.3402,-6.28638 -1.0349,-9.16907 -0.6947,-2.88269 -1.9659,-6.37735 -3.8278,-10.4887 l 3.8904,0 c 2.0498,2.91695 3.64,6.00875 4.7718,9.28012 1.133,3.26429 1.7024,6.58528 1.7024,9.94763 0,2.84015 -0.4513,5.87643 -1.348,9.12067 -1.0136,3.6328 -2.6948,7.2232 -5.0222,10.7664 l -3.9519,0 z"
   id="path3409"
   inkscape:connector-curvature="0"
   style="fill:#ffffff" />
  <path
   class="fil2"
   d="m 3.692176,119.55842 -6.02292,10.4403 4.51542,0 0,19.6791 3.01501,0 0,-19.6791 4.51542,0 -6.02292,-10.4403 z"
   id="path3393-7"
   inkscape:connector-curvature="0"
   style="fill:#000000;fill-rule:evenodd" /></g>
 <path
   class="fil2"
   d="m 53.865854,92.294029 -6.8558,14.226801 -3.6187,0 9.3143,-19.193501 -0.3402,-1.79105 c -0.41,-1.9529 -0.9582,-3.27965 -1.6387,-3.97433 -0.6876,-0.70059 -1.4519,-1.04793 -2.2931,-1.04793 -0.7573,0 -1.4236,0.27764 -1.9931,0.83291 -0.5694,0.55527 -0.9451,1.45906 -1.1188,2.70902 l -0.736,0 c 0.041,-2.1183 0.5623,-3.81365 1.5701,-5.09196 0.7219,-0.92388 1.5973,-1.38227 2.6251,-1.38227 0.9109,0 1.6883,0.36151 2.3416,1.07746 0.9723,1.09755 1.7781,3.04218 2.403,5.8209 l 3.2513,14.3307 c 0.4927,2.139571 1.0491,3.527751 1.6741,4.166901 0.6037,0.65333 1.3268,0.9794 2.1526,0.9794 0.7856,0 1.439,-0.26346 1.9458,-0.79156 0.5068,-0.53518 0.8128,-1.38227 0.9026,-2.54952 l 0.7986,0 c 0.01,0.35443 0.014,0.61907 0.014,0.79865 0,1.77923 -0.4371,3.20994 -1.3196,4.29331 -0.6675,0.81282 -1.5347,1.22278 -2.605101,1.22278 -0.950999,0 -1.799299,-0.40287 -2.542399,-1.20151 -0.750201,-0.79865 -1.4449,-2.64049 -2.0982,-5.51609 L 52.900412,83.606839 z"
   id="path3383-1"
   inkscape:connector-curvature="0"
   style="fill:#000000;fill-rule:evenodd"
   sodipodi:nodetypes="ccccccsccccsccccscccscscccc" /><text
   xml:space="preserve"
   style="font-size:42.10546875px;font-style:normal;font-weight:normal;line-height:125%;letter-spacing:0px;word-spacing:0px;fill:#000000;fill-opacity:1;stroke:none;font-family:Sans"
   x="2.5193324"
   y="110.29083"
   id="text3449"
   sodipodi:linespacing="125%"
   transform="scale(1.0523496,0.95025453)"><tspan
     sodipodi:role="line"
     id="tspan3451"
     x="2.5193324"
     y="110.29083">V( )</tspan></text>
</g>
</svg>