<?xml version="1.0" encoding="UTF-8" standalone="no"?>
<!-- Created with Inkscape (http://www.inkscape.org/) -->

<svg
   xmlns:dc="http://purl.org/dc/elements/1.1/"
   xmlns:cc="http://creativecommons.org/ns#"
   xmlns:rdf="http://www.w3.org/1999/02/22-rdf-syntax-ns#"
   xmlns:svg="http://www.w3.org/2000/svg"
   xmlns="http://www.w3.org/2000/svg"
   xmlns:sodipodi="http://sodipodi.sourceforge.net/DTD/sodipodi-0.dtd"
   xmlns:inkscape="http://www.inkscape.org/namespaces/inkscape"
   id="svg15228"
   version="1.1"
   inkscape:version="0.48.4 r9939"
   width="343.42384"
   height="222.06938"
   xml:space="preserve"
   sodipodi:docname="Sine_oscillation.pdf"><metadata
     id="metadata15234"><rdf:RDF><cc:Work
         rdf:about=""><dc:format>image/svg+xml</dc:format><dc:type
           rdf:resource="http://purl.org/dc/dcmitype/StillImage" /><dc:title></dc:title></cc:Work></rdf:RDF></metadata><defs
     id="defs15232" /><sodipodi:namedview
     pagecolor="#ffffff"
     bordercolor="#666666"
     borderopacity="1"
     objecttolerance="10"
     gridtolerance="10"
     guidetolerance="10"
     inkscape:pageopacity="0"
     inkscape:pageshadow="2"
     inkscape:window-width="1920"
     inkscape:window-height="1178"
     id="namedview15230"
     showgrid="false"
     inkscape:zoom="2.8002286"
     inkscape:cx="125.14455"
     inkscape:cy="105.29534"
     inkscape:window-x="-8"
     inkscape:window-y="-8"
     inkscape:window-maximized="1"
     inkscape:current-layer="g15238" /><g
     id="g15236"
     inkscape:groupmode="layer"
     inkscape:label="Sine_oscillation"
     transform="matrix(1.25,0,0,-1.25,0,222.06938)"><g
       id="g15238"><g
   id="g15240"
   transform="matrix(1,0,0,-1,0,177.6555)"><path
     d="m 20.977,177.004 0,-169.402"
     style="fill:none;stroke:#000000;stroke-opacity:1;stroke-width:1.3;stroke-linecap:round;stroke-linejoin:miter;stroke-miterlimit:4;stroke-dasharray:none"
     id="path15242" /></g><path
   d="m 21.375,177.253 c -0.113,0.535 -0.687,0.535 -0.801,0 l -1.597,-7.199 4,0 -1.602,7.199 z"
   style="fill:#000000;fill-opacity:1;fill-rule:nonzero;stroke:none"
   id="path15244" /><g
   id="g15246"
   transform="matrix(1,0,0,-1,0,177.6555)"><path
     d="m 21.246,97.254 233.102,0"
     style="fill:none;stroke:#000000;stroke-opacity:1;stroke-width:1.34487;stroke-linecap:round;stroke-linejoin:miter;stroke-miterlimit:4;stroke-dasharray:8.069218,8.069218;stroke-dashoffset:13.448696"
     id="path15248" /></g><text
   transform="matrix(1,0,0,-1,2.568749,4.516)"
   id="text15250" />

<text
   transform="matrix(1,0,0,-1,-0.7125,152.15975)"
   id="text15264"><tspan
     style="font-size:12.80000019px;font-variant:normal;font-weight:normal;writing-mode:lr-tb;fill:#000000;fill-opacity:1;fill-rule:nonzero;stroke:none;font-family:Arial;-inkscape-font-specification:ArialMT"
     sodipodi:role="line"
     id="tspan15266"
     x="0"
     y="0" /></text>

<g
   id="g15268"
   transform="matrix(1,0,0,-1,0,177.6555)"><path
     d="m 166.039,61.066 c 0,4.278 -3.469,7.75 -7.75,7.75 -4.277,0 -7.75,-3.472 -7.75,-7.75 0,-4.281 3.473,-7.75 7.75,-7.75 4.281,0 7.75,3.469 7.75,7.75 z"
     style="fill:none;stroke:#007f00;stroke-opacity:1;stroke-width:0.5;stroke-linecap:butt;stroke-linejoin:miter;stroke-miterlimit:4;stroke-dasharray:none"
     id="path15270" /></g><text
   transform="matrix(1,0,0,-1,154.51849,112.04891)"
   id="text15272"><tspan
     style="fill:#000000;fill-opacity:1;fill-rule:nonzero;stroke:none;font-family:Arial;font-variant:normal;font-weight:normal;font-size:12.8;writing-mode:lr;-inkscape-font-specification:ArialMT"
     x="0"
     y="0"
     id="tspan15274">1</tspan></text>

<g
   id="g15276"
   transform="matrix(1,0,0,-1,0,177.6555)"><path
     d="m 214.48,61.066 c 0,4.278 -3.472,7.75 -7.75,7.75 -4.281,0 -7.75,-3.472 -7.75,-7.75 0,-4.281 3.469,-7.75 7.75,-7.75 4.278,0 7.75,3.469 7.75,7.75 z"
     style="fill:none;stroke:#007f00;stroke-opacity:1;stroke-width:0.5;stroke-linecap:butt;stroke-linejoin:miter;stroke-miterlimit:4;stroke-dasharray:none"
     id="path15278" /></g><text
   transform="matrix(1,0,0,-1,202.95769,112.04891)"
   id="text15280"><tspan
     style="fill:#000000;fill-opacity:1;fill-rule:nonzero;stroke:none;font-family:Arial;font-variant:normal;font-weight:normal;font-size:12.8;writing-mode:lr;-inkscape-font-specification:ArialMT"
     x="0"
     y="0"
     id="tspan15282">2</tspan></text>

<g
   id="g15284"
   transform="matrix(1,0,0,-1,0,177.6555)"><path
     d="m 94.621,72.051 c 0,4.277 -3.469,7.75 -7.75,7.75 -4.281,0 -7.75,-3.473 -7.75,-7.75 0,-4.281 3.469,-7.75 7.75,-7.75 4.281,0 7.75,3.469 7.75,7.75 z"
     style="fill:none;stroke:#007f00;stroke-opacity:1;stroke-width:0.5;stroke-linecap:butt;stroke-linejoin:miter;stroke-miterlimit:4;stroke-dasharray:none"
     id="path15286" /></g><text
   transform="matrix(1,0,0,-1,83.100093,101.06459)"
   id="text15288"><tspan
     style="fill:#000000;fill-opacity:1;fill-rule:nonzero;stroke:none;font-family:Arial;font-variant:normal;font-weight:normal;font-size:12.8;writing-mode:lr;-inkscape-font-specification:ArialMT"
     x="0"
     y="0"
     id="tspan15290">3</tspan></text>

<g
   id="g15292"
   transform="matrix(1,0,0,-1,0,177.6555)"><path
     d="m 155.078,163.621 c 0,4.277 -3.469,7.75 -7.75,7.75 -4.277,0 -7.75,-3.473 -7.75,-7.75 0,-4.281 3.473,-7.75 7.75,-7.75 4.281,0 7.75,3.469 7.75,7.75 z"
     style="fill:none;stroke:#007f00;stroke-opacity:1;stroke-width:0.5;stroke-linecap:butt;stroke-linejoin:miter;stroke-miterlimit:4;stroke-dasharray:none"
     id="path15294" /></g><text
   transform="matrix(1,0,0,-1,143.55769,9.493705)"
   id="text15296"><tspan
     style="fill:#000000;fill-opacity:1;fill-rule:nonzero;stroke:none;font-family:Arial;font-variant:normal;font-weight:normal;font-size:12.8;writing-mode:lr;-inkscape-font-specification:ArialMT"
     x="0"
     y="0"
     id="tspan15298">4</tspan></text>

<g
   id="g15300"
   transform="matrix(1,0,0,-1,0,177.6555)"><path
     d="m 22.066,135.051 c 6.461,-3.86 48.2,-110.637 70.735,-110.785 23.781,-0.157 46.414,61.945 51.293,72.66 6.906,15.597 28.554,71.926 51.359,71.926 22.633,0 46.418,-64.231 49.977,-71.926"
     style="fill:none;stroke:#ff0000;stroke-opacity:1;stroke-width:1.3;stroke-linecap:butt;stroke-linejoin:miter;stroke-miterlimit:4;stroke-dasharray:none"
     id="path15302" /></g><g
   id="g15304"
   transform="matrix(1,0,0,-1,0,177.6555)"><path
     d="m 245.496,96.926 0,79.972"
     style="fill:none;stroke:#7f7f7f;stroke-opacity:1;stroke-width:0.8;stroke-linecap:butt;stroke-linejoin:miter;stroke-miterlimit:4;stroke-dasharray:none"
     id="path15306" /></g><g
   id="g15308"
   transform="matrix(1,0,0,-1,0,177.6555)"><path
     d="m 195.375,24.266 0,144.586"
     style="fill:none;stroke:#7f7f7f;stroke-opacity:1;stroke-width:0.8;stroke-linecap:butt;stroke-linejoin:miter;stroke-miterlimit:4;stroke-dasharray:none"
     id="path15310" /></g><path
   d="m 195.773,153.39 -0.796,0 -1.602,-7.199 4,0 -1.602,7.199 z"
   style="fill:#7f7f7f;fill-opacity:1;fill-rule:nonzero;stroke:none"
   id="path15312" /><path
   d="m 195.773,8.804 -0.796,0 -1.602,7.199 4,0 -1.602,-7.199 z"
   style="fill:#7f7f7f;fill-opacity:1;fill-rule:nonzero;stroke:none"
   id="path15314" /><g
   id="g15316"
   transform="matrix(1,0,0,-1,0,177.6555)"><path
     d="m 147.781,24.266 0,72.66"
     style="fill:none;stroke:#7f7f7f;stroke-opacity:1;stroke-width:0.8;stroke-linecap:butt;stroke-linejoin:miter;stroke-miterlimit:4;stroke-dasharray:none"
     id="path15318" /></g><path
   d="m 148.184,153.39 -0.801,0 -1.602,-7.199 4,0 -1.597,7.199 z"
   style="fill:#7f7f7f;fill-opacity:1;fill-rule:nonzero;stroke:none"
   id="path15320" /><path
   d="m 148.184,80.73 -0.801,0 -1.602,7.203 4,0 -1.597,-7.203 z"
   style="fill:#7f7f7f;fill-opacity:1;fill-rule:nonzero;stroke:none"
   id="path15322" /><g
   id="g15324"
   transform="matrix(1,0,0,-1,0,177.6555)"><path
     d="m 42.574,175.66 202.906,0"
     style="fill:none;stroke:#7f7f7f;stroke-opacity:1;stroke-width:0.798854;stroke-linecap:butt;stroke-linejoin:miter;stroke-miterlimit:4;stroke-dasharray:none"
     id="path15326" /></g><path
   d="m 42.574,2.398 0,-0.801 7.192,-1.598 0,3.996 -7.192,-1.597 z"
   style="fill:#7f7f7f;fill-opacity:1;fill-rule:nonzero;stroke:none"
   id="path15328" /><path
   d="m 245.48,2.398 0,-0.801 -7.191,-1.598 0,3.996 7.191,-1.597 z"
   style="fill:#7f7f7f;fill-opacity:1;fill-rule:nonzero;stroke:none"
   id="path15330" /><g
   id="g15332"
   transform="matrix(1,0,0,-1,0,177.6555)"><path
     d="m 76.977,45.652 0,51.274"
     style="fill:none;stroke:#7f7f7f;stroke-opacity:1;stroke-width:0.8;stroke-linecap:butt;stroke-linejoin:miter;stroke-miterlimit:4;stroke-dasharray:none"
     id="path15334" /></g><path
   d="m 77.375,132.003 -0.801,0 -1.597,-7.199 4,0 -1.602,7.199 z"
   style="fill:#7f7f7f;fill-opacity:1;fill-rule:nonzero;stroke:none"
   id="path15336" /><path
   d="m 77.375,80.73 -0.801,0 -1.597,7.203 4,0 -1.602,-7.203 z"
   style="fill:#7f7f7f;fill-opacity:1;fill-rule:nonzero;stroke:none"
   id="path15338" /><g
   id="g15340"
   transform="matrix(1,0,0,-1,0,177.6555)"><path
     d="m 92.344,24.266 106.773,0"
     style="fill:none;stroke:#7f7f7f;stroke-opacity:1;stroke-width:0.8;stroke-linecap:butt;stroke-linejoin:miter;stroke-miterlimit:4;stroke-dasharray:none"
     id="path15342" /></g><g
   id="g15344"
   transform="matrix(1,0,0,-1,0,177.6555)"><path
     d="m 21.805,45.652 97.09,0"
     style="fill:none;stroke:#7f7f7f;stroke-opacity:1;stroke-width:0.8;stroke-linecap:butt;stroke-linejoin:miter;stroke-miterlimit:4;stroke-dasharray:none"
     id="path15346" /></g><g
   id="g15348"
   transform="matrix(1,0,0,-1,0,177.6555)"><path
     d="m 21.332,37.742 21.277,0"
     style="fill:none;stroke:#7f7f7f;stroke-opacity:1;stroke-width:0.731529;stroke-linecap:butt;stroke-linejoin:miter;stroke-miterlimit:4;stroke-dasharray:none"
     id="path15350" /></g><path
   d="m 21.332,140.281 0,-0.731 6.582,-1.465 0,3.66 -6.582,-1.464 z"
   style="fill:#7f7f7f;fill-opacity:1;fill-rule:nonzero;stroke:none"
   id="path15352" /><path
   d="m 42.609,140.281 0,-0.731 -6.582,-1.465 0,3.66 6.582,-1.464 z"
   style="fill:#7f7f7f;fill-opacity:1;fill-rule:nonzero;stroke:none"
   id="path15354" /><g
   id="g15356"
   transform="matrix(1,0,0,-1,0,177.6555)"><path
     d="m 42.52,37.996 0,59.324"
     style="fill:none;stroke:#7f7f7f;stroke-opacity:1;stroke-width:0.689009;stroke-linecap:butt;stroke-linejoin:miter;stroke-miterlimit:4;stroke-dasharray:none"
     id="path15358" /></g><g
   id="g15360"
   transform="matrix(1,0,0,-1,0,177.6555)"><path
     d="m 39.297,28.309 c 0,4.281 -3.469,7.75 -7.75,7.75 -4.281,0 -7.75,-3.469 -7.75,-7.75 0,-4.278 3.469,-7.75 7.75,-7.75 4.281,0 7.75,3.472 7.75,7.75 z"
     style="fill:none;stroke:#007f00;stroke-opacity:1;stroke-width:0.5;stroke-linecap:butt;stroke-linejoin:miter;stroke-miterlimit:4;stroke-dasharray:none"
     id="path15362" /></g><text
   transform="matrix(1,0,0,-1,27.775,144.8035)"
   id="text15364"><tspan
     style="fill:#000000;fill-opacity:1;fill-rule:nonzero;stroke:none;font-family:Arial;font-variant:normal;font-weight:normal;font-size:12.8;writing-mode:lr;-inkscape-font-specification:ArialMT"
     x="0"
     y="0"
     id="tspan15366">5</tspan></text>

<g
   id="g15368"
   transform="matrix(1,0,0,-1,0,177.6555)"><path
     d="m 42.574,98.043 0,77.98"
     style="fill:none;stroke:#7f7f7f;stroke-opacity:1;stroke-width:0.802087;stroke-linecap:butt;stroke-linejoin:miter;stroke-miterlimit:4;stroke-dasharray:none"
     id="path15370" /></g><g
   id="g15372"
   transform="matrix(1,0,0,-1,0,177.6555)"><path
     d="m 21.465,148.227 233.101,0"
     style="fill:none;stroke:#000000;stroke-opacity:1;stroke-width:1.34487;stroke-linecap:round;stroke-linejoin:miter;stroke-miterlimit:4;stroke-dasharray:none"
     id="path15374" /></g><path
   d="m 261.766,29.031 c 0.535,0.113 0.535,0.687 0,0.8 l -7.2,1.598 0,-4 7.2,1.602 z"
   style="fill:#000000;fill-opacity:1;fill-rule:nonzero;stroke:none"
   id="path15376" /><text
   transform="matrix(1,0,0,-1,254.626,14.456454)"
   id="text15378"><tspan
     style="fill:#000000;fill-opacity:1;fill-rule:nonzero;stroke:none;font-family:CairoFont-1;font-variant:normal;font-size:12.8;writing-mode:lr;-inkscape-font-specification:CairoFont-1-0"
     x="0"
     y="0"
     id="tspan15380">t</tspan></text>

<g
   id="g15382"
   transform="matrix(1,0,0,-1,0,177.6555)"><path
     d="m 252.598,97.691 0,49.348"
     style="fill:none;stroke:#7f7f7f;stroke-opacity:1;stroke-width:0.672338;stroke-linecap:butt;stroke-linejoin:miter;stroke-miterlimit:4;stroke-dasharray:none"
     id="path15384" /></g><path
   d="m 252.934,79.964 -0.672,0 -1.344,-6.051 3.359,0 -1.343,6.051 z"
   style="fill:#7f7f7f;fill-opacity:1;fill-rule:nonzero;stroke:none"
   id="path15386" /><path
   d="m 252.934,30.616 -0.672,0 -1.344,6.051 3.359,0 -1.343,-6.051 z"
   style="fill:#7f7f7f;fill-opacity:1;fill-rule:nonzero;stroke:none"
   id="path15388" /><g
   id="g15390"
   transform="matrix(1,0,0,-1,0,177.6555)"><path
     d="m 274.488,120.344 c 0,4.281 -3.468,7.75 -7.75,7.75 -4.281,0 -7.75,-3.469 -7.75,-7.75 0,-4.281 3.469,-7.75 7.75,-7.75 4.282,0 7.75,3.469 7.75,7.75 z"
     style="fill:none;stroke:#007f00;stroke-opacity:1;stroke-width:0.5;stroke-linecap:butt;stroke-linejoin:miter;stroke-miterlimit:4;stroke-dasharray:none"
     id="path15392" /></g><text
   transform="matrix(1,0,0,-1,262.96739,52.769211)"
   id="text15394"><tspan
     style="fill:#000000;fill-opacity:1;fill-rule:nonzero;stroke:none;font-family:Arial;font-variant:normal;font-weight:normal;font-size:12.8;writing-mode:lr;-inkscape-font-specification:ArialMT"
     x="0"
     y="0"
     id="tspan15396">6</tspan></text>

<flowRoot
   xml:space="preserve"
   id="flowRoot3143"
   style="font-size:9px;font-style:normal;font-weight:normal;line-height:125%;letter-spacing:0px;word-spacing:0px;fill:#000000;fill-opacity:1;stroke:none;font-family:Sans"
   transform="matrix(0.8,0,0,-0.8,-4.5710554,183.65501)"><flowRegion
     id="flowRegion3145"><rect
       id="rect3147"
       width="23.212391"
       height="22.498163"
       x="7.1422739"
       y="18.871685" /></flowRegion><flowPara
     id="flowPara3149"
     style="font-size:16px">z(t)</flowPara></flowRoot></g></g></svg>